<svg xmlns="http://www.w3.org/2000/svg" fill="none" viewBox="0 0 48 48"><circle cx="24.264" cy="23.616" r="23" fill="#fff" stroke="#000"/><path fill="#fff" d="M27.512 28.184a4.204 4.204 0 100-8.408 4.204 4.204 0 000 8.409z"/><path fill="#000" d="M27.506 28.763a4.788 4.788 0 01-4.439-6.551 4.752 4.752 0 012.552-2.625 4.752 4.752 0 013.66-.052 4.788 4.788 0 012.677 6.213 4.79 4.79 0 01-4.45 3.015zm.006-8.411c-.487 0-.974.1-1.435.298a3.604 3.604 0 00-1.934 1.99 3.63 3.63 0 002.03 4.709 3.63 3.63 0 004.709-2.03 3.63 3.63 0 00-3.37-4.967z"/><path fill="#fff" d="M29.316 19.871c-.603-1.311-1.87-3.989-2.882-5.567-1.38-2.151-4.85-2.507-4.85-2.507l-7.351-.806-2.223 6.46c.114.045 2.106 1.928 3.135 2.997 1.027 1.07 3.639 1.976 4.42 2.157.78.182 2.994.957 4.107 1.565 1.112.608 1.802.783 2.28.246.477-.537.332-1.75-.342-2.448-.675-.697-2.499-1.62-3.623-2.53-1.124-.91-1.463-2.135-.86-2.82.603-.685 1.447-.481 2.45.248 1.003.729 2.492 3.105 2.492 3.105s1.72-.534 3.252.214l-.004-.314h-.001z"/><path fill="#000" d="M25.243 25.313c-.686 0-1.392-.385-1.85-.635-1.084-.593-3.247-1.344-3.96-1.51-.816-.19-3.56-1.128-4.706-2.32-.966-1.006-2.75-2.691-3.023-2.906a.578.578 0 01-.241-.68l2.223-6.46a.58.58 0 01.61-.387l7.352.806c.149.016 3.76.412 5.273 2.77 1.017 1.586 2.267 4.213 2.921 5.638a.578.578 0 01.053.232l.004.314a.58.58 0 01-.832.53c-1.3-.635-2.814-.187-2.83-.182a.582.582 0 01-.66-.246c-.398-.635-1.594-2.401-2.341-2.944-1.2-.873-1.533-.496-1.675-.334-.116.132-.165.308-.147.523.04.475.39 1.022.937 1.464.492.398 1.139.808 1.764 1.204.77.488 1.499.949 1.91 1.374.882.913 1.053 2.455.358 3.235a1.464 1.464 0 01-1.14.513v.001zm-12.556-8.05c.198.177.493.451.946.883a65.771 65.771 0 011.928 1.9c.887.924 3.348 1.813 4.134 1.995.786.182 3.069.974 4.254 1.62 1.277.699 1.46.493 1.57.37.237-.266.183-1.134-.326-1.661-.316-.326-1.018-.772-1.697-1.201-.654-.414-1.33-.842-1.874-1.283-.798-.645-1.294-1.47-1.361-2.266-.046-.534.104-1.013.431-1.385.534-.607 1.527-1.072 3.224.162.856.622 1.943 2.195 2.417 2.916a5.853 5.853 0 012.074-.025c-.676-1.437-1.652-3.412-2.46-4.674-1.211-1.886-4.39-2.24-4.422-2.243l-6.896-.756-1.943 5.646v.001z"/><path fill="#fff" d="M14.767 9.663l-2.29-.91a.624.624 0 00-.811.348l-3.01 7.567a.624.624 0 00.35.81l2.29.911a.624.624 0 00.81-.349l3.01-7.566a.624.624 0 00-.349-.81z"/><path fill="#000" d="M11.525 19.012c-.148 0-.298-.027-.443-.085l-2.29-.912a1.203 1.203 0 01-.673-1.561l3.01-7.566c.118-.299.346-.534.641-.66.295-.127.622-.132.92-.013l2.291.91c.617.246.918.947.673 1.563l-3.01 7.566c-.187.47-.64.758-1.118.758h-.001zm-.016-1.16c.024.008.05-.003.06-.026l3.009-7.567a.045.045 0 00-.026-.058l-2.29-.912c-.005-.001-.018-.006-.035 0a.044.044 0 00-.024.025l-3.01 7.567c-.009.023.003.049.026.058l2.29.911v.001z"/><path fill="#fff" d="M20.633 34.034l-.996-3.31a1.35 1.35 0 012.503-.988l2.103 4.242-3.61.054v.002z"/><path fill="#000" d="M20.633 34.612a.58.58 0 01-.554-.412l-.995-3.309a1.932 1.932 0 011.476-2.448 1.934 1.934 0 012.099 1.037l2.102 4.243a.58.58 0 01-.51.835l-3.609.054H20.633zm.297-5.048a.76.76 0 00-.66.373.761.761 0 00-.078.622l.87 2.89 2.255-.034-1.695-3.42a.775.775 0 00-.692-.43z"/><path fill="#fff" d="M28.101 31.77L26.2 32.905 19.883 33l-3.012-1.552a1.3 1.3 0 00-1.23 2.29l3.493 1.955 8.037 1.797 10.49-.158.789-1.084-.083-5.47-3.289-.176-2.844-1.564-5.678-2.007a1.528 1.528 0 00-1.384 2.691l2.929 2.047z"/><path fill="#000" d="M27.172 38.068a.581.581 0 01-.126-.014l-8.037-1.797a.599.599 0 01-.157-.059l-3.493-1.955a1.86 1.86 0 01-.899-1.158 1.864 1.864 0 01.208-1.451 1.884 1.884 0 012.469-.7l2.884 1.486 6.016-.09 1-.597-2.195-1.535a2.11 2.11 0 01-.427-3.056 2.11 2.11 0 012.335-.656l5.677 2.008c.03.01.059.023.086.038l2.728 1.5 3.157.168a.578.578 0 01.548.57l.082 5.47a.583.583 0 01-.11.349l-.788 1.084a.58.58 0 01-.46.238l-10.49.158h-.008zm-7.829-2.921l7.889 1.763 10.132-.152.505-.694-.071-4.737-2.75-.148a.57.57 0 01-.248-.07l-2.803-1.54-5.633-1.992a.95.95 0 00-.859 1.672l2.929 2.047a.578.578 0 01-.035.971l-1.901 1.136a.582.582 0 01-.288.082l-6.316.095a.593.593 0 01-.274-.064l-3.013-1.553a.723.723 0 00-1.027.826c.05.19.173.348.345.444l3.42 1.914h-.002z"/><path fill="#fff" d="M39.77 29.12l-3.77.057.14 9.348 3.77-.057-.14-9.347z"/><path fill="#000" d="M36.145 39.102a.579.579 0 01-.579-.57l-.14-9.348a.579.579 0 01.57-.588l3.77-.057c.321-.005.583.25.588.57l.14 9.348a.578.578 0 01-.57.588l-3.77.057h-.01zm.447-9.356l.123 8.19 2.614-.039-.123-8.19-2.614.039z"/></svg>