<svg xmlns="http://www.w3.org/2000/svg" fill="none" viewBox="0 0 47 47"><circle cx="23.5" cy="23.5" r="23" fill="#fff" stroke="#000"/><path fill="#000" fill-rule="evenodd" d="M19.768 17.942l-3.656 4.178-.753-.658 3.656-4.179.753.659zM29.376 25.464l-2.699-6.529.924-.382 2.699 6.529-.924.382zM24.495 33.332l-5.31-1.306.239-.97 5.31 1.305-.239.971z" clip-rule="evenodd"/><path fill="#fff" d="M19.705 28.593a6.836 6.836 0 11-13.673 0 6.836 6.836 0 0113.673 0z"/><path fill="#000" fill-rule="evenodd" d="M20.705 28.593a7.836 7.836 0 11-15.673 0 7.836 7.836 0 0115.673 0zM12.87 35.43a6.836 6.836 0 100-13.673 6.836 6.836 0 000 13.673z" clip-rule="evenodd"/><mask id="a" style="mask-type:alpha" width="14" height="15" x="6" y="21" maskUnits="userSpaceOnUse"><circle cx="12.869" cy="28.593" r="6.837" fill="#fff"/></mask><g mask="url(#a)"><path fill="#000" d="M7.837 35.641c0-.86-.028-1.708.008-2.552.028-.64.404-1.123.876-1.526.701-.6 1.53-.934 2.418-1.129 1.472-.323 2.932-.269 4.366.212.704.236 1.352.578 1.88 1.114.449.457.698.993.68 1.65-.017.682-.003 1.365-.003 2.048v.183H7.837zM12.952 29.5a2.417 2.417 0 01-2.415-2.41 2.416 2.416 0 012.404-2.406 2.416 2.416 0 012.415 2.41 2.417 2.417 0 01-2.404 2.406z"/><path fill="#fff" d="M13.866 35.641l-.667-3.551.45-.666a.113.113 0 00-.01-.14l-.577-.633a.114.114 0 00-.165-.004l-.636.637a.113.113 0 00-.014.143l.422.626a.115.115 0 01.018.08l-.66 3.508h1.84-.001z"/></g><path fill="#fff" d="M31.137 12.286a6.836 6.836 0 11-13.673 0 6.836 6.836 0 0113.673 0z"/><path fill="#000" fill-rule="evenodd" d="M32.137 12.286a7.836 7.836 0 11-15.673 0 7.836 7.836 0 0115.673 0zM24.3 19.123a6.836 6.836 0 100-13.673 6.836 6.836 0 000 13.673z" clip-rule="evenodd"/><mask id="b" style="mask-type:alpha" width="15" height="15" x="17" y="5" maskUnits="userSpaceOnUse"><circle cx="24.3" cy="12.286" r="6.836" fill="#fff"/></mask><g mask="url(#b)"><path fill="#fff" d="M29.311 8.422h-4.314v12.246h4.314V8.422z"/><path fill="#000" d="M29.311 20.92h-4.314a.252.252 0 01-.252-.252V8.424c0-.14.113-.253.252-.253h4.314c.14 0 .252.113.252.253v12.246c0 .139-.113.252-.252.252zm-4.062-.504h3.81V8.675h-3.81v11.741z"/><path fill="#000" d="M26.207 10.31a.252.252 0 01-.252-.252v-.4a.252.252 0 01.504 0v.4c0 .139-.113.252-.252.252zM27.154 10.31a.252.252 0 01-.252-.252v-.4a.252.252 0 01.504 0v.4c0 .139-.113.252-.252.252zM28.101 10.31a.252.252 0 01-.252-.252v-.4a.252.252 0 01.504 0v.4c0 .139-.113.252-.252.252zM26.207 11.817a.252.252 0 01-.252-.252v-.399a.252.252 0 01.504 0v.4c0 .138-.113.251-.252.251zM27.154 11.817a.252.252 0 01-.252-.252v-.399a.252.252 0 01.504 0v.4c0 .138-.113.251-.252.251zM28.101 11.817a.252.252 0 01-.252-.252v-.399a.252.252 0 01.504 0v.4c0 .138-.113.251-.252.251zM26.207 13.325a.252.252 0 01-.252-.252v-.4a.252.252 0 01.504 0v.4c0 .139-.113.252-.252.252zM27.154 13.325a.252.252 0 01-.252-.252v-.4a.252.252 0 01.504 0v.4c0 .139-.113.252-.252.252zM28.101 13.325a.252.252 0 01-.252-.252v-.4a.252.252 0 01.504 0v.4c0 .139-.113.252-.252.252zM26.207 14.832a.252.252 0 01-.252-.252v-.4a.252.252 0 01.504 0v.4c0 .139-.113.252-.252.252zM27.154 14.832a.252.252 0 01-.252-.252v-.4a.252.252 0 01.504 0v.4c0 .139-.113.252-.252.252zM28.101 14.832a.252.252 0 01-.252-.252v-.4a.252.252 0 01.504 0v.4c0 .139-.113.252-.252.252zM26.207 16.34a.252.252 0 01-.252-.253v-.399a.252.252 0 01.504 0v.4c0 .138-.113.251-.252.251zM27.154 16.34a.252.252 0 01-.252-.253v-.399a.252.252 0 01.504 0v.4c0 .138-.113.251-.252.251zM28.101 16.34a.252.252 0 01-.252-.253v-.399a.252.252 0 01.504 0v.4c0 .138-.113.251-.252.251zM26.207 17.847a.252.252 0 01-.252-.253v-.399a.252.252 0 01.504 0v.4c0 .139-.113.252-.252.252zM27.154 17.847a.252.252 0 01-.252-.253v-.399a.252.252 0 01.504 0v.4c0 .139-.113.252-.252.252zM28.101 17.847a.252.252 0 01-.252-.253v-.399a.252.252 0 01.504 0v.4c0 .139-.113.252-.252.252zM26.207 19.354a.252.252 0 01-.252-.252v-.4a.252.252 0 01.504 0v.4c0 .139-.113.252-.252.252zM27.154 19.354a.252.252 0 01-.252-.252v-.4a.252.252 0 01.504 0v.4c0 .139-.113.252-.252.252zM28.101 19.354a.252.252 0 01-.252-.252v-.4a.252.252 0 01.504 0v.4c0 .139-.113.252-.252.252z"/><path fill="#fff" d="M24.99 9.659h-4.314v11.01h4.315V9.658z"/><path fill="#000" d="M24.99 20.92h-4.314a.252.252 0 01-.252-.252V9.659c0-.138.113-.251.252-.251h4.315c.14 0 .252.113.252.252v11.01c0 .139-.113.252-.252.252zm-4.061-.504h3.81V9.911h-3.81v10.505z"/><path fill="#fff" d="M24.07 8.422h-2.472V9.66h2.473V8.422z"/><path fill="#000" d="M24.07 9.911h-2.473a.252.252 0 01-.252-.252V8.423c0-.14.113-.253.252-.253h2.473c.14 0 .253.113.253.253v1.236c0 .14-.113.252-.253.252zm-2.22-.504h1.968v-.732H21.85v.732zM23.902 11.087h-2.137a.252.252 0 010-.505h2.137a.252.252 0 010 .505zM23.902 12.463h-2.137a.252.252 0 010-.504h2.137a.252.252 0 010 .504zM23.902 13.84h-2.137a.252.252 0 010-.505h2.137a.252.252 0 010 .504z"/><path fill="#fff" d="M22.863 11.756h-4.315v8.913h4.315v-8.913z"/><path fill="#000" d="M22.863 20.92h-4.315a.252.252 0 01-.252-.252v-8.912c0-.14.113-.252.252-.252h4.315c.139 0 .252.113.252.252v8.912c0 .14-.113.253-.252.253zm-4.063-.504h3.81v-8.408H18.8v8.408z"/><path fill="#fff" d="M27.154 14.5h-4.315v6.169h4.315v-6.17z"/><path fill="#000" d="M27.154 20.92H22.84a.252.252 0 01-.253-.251v-6.17c0-.139.113-.251.253-.251h4.314c.14 0 .252.113.252.252v6.169c0 .139-.113.252-.252.252zm-4.062-.503h3.81v-5.665h-3.81v5.665zM22.84 8.675a.252.252 0 01-.253-.253v-.915a.252.252 0 01.505 0v.915c0 .14-.113.253-.252.253z"/><path fill="#000" d="M24.023 20.171a.252.252 0 01-.252-.252v-4.42a.252.252 0 01.504 0v4.42c0 .14-.113.252-.252.252zM24.997 20.171a.252.252 0 01-.252-.252v-4.42a.252.252 0 01.504 0v4.42c0 .14-.113.252-.252.252zM25.97 20.171a.252.252 0 01-.252-.252v-4.42a.252.252 0 01.504 0v4.42c0 .14-.113.252-.252.252zM19.758 14.015a.252.252 0 01-.252-.252v-.4a.252.252 0 01.504 0v.4c0 .14-.113.252-.252.252zM20.705 14.015a.252.252 0 01-.252-.252v-.4a.252.252 0 01.504 0v.4c0 .14-.113.252-.252.252zM21.652 14.015a.252.252 0 01-.252-.252v-.4a.252.252 0 01.504 0v.4c0 .14-.113.252-.252.252zM19.758 15.494a.252.252 0 01-.252-.252v-.4a.252.252 0 01.504 0v.4c0 .14-.113.252-.252.252zM20.705 15.494a.252.252 0 01-.252-.252v-.4a.252.252 0 01.504 0v.4c0 .14-.113.252-.252.252zM21.652 15.494a.252.252 0 01-.252-.252v-.4a.252.252 0 01.504 0v.4c0 .14-.113.252-.252.252zM19.758 16.974a.252.252 0 01-.252-.253v-.399a.252.252 0 01.504 0v.4c0 .139-.113.252-.252.252zM20.705 16.974a.252.252 0 01-.252-.253v-.399a.252.252 0 01.504 0v.4c0 .139-.113.252-.252.252zM21.652 16.974a.252.252 0 01-.252-.253v-.399a.252.252 0 01.504 0v.4c0 .139-.113.252-.252.252zM19.758 18.453a.252.252 0 01-.252-.252v-.4a.252.252 0 01.504 0v.4c0 .14-.113.252-.252.252zM20.705 18.453a.252.252 0 01-.252-.252v-.4a.252.252 0 01.504 0v.4c0 .14-.113.252-.252.252zM21.652 18.453a.252.252 0 01-.252-.252v-.4a.252.252 0 01.504 0v.4c0 .14-.113.252-.252.252z"/></g><path fill="#fff" d="M37.973 32.846a6.836 6.836 0 11-13.673 0 6.836 6.836 0 0113.673 0z"/><path fill="#000" fill-rule="evenodd" d="M38.973 32.846a7.836 7.836 0 11-15.673 0 7.836 7.836 0 0115.673 0zm-7.836 6.837a6.836 6.836 0 100-13.673 6.836 6.836 0 000 13.673z" clip-rule="evenodd"/><mask id="c" style="mask-type:alpha" width="14" height="14" x="24" y="26" maskUnits="userSpaceOnUse"><circle cx="31.137" cy="32.846" r="6.836" fill="#fff"/></mask><g mask="url(#c)"><path fill="#fff" d="M36.148 28.982h-4.315v12.246h4.315V28.982z"/><path fill="#000" d="M36.148 41.48h-4.315a.252.252 0 01-.252-.251V28.983c0-.14.113-.253.252-.253h4.315c.139 0 .252.113.252.253v12.246c0 .139-.113.252-.252.252zm-4.063-.503h3.81V29.235h-3.81v11.742z"/><path fill="#000" d="M33.044 30.87a.252.252 0 01-.252-.252v-.4a.252.252 0 01.504 0v.4c0 .14-.113.252-.252.252zM33.99 30.87a.252.252 0 01-.252-.252v-.4a.252.252 0 01.505 0v.4c0 .14-.113.252-.253.252zM34.938 30.87a.252.252 0 01-.253-.252v-.4a.252.252 0 01.505 0v.4c0 .14-.113.252-.252.252zM33.044 32.377a.252.252 0 01-.252-.252v-.399a.252.252 0 01.504 0v.4c0 .138-.113.251-.252.251zM33.99 32.377a.252.252 0 01-.252-.252v-.399a.252.252 0 01.505 0v.4c0 .138-.113.251-.253.251zM34.938 32.377a.252.252 0 01-.253-.252v-.399a.252.252 0 01.505 0v.4c0 .138-.113.251-.252.251zM33.044 33.885a.252.252 0 01-.252-.252v-.4a.252.252 0 01.504 0v.4c0 .139-.113.252-.252.252zM33.99 33.885a.252.252 0 01-.252-.252v-.4a.252.252 0 01.505 0v.4c0 .139-.113.252-.253.252zM34.938 33.885a.252.252 0 01-.253-.252v-.4a.252.252 0 01.505 0v.4c0 .139-.113.252-.252.252zM33.044 35.392a.252.252 0 01-.252-.252v-.4a.252.252 0 01.504 0v.4c0 .14-.113.252-.252.252zM33.99 35.392a.252.252 0 01-.252-.252v-.4a.252.252 0 01.505 0v.4c0 .14-.113.252-.253.252zM34.938 35.392a.252.252 0 01-.253-.252v-.4a.252.252 0 01.505 0v.4c0 .14-.113.252-.252.252zM33.044 36.9a.252.252 0 01-.252-.253v-.399a.252.252 0 01.504 0v.4c0 .138-.113.251-.252.251zM33.99 36.9a.252.252 0 01-.252-.253v-.399a.252.252 0 01.505 0v.4c0 .138-.113.251-.253.251zM34.938 36.9a.252.252 0 01-.253-.253v-.399a.252.252 0 01.505 0v.4c0 .138-.113.251-.252.251zM33.044 38.407a.252.252 0 01-.252-.252v-.4a.252.252 0 01.504 0v.4c0 .139-.113.252-.252.252zM33.99 38.407a.252.252 0 01-.252-.252v-.4a.252.252 0 01.505 0v.4c0 .139-.113.252-.253.252zM34.938 38.407a.252.252 0 01-.253-.252v-.4a.252.252 0 01.505 0v.4c0 .139-.113.252-.252.252zM33.044 39.914a.252.252 0 01-.252-.252v-.4a.252.252 0 01.504 0v.4c0 .139-.113.252-.252.252zM33.99 39.914a.252.252 0 01-.252-.252v-.4a.252.252 0 01.505 0v.4c0 .139-.113.252-.253.252zM34.938 39.914a.252.252 0 01-.253-.252v-.4a.252.252 0 01.505 0v.4c0 .139-.113.252-.252.252z"/><path fill="#fff" d="M31.827 30.219h-4.314v11.01h4.314v-11.01z"/><path fill="#000" d="M31.827 41.48h-4.314a.252.252 0 01-.252-.252v-11.01c0-.138.113-.251.252-.251h4.314c.14 0 .253.113.253.252v11.01c0 .139-.113.252-.253.252zm-4.062-.504h3.81V30.471h-3.81v10.505z"/><path fill="#fff" d="M30.907 28.982h-2.473v1.237h2.473v-1.237z"/><path fill="#000" d="M30.907 30.471h-2.473a.252.252 0 01-.252-.252v-1.236c0-.14.113-.253.252-.253h2.473c.139 0 .252.113.252.253v1.236c0 .14-.113.252-.252.252zm-2.221-.504h1.969v-.732h-1.97v.732zM30.739 31.647H28.6a.252.252 0 010-.504h2.138a.252.252 0 010 .504zM30.739 33.023H28.6a.252.252 0 010-.504h2.138a.252.252 0 010 .504zM30.739 34.4H28.6a.252.252 0 010-.505h2.138a.252.252 0 010 .504z"/><path fill="#fff" d="M29.7 32.316h-4.315v8.913h4.314v-8.913z"/><path fill="#000" d="M29.699 41.48h-4.315a.252.252 0 01-.252-.252v-8.912c0-.14.113-.252.252-.252H29.7c.14 0 .252.113.252.252v8.912c0 .14-.113.253-.252.253zm-4.062-.504h3.81v-8.408h-3.81v8.408z"/><path fill="#fff" d="M33.99 35.06h-4.314v6.169h4.314v-6.17z"/><path fill="#000" d="M33.99 41.48h-4.314a.252.252 0 01-.252-.251v-6.17c0-.138.113-.251.252-.251h4.314c.14 0 .253.113.253.252v6.169c0 .139-.113.252-.253.252zm-4.062-.503h3.81v-5.665h-3.81v5.665zM29.676 29.235a.252.252 0 01-.252-.252v-.916a.252.252 0 01.504 0v.916c0 .139-.113.252-.252.252z"/><path fill="#000" d="M30.86 40.731a.252.252 0 01-.253-.252v-4.42a.252.252 0 01.505 0v4.42c0 .14-.113.252-.252.252zM31.833 40.731a.252.252 0 01-.252-.252v-4.42a.252.252 0 01.504 0v4.42c0 .14-.113.252-.252.252zM32.806 40.731a.252.252 0 01-.252-.252v-4.42a.252.252 0 01.504 0v4.42c0 .14-.112.252-.252.252zM26.594 34.575a.252.252 0 01-.252-.252v-.399a.252.252 0 01.505 0v.399c0 .14-.113.252-.253.252zM27.542 34.575a.252.252 0 01-.252-.252v-.399a.252.252 0 01.504 0v.399c0 .14-.113.252-.252.252zM28.488 34.575a.252.252 0 01-.252-.252v-.399a.252.252 0 01.505 0v.399c0 .14-.113.252-.253.252zM26.594 36.054a.252.252 0 01-.252-.252v-.399a.252.252 0 01.505 0v.399c0 .14-.113.252-.253.252zM27.542 36.054a.252.252 0 01-.252-.252v-.399a.252.252 0 01.504 0v.399c0 .14-.113.252-.252.252zM28.488 36.054a.252.252 0 01-.252-.252v-.399a.252.252 0 01.505 0v.399c0 .14-.113.252-.253.252zM26.594 37.534a.252.252 0 01-.252-.252v-.4a.252.252 0 01.505 0v.4c0 .139-.113.252-.253.252zM27.542 37.534a.252.252 0 01-.252-.252v-.4a.252.252 0 01.504 0v.4c0 .139-.113.252-.252.252zM28.488 37.534a.252.252 0 01-.252-.252v-.4a.252.252 0 01.505 0v.4c0 .139-.113.252-.253.252zM26.594 39.013a.252.252 0 01-.252-.252v-.399a.252.252 0 01.505 0v.399c0 .14-.113.252-.253.252zM27.542 39.013a.252.252 0 01-.252-.252v-.399a.252.252 0 01.504 0v.399c0 .14-.113.252-.252.252zM28.488 39.013a.252.252 0 01-.252-.252v-.399a.252.252 0 01.505 0v.399c0 .14-.113.252-.253.252z"/></g></svg>