<svg xmlns="http://www.w3.org/2000/svg" fill="none" viewBox="0 0 47 47"><circle cx="23.5" cy="23.5" r="23" fill="#fff" stroke="#000"/><path fill="#fff" d="M18.302 33.654a5.305 5.305 0 100-10.61 5.305 5.305 0 000 10.61z"/><path fill="#000" d="M18.302 34.214a5.85 5.85 0 01-2.238-.448 5.823 5.823 0 01-3.175-3.168 5.825 5.825 0 01-.005-4.487 5.82 5.82 0 013.17-3.175 5.826 5.826 0 014.486-.004 5.823 5.823 0 013.175 3.169c.6 1.446.602 3.039.004 4.486a5.821 5.821 0 01-3.169 3.175 5.845 5.845 0 01-2.248.451zm0-10.615c-.617 0-1.234.122-1.821.366a4.714 4.714 0 00-2.567 2.572 4.714 4.714 0 00.004 3.635 4.714 4.714 0 002.572 2.567 4.718 4.718 0 003.634-.003 4.714 4.714 0 002.567-2.573 4.718 4.718 0 00-.003-3.634 4.714 4.714 0 00-2.572-2.567 4.75 4.75 0 00-1.813-.362v-.001z"/><path fill="#fff" d="M15.948 23.2c.735-1.666 2.283-5.067 3.53-7.079 1.701-2.739 6.07-3.254 6.07-3.254l9.26-1.157 2.927 8.108c-.143.06-2.621 2.472-3.898 3.84-1.276 1.37-4.554 2.562-5.536 2.806-.98.243-3.76 1.264-5.15 2.052-1.392.787-2.26 1.022-2.872.354-.613-.668-.453-2.202.385-3.095.838-.893 3.12-2.093 4.522-3.262 1.401-1.169 1.805-2.72 1.032-3.572-.774-.853-1.834-.58-3.086.359-1.252.939-3.085 3.965-3.085 3.965s-2.18-.642-4.1.331V23.2z"/><path fill="#000" d="M21.15 29.82c-.463 0-.901-.16-1.281-.574-.82-.893-.631-2.765.39-3.851.497-.53 1.398-1.12 2.351-1.744.786-.515 1.599-1.047 2.22-1.565.716-.597 1.171-1.34 1.216-1.985.022-.322-.059-.586-.24-.786-.214-.236-.715-.788-2.34.43-.955.717-2.448 2.992-2.943 3.808a.557.557 0 01-.633.245c-.018-.005-2-.562-3.691.295a.556.556 0 01-.808-.497V23.2c0-.077.016-.154.047-.224.796-1.806 2.32-5.136 3.568-7.148 1.82-2.933 6.288-3.49 6.477-3.513l9.256-1.156a.556.556 0 01.592.363l2.927 8.108c.091.251-.01.527-.23.662-.316.251-2.547 2.422-3.783 3.747-1.395 1.497-4.794 2.715-5.809 2.967-.905.224-3.642 1.221-5.01 1.996-.74.418-1.54.82-2.276.82v-.002zm3.986-11.954c.571 0 1.07.233 1.494.7.387.428.569.984.525 1.611-.067.957-.654 1.964-1.613 2.763-.671.56-1.51 1.11-2.323 1.641-.897.587-1.744 1.142-2.15 1.574-.658.7-.772 1.911-.38 2.338.236.258.6.436 2.186-.462 1.47-.832 4.312-1.865 5.292-2.108 1.035-.257 4.12-1.42 5.262-2.645a85.11 85.11 0 012.392-2.43c.636-.623 1.02-.988 1.258-1.205l-2.645-7.327-8.818 1.102c-.045.005-4.13.52-5.666 2.995-1.06 1.71-2.34 4.433-3.17 6.279 1.235-.317 2.401-.177 3.003-.061.532-.84 1.939-2.972 3.014-3.779.877-.658 1.659-.987 2.338-.987v.001z"/><path fill="#fff" d="M38.485 21.047l3.218-1.336a.6.6 0 00.324-.785l-4.083-9.834a.6.6 0 00-.785-.324l-3.218 1.336a.6.6 0 00-.324.785l4.083 9.834a.6.6 0 00.785.324z"/><path fill="#000" d="M38.253 21.662a1.16 1.16 0 01-1.07-.713l-4.085-9.834a1.148 1.148 0 010-.886c.118-.285.34-.508.625-.626l3.219-1.337a1.157 1.157 0 011.512.625l4.084 9.834c.119.285.119.6 0 .886-.117.285-.34.508-.625.626l-3.219 1.337a1.15 1.15 0 01-.442.088zm-.868-12.37c-.006 0-.011 0-.016.003l-3.219 1.337a.04.04 0 00-.024.023c-.006.017-.001.03 0 .034l4.084 9.834a.044.044 0 00.057.024l3.22-1.337a.04.04 0 00.023-.024c.007-.017.001-.029 0-.033l-4.084-9.834a.042.042 0 00-.04-.027z"/><path fill="#fff" d="M26.841 39.128H9.631l.246-3.136h16.668l.296 3.136z"/><path fill="#000" d="M26.84 39.685H9.63a.556.556 0 01-.555-.6l.247-3.137a.557.557 0 01.555-.513h16.668c.287 0 .527.218.554.505l.296 3.136a.556.556 0 01-.554.609zM10.233 38.57H26.23l-.19-2.023H10.392l-.159 2.023z"/></svg>