<svg xmlns="http://www.w3.org/2000/svg" fill="none" viewBox="0 0 13 13"><path fill="#000" d="M4.088 5.437c-.015.115-.033.223-.045.331a3.38 3.38 0 00.102 1.265c.011.041.007.066-.02.097-.262.304-.527.604-.783.914-.298.361-.396.795-.278 1.276.115.473.389.781.798.902.403.118.766.004 1.063-.337.603-.694 1.204-1.392 1.798-2.098.323-.386.41-.855.253-1.361-.156-.507-.483-.787-.942-.855a.21.21 0 01-.018-.003l-.008-.009c.012-.015.024-.033.037-.048l.773-.903c.022-.026.039-.03.066-.013.695.42 1.106 1.08 1.198 1.987.082.811-.137 1.515-.631 2.096-.591.694-1.179 1.392-1.78 2.073-.62.7-1.362.917-2.183.62-.812-.294-1.314-.96-1.477-1.933-.145-.87.062-1.638.595-2.274.478-.57.966-1.129 1.45-1.693l.033-.034z"/><path fill="#000" d="M8.413 7.549c.015-.117.032-.228.044-.34a3.392 3.392 0 00-.106-1.254c-.012-.04-.005-.063.02-.092.259-.3.52-.597.773-.902.31-.373.41-.818.28-1.313-.13-.497-.428-.801-.866-.897-.376-.083-.71.038-.983.352-.605.699-1.209 1.398-1.804 2.107-.32.38-.407.844-.256 1.346.149.493.462.776.906.858l.073.011c-.015.02-.025.036-.037.05l-.783.914c-.019.022-.034.026-.058.011-.662-.396-1.07-1.018-1.187-1.874-.116-.859.1-1.605.627-2.223.594-.696 1.183-1.397 1.786-2.082 1.181-1.34 3.204-.739 3.62 1.196.194.906 0 1.718-.558 2.393-.478.577-.972 1.137-1.459 1.705l-.032.034z"/></svg>