<svg xmlns="http://www.w3.org/2000/svg" fill="none" viewBox="0 0 48 48"><circle cx="23.622" cy="23.616" r="23" fill="#fff" stroke="#fff"/><mask id="a" style="mask-type:alpha" width="46" height="46" x="1" y="1" maskUnits="userSpaceOnUse"><circle cx="23.622" cy="23.616" r="22.5" fill="#fff"/></mask><g mask="url(#a)"><path fill="#fff" d="M40.113 10.899h-14.2v40.303h14.2V10.9z"/><path fill="#000" d="M40.113 52.032h-14.2a.83.83 0 01-.83-.83V10.9a.83.83 0 01.83-.83h14.2a.83.83 0 01.83.83v40.304a.83.83 0 01-.83.83zm-13.37-1.66h12.54V11.73h-12.54v38.644z"/><path fill="#000" d="M29.897 17.111a.83.83 0 01-.83-.83v-1.313a.83.83 0 011.66 0v1.314a.83.83 0 01-.83.83zM33.013 17.111a.83.83 0 01-.83-.83v-1.313a.83.83 0 011.66 0v1.314a.83.83 0 01-.83.83zM36.13 17.111a.83.83 0 01-.83-.83v-1.313a.83.83 0 011.66 0v1.314a.83.83 0 01-.83.83zM29.897 22.072a.83.83 0 01-.83-.83V19.93a.83.83 0 011.66 0v1.314a.83.83 0 01-.83.83zM33.013 22.072a.83.83 0 01-.83-.83V19.93a.83.83 0 011.66 0v1.314a.83.83 0 01-.83.83zM36.13 22.072a.83.83 0 01-.83-.83V19.93a.83.83 0 011.66 0v1.314a.83.83 0 01-.83.83zM29.897 27.033a.83.83 0 01-.83-.83V24.89a.83.83 0 011.66 0v1.313a.83.83 0 01-.83.83zM33.013 27.033a.83.83 0 01-.83-.83V24.89a.83.83 0 011.66 0v1.313a.83.83 0 01-.83.83zM36.13 27.033a.83.83 0 01-.83-.83V24.89a.83.83 0 011.66 0v1.313a.83.83 0 01-.83.83zM29.897 31.994a.83.83 0 01-.83-.83V29.85a.83.83 0 011.66 0v1.313a.83.83 0 01-.83.83zM33.013 31.994a.83.83 0 01-.83-.83V29.85a.83.83 0 011.66 0v1.313a.83.83 0 01-.83.83zM36.13 31.994a.83.83 0 01-.83-.83V29.85a.83.83 0 011.66 0v1.313a.83.83 0 01-.83.83zM29.897 36.955a.83.83 0 01-.83-.83v-1.313a.83.83 0 011.66 0v1.313a.83.83 0 01-.83.83zM33.013 36.955a.83.83 0 01-.83-.83v-1.313a.83.83 0 011.66 0v1.313a.83.83 0 01-.83.83zM36.13 36.955a.83.83 0 01-.83-.83v-1.313a.83.83 0 011.66 0v1.313a.83.83 0 01-.83.83zM29.897 41.916a.83.83 0 01-.83-.83v-1.313a.83.83 0 011.66 0v1.313a.83.83 0 01-.83.83zM33.013 41.916a.83.83 0 01-.83-.83v-1.313a.83.83 0 011.66 0v1.313a.83.83 0 01-.83.83zM36.13 41.916a.83.83 0 01-.83-.83v-1.313a.83.83 0 011.66 0v1.313a.83.83 0 01-.83.83zM29.897 46.876a.83.83 0 01-.83-.83v-1.313a.83.83 0 011.66 0v1.313a.83.83 0 01-.83.83zM33.013 46.876a.83.83 0 01-.83-.83v-1.313a.83.83 0 011.66 0v1.313a.83.83 0 01-.83.83zM36.13 46.876a.83.83 0 01-.83-.83v-1.313a.83.83 0 011.66 0v1.313a.83.83 0 01-.83.83z"/><path fill="#fff" d="M25.894 14.968h-14.2v36.235h14.2V14.968z"/><path fill="#000" d="M25.894 52.033h-14.2a.83.83 0 01-.83-.83V14.968a.83.83 0 01.83-.83h14.2a.83.83 0 01.83.83v36.235a.83.83 0 01-.83.83zm-13.37-1.66h12.54V15.798h-12.54v34.575z"/><path fill="#fff" d="M22.865 10.899h-8.14v4.069h8.14v-4.07z"/><path fill="#000" d="M22.864 15.798h-8.14a.83.83 0 01-.829-.83V10.9a.83.83 0 01.83-.83h8.139a.83.83 0 01.83.83v4.07a.83.83 0 01-.83.829zm-7.31-1.66h6.48v-2.41h-6.48v2.41zM22.312 19.668h-7.036a.83.83 0 010-1.66h7.036a.83.83 0 010 1.66zM22.312 24.196h-7.036a.83.83 0 010-1.66h7.036a.83.83 0 010 1.66zM22.312 28.725h-7.036a.83.83 0 010-1.66h7.036a.83.83 0 010 1.66z"/><path fill="#fff" d="M18.89 21.872H4.69v29.332h14.2V21.872z"/><path fill="#000" d="M18.89 52.033H4.69a.83.83 0 01-.83-.83V21.87a.83.83 0 01.83-.83h14.2a.83.83 0 01.83.83v29.332a.83.83 0 01-.83.83zm-13.37-1.66h12.54V22.701H5.52v27.672z"/><path fill="#fff" d="M33.013 30.9h-14.2v20.303h14.2V30.899z"/><path fill="#000" d="M33.013 52.033h-14.2a.83.83 0 01-.83-.83V30.9a.83.83 0 01.83-.83h14.2a.83.83 0 01.83.83v20.303a.83.83 0 01-.83.83zm-13.37-1.66h12.54V31.73h-12.54v18.644zM18.814 11.729a.83.83 0 01-.83-.83V7.888a.83.83 0 011.66 0v3.011a.83.83 0 01-.83.83z"/><path fill="#000" d="M22.71 49.565a.83.83 0 01-.83-.83V34.19a.83.83 0 011.66 0v14.546a.83.83 0 01-.83.83zM25.914 49.565a.83.83 0 01-.83-.83V34.19a.83.83 0 011.66 0v14.546a.83.83 0 01-.83.83zM29.118 49.565a.83.83 0 01-.83-.83V34.19a.83.83 0 011.66 0v14.546a.83.83 0 01-.83.83zM8.672 29.305a.83.83 0 01-.83-.83v-1.313a.83.83 0 011.66 0v1.314a.83.83 0 01-.83.83zM11.79 29.305a.83.83 0 01-.83-.83v-1.313a.83.83 0 011.66 0v1.314a.83.83 0 01-.83.83zM14.906 29.305a.83.83 0 01-.83-.83v-1.313a.83.83 0 011.66 0v1.314a.83.83 0 01-.83.83zM8.672 34.173a.83.83 0 01-.83-.83V32.03a.83.83 0 011.66 0v1.314a.83.83 0 01-.83.83zM11.79 34.173a.83.83 0 01-.83-.83V32.03a.83.83 0 011.66 0v1.314a.83.83 0 01-.83.83zM14.906 34.173a.83.83 0 01-.83-.83V32.03a.83.83 0 011.66 0v1.314a.83.83 0 01-.83.83zM8.672 39.042a.83.83 0 01-.83-.83V36.9a.83.83 0 011.66 0v1.313a.83.83 0 01-.83.83zM11.79 39.042a.83.83 0 01-.83-.83V36.9a.83.83 0 011.66 0v1.313a.83.83 0 01-.83.83zM14.906 39.042a.83.83 0 01-.83-.83V36.9a.83.83 0 011.66 0v1.313a.83.83 0 01-.83.83zM8.672 43.911a.83.83 0 01-.83-.83v-1.313a.83.83 0 011.66 0v1.313a.83.83 0 01-.83.83zM11.79 43.911a.83.83 0 01-.83-.83v-1.313a.83.83 0 011.66 0v1.313a.83.83 0 01-.83.83zM14.906 43.911a.83.83 0 01-.83-.83v-1.313a.83.83 0 011.66 0v1.313a.83.83 0 01-.83.83z"/></g></svg>