<svg xmlns="http://www.w3.org/2000/svg" fill="none" viewBox="0 0 47 47"><circle cx="23.5" cy="23.5" r="23" fill="#fff" stroke="#000"/><path fill="#fff" d="M38.078 25.942c-.271-2.015-4.643-3.09-9.765-2.4-5.121.69-9.053 2.882-8.782 4.898l.51 3.778c.27 2.016 4.643 3.09 9.764 2.4 5.122-.69 9.054-2.882 8.782-4.897l-.509-3.78v.001z"/><path fill="#000" d="M26.77 35.403c-1.393 0-2.69-.138-3.804-.411-2.09-.514-3.331-1.471-3.496-2.697l-.508-3.772-.001-.007c-.165-1.225.779-2.477 2.658-3.525 1.72-.959 4.07-1.676 6.617-2.019 2.546-.342 5.003-.273 6.915.197 2.09.514 3.331 1.471 3.497 2.696l.509 3.78c.165 1.225-.78 2.476-2.659 3.524-1.72.96-4.07 1.677-6.616 2.02a23.42 23.42 0 01-3.113.214zm-6.67-7.04l.51 3.778c.095.704 1.078 1.352 2.63 1.734 1.777.437 4.08.498 6.488.174 2.407-.325 4.613-.994 6.21-1.885 1.397-.778 2.174-1.663 2.08-2.367l-.51-3.78c-.095-.703-1.078-1.35-2.63-1.732-1.777-.437-4.08-.499-6.488-.174-2.407.324-4.613.993-6.21 1.884-1.394.777-2.17 1.66-2.08 2.363v.004z"/><path fill="#000" d="M26.26 31.624c-1.392 0-2.689-.138-3.803-.412-2.09-.513-3.331-1.47-3.496-2.696-.165-1.225.779-2.477 2.658-3.525 1.72-.959 4.07-1.676 6.617-2.019 2.546-.342 5.003-.273 6.915.197 2.09.514 3.332 1.471 3.497 2.696.164 1.225-.78 2.477-2.659 3.525-1.72.96-4.07 1.677-6.616 2.02a23.44 23.44 0 01-3.113.215v-.001zm5.093-7.718c-.948 0-1.946.068-2.963.205-2.407.324-4.613.993-6.21 1.884-1.397.779-2.174 1.663-2.08 2.367.096.704 1.08 1.352 2.632 1.733 1.776.437 4.08.499 6.487.174 2.407-.324 4.613-.993 6.21-1.884 1.397-.779 2.174-1.663 2.08-2.367-.095-.704-1.08-1.352-2.631-1.733-1.026-.253-2.228-.38-3.524-.38z"/><path fill="#000" d="M22.499 34.741a.574.574 0 01-.569-.498l-.395-2.938a.575.575 0 011.139-.153l.395 2.938a.575.575 0 01-.57.651zM25.421 34.921a.574.574 0 01-.569-.498l-.395-2.938a.575.575 0 011.139-.153l.395 2.938a.575.575 0 01-.57.651zM28.322 34.944a.574.574 0 01-.569-.498l-.395-2.938a.575.575 0 011.139-.153l.395 2.938a.575.575 0 01-.57.651zM31.15 34.427a.574.574 0 01-.568-.499l-.396-2.937a.575.575 0 011.14-.154l.395 2.938a.575.575 0 01-.57.652zM33.943 33.641a.574.574 0 01-.57-.498l-.395-2.938a.575.575 0 011.14-.153l.395 2.937a.575.575 0 01-.57.652zM36.73 32.825a.574.574 0 01-.568-.499l-.396-2.937a.575.575 0 011.14-.154l.395 2.938a.575.575 0 01-.57.652zM11.755 27.033a.842.842 0 01-.595-1.44l8.758-8.735a.843.843 0 011.002-.142l5.62 3.092 7.533-7.752a.842.842 0 111.21 1.176L27.3 21.444a.843.843 0 01-1.01.15l-5.63-3.097-8.31 8.288a.842.842 0 01-.595.246v.001z"/><path fill="#000" d="M35.519 19.696l-1.35-.028.149-6.651-6.645.337-.067-1.348 8.092-.41-.179 8.1z"/><path fill="#fff" d="M26.961 24.296c-.271-2.015-4.643-3.09-9.765-2.4-5.121.69-9.053 2.882-8.782 4.898l.51 3.778c.27 2.016 4.642 3.09 9.764 2.4 5.122-.69 9.053-2.882 8.782-4.897l-.509-3.78v.001z"/><path fill="#000" d="M15.652 33.758c-1.392 0-2.69-.138-3.803-.412-2.09-.514-3.332-1.471-3.496-2.696l-.509-3.774v-.006c-.165-1.225.779-2.476 2.658-3.524 1.72-.96 4.07-1.677 6.617-2.02 2.546-.343 5.002-.273 6.915.197 2.09.513 3.332 1.47 3.497 2.696l.509 3.78c.164 1.224-.78 2.476-2.66 3.524-1.72.959-4.069 1.677-6.615 2.02a23.42 23.42 0 01-3.113.214zm-6.67-7.045l.002.01.509 3.774c.095.703 1.078 1.351 2.63 1.733 1.777.437 4.08.498 6.488.174 2.407-.325 4.613-.994 6.21-1.885 1.397-.778 2.174-1.663 2.08-2.367l-.51-3.78c-.095-.703-1.078-1.35-2.63-1.732-1.777-.437-4.08-.499-6.488-.174-2.407.324-4.613.993-6.21 1.884-1.394.777-2.171 1.66-2.08 2.363z"/><path fill="#000" d="M15.143 29.978c-1.392 0-2.69-.138-3.803-.411-2.09-.514-3.332-1.471-3.496-2.697-.165-1.225.779-2.476 2.658-3.524 1.72-.96 4.07-1.677 6.617-2.02 2.546-.343 5.002-.273 6.915.197 2.09.513 3.33 1.47 3.497 2.696.164 1.225-.78 2.477-2.66 3.525-1.72.959-4.069 1.676-6.615 2.019a23.42 23.42 0 01-3.113.214v.001zm5.093-7.718a22.4 22.4 0 00-2.963.205c-2.407.324-4.613.993-6.21 1.884-1.397.779-2.174 1.664-2.08 2.367.096.704 1.08 1.352 2.631 1.734 1.777.436 4.08.498 6.488.174 2.407-.325 4.613-.994 6.21-1.885 1.397-.778 2.174-1.663 2.08-2.367-.096-.704-1.08-1.351-2.632-1.733-1.025-.252-2.227-.38-3.523-.38v.001z"/><path fill="#000" d="M11.38 33.095a.574.574 0 01-.568-.498l-.396-2.938a.575.575 0 011.14-.153l.395 2.938a.575.575 0 01-.57.651zM14.303 33.275a.574.574 0 01-.569-.498l-.395-2.938a.575.575 0 011.139-.153l.395 2.938a.575.575 0 01-.57.651zM17.204 33.298a.574.574 0 01-.568-.498l-.396-2.938a.575.575 0 011.14-.153l.395 2.938a.575.575 0 01-.57.651zM20.032 32.78a.574.574 0 01-.568-.498l-.396-2.937a.575.575 0 011.14-.154l.395 2.938a.575.575 0 01-.57.652zM22.825 31.995a.574.574 0 01-.57-.498l-.395-2.938a.575.575 0 011.14-.153l.395 2.937a.575.575 0 01-.57.652zM25.613 31.179a.574.574 0 01-.57-.499l-.395-2.937a.575.575 0 011.14-.154l.395 2.938a.575.575 0 01-.57.652z"/></svg>