<svg xmlns="http://www.w3.org/2000/svg" fill="none" viewBox="0 0 47 47"><circle cx="23.5" cy="23.5" r="23" fill="#fff" stroke="#000"/><path fill="#fff" d="M8.363 28.872l14.762-9.357 15.66 8.899-15.077 9.049-15.345-8.591z"/><path fill="#000" d="M23.707 38.06c-.1 0-.2-.025-.291-.076L8.072 29.392a.598.598 0 01-.027-1.026l14.761-9.357a.598.598 0 01.615-.015l15.66 8.899a.597.597 0 01.012 1.031l-15.078 9.05a.6.6 0 01-.308.086zM9.53 28.84l14.167 7.932 13.904-8.345-14.458-8.215L9.53 28.839z"/><path fill="#fff" d="M8.292 24.131l14.762-9.357 15.66 8.899-15.078 9.05L8.292 24.13z"/><path fill="#000" d="M23.636 33.32c-.1 0-.201-.025-.292-.076L8.001 24.652a.596.596 0 01-.028-1.026l14.762-9.357a.598.598 0 01.615-.015l15.66 8.899a.597.597 0 01.011 1.031l-15.078 9.05a.599.599 0 01-.307.085v.001zM9.459 24.1l14.166 7.933 13.904-8.345-14.458-8.216L9.458 24.1z"/><path fill="#fff" d="M8.213 18.895l14.762-9.357 15.66 8.899-15.078 9.05-15.344-8.592z"/><path fill="#000" d="M23.557 28.084c-.1 0-.2-.026-.292-.077L7.922 19.416a.596.596 0 01-.028-1.026l14.762-9.357a.598.598 0 01.615-.015l15.66 8.898a.597.597 0 01.012 1.032l-15.078 9.05a.599.599 0 01-.308.085zM9.38 18.863l14.167 7.933L37.45 18.45l-14.458-8.216L9.38 18.863z"/><path fill="#000" d="M28.588 25.065a.599.599 0 01-.295-.078l-15.12-8.592a.598.598 0 01.59-1.04l15.12 8.592a.598.598 0 01-.295 1.118zM33.485 21.773a.6.6 0 01-.295-.078l-15.235-8.657a.598.598 0 01.59-1.04l15.235 8.657a.598.598 0 01-.295 1.118z"/><path fill="#000" d="M13.315 22.17a.597.597 0 01-.311-1.107l14.854-9.065a.597.597 0 11.622 1.02l-14.854 9.065a.598.598 0 01-.31.088zM18.08 24.892a.598.598 0 01-.31-1.107l14.854-9.065a.597.597 0 11.622 1.02L18.39 24.805a.6.6 0 01-.31.088z"/></svg>