<svg xmlns="http://www.w3.org/2000/svg" fill="none" viewBox="0 0 48 47"><circle cx="24.396" cy="23.5" r="23" fill="#fff" stroke="#000"/><path fill="#000" d="M21.51 30.822c-5.988 0-10.858-4.87-10.858-10.857 0-5.986 4.871-10.858 10.857-10.858 5.987 0 10.858 4.872 10.858 10.858 0 5.986-4.871 10.857-10.858 10.857zm0-19.206c-4.604 0-8.349 3.745-8.349 8.348 0 4.603 3.745 8.348 8.348 8.348 4.603 0 8.348-3.745 8.348-8.348 0-4.603-3.745-8.348-8.348-8.348z"/><path fill="#000" d="M36.886 37.892a1.25 1.25 0 01-.92-.401l-8.894-9.588a1.255 1.255 0 111.84-1.707l8.894 9.588a1.255 1.255 0 01-.92 2.108zM19.994 22.04v-.627c0-.568.121-1.053.365-1.452.244-.4.662-.815 1.253-1.244.522-.371.896-.692 1.122-.965.226-.272.34-.595.34-.966 0-.372-.137-.638-.41-.835-.272-.197-.652-.296-1.139-.296-.486 0-.968.075-1.444.226-.476.15-.962.354-1.461.609l-.923-1.862a9.383 9.383 0 011.844-.766 7.605 7.605 0 012.175-.296c1.207 0 2.143.29 2.81.87.666.58 1 1.317 1 2.21 0 .475-.075.887-.225 1.235a3.16 3.16 0 01-.679.975 9.01 9.01 0 01-1.131.94 8.833 8.833 0 00-.792.634c-.18.17-.302.337-.366.505a1.686 1.686 0 00-.095.6v.506h-2.244v-.002zm-.278 2.904c0-.533.144-.907.434-1.122.29-.215.644-.322 1.061-.322.418 0 .754.107 1.044.322.29.215.435.59.435 1.122 0 .533-.146.879-.435 1.105-.29.226-.638.34-1.044.34-.405 0-.771-.114-1.06-.34-.29-.225-.435-.594-.435-1.105z"/></svg>