<svg width="48" height="48" viewBox="0 0 48 48" fill="none" xmlns="http://www.w3.org/2000/svg">
<circle cx="23.5234" cy="24.0957" r="23" fill="white" stroke="white"/>
<mask id="mask0_275_17565" style="mask-type:alpha" maskUnits="userSpaceOnUse" x="1" y="1" width="46" height="46">
<circle cx="23.5234" cy="24.0957" r="22.5" fill="white"/>
</mask>
<g mask="url(#mask0_275_17565)">
<path d="M1.02246 48.43C1.27743 46.8296 1.57555 45.2331 1.77756 43.6248C2.18159 40.4044 3.85457 38.3019 7.02011 37.4232C9.87183 36.6328 12.7157 35.811 15.589 34.9951C15.7047 35.203 15.8087 35.3325 15.8499 35.4776C17.311 40.6338 24.5031 42.4579 28.767 39.5865C30.3341 38.5313 31.0891 36.9937 31.2755 35.0383C32.7268 35.409 34.135 35.7502 35.5315 36.1327C37.2888 36.6151 39.0324 37.1408 40.7878 37.6311C43.8631 38.4882 45.3027 40.6044 45.5616 43.6935C45.7008 45.3429 45.9401 46.9826 46.1323 48.6281V49.2165H1.02246C1.02246 48.9537 1.02246 48.6928 1.02246 48.43Z" fill="black"/>
<path d="M32.7033 23.5939C34.8509 23.5331 35.3942 24.1784 35.0078 26.0808C34.8666 26.781 34.6822 27.4773 34.4763 28.1618C34.2076 29.0561 33.7859 29.8093 32.6778 29.6641C31.7971 33.5887 27.5117 37.1739 23.8402 37.0504C23.1066 37.0249 22.3339 36.8641 21.6592 36.5777C19.4841 35.65 17.7562 34.079 16.2499 32.3138C15.6733 31.6372 15.4929 30.6213 15.1026 29.6877C13.5492 29.3797 13.1079 28.2402 12.8157 25.7317C12.647 24.2823 13.1158 23.4704 14.0494 23.0801C13.9572 21.6169 13.8356 20.2028 13.7905 18.7868C13.7336 16.9765 13.2629 15.429 11.3428 14.6308C13.9788 11.5594 16.6187 8.62922 20.4608 7.17394C23.5205 6.01481 26.1702 6.74049 28.3845 9.0862C28.8709 9.60203 29.3377 9.93152 30.0692 10.0786C32.8896 10.6494 35.0176 13.2932 35.3647 16.3999C35.6727 19.1732 34.9529 21.5601 32.7013 23.592L32.7033 23.5939ZM31.8834 21.6091C31.907 19.1908 31.3343 17.0726 29.2063 15.6232C28.7846 15.3369 28.4884 15.3447 27.9981 15.6056C26.9155 16.1822 25.772 16.6843 24.5992 17.0412C23.3577 17.4198 22.0397 17.5335 20.7845 17.8728C18.4211 18.5083 16.0577 20.3676 16.701 23.7038C16.8834 24.6491 16.6147 24.7942 15.689 24.5765C15.2791 24.4804 14.6966 24.3922 14.4161 24.6001C13.61 25.2022 13.7944 26.126 14.0239 26.9419C14.2239 27.6577 14.5162 28.4599 15.4752 28.4011C16.2558 28.352 16.448 28.7306 16.4657 29.3778C16.5029 30.7801 17.1619 31.8608 18.2171 32.7355C18.9958 33.3808 19.7352 34.079 20.5511 34.6752C22.9948 36.4581 25.5818 36.3639 27.9079 34.4399C28.4355 34.0025 28.914 33.5083 29.4397 33.0689C30.7302 31.9902 31.6128 30.735 31.4245 28.9404C31.3617 28.3324 31.7108 28.0441 32.2718 28.2873C32.9877 28.5972 33.3544 28.2304 33.5682 27.6773C33.7761 27.1399 33.9271 26.5555 33.9605 25.9828C34.0369 24.6589 33.7996 24.5216 32.6111 25.061C31.8069 25.4258 31.5422 25.2453 31.6108 24.3333C31.6795 23.4233 31.7913 22.5191 31.8834 21.6111V21.6091Z" fill="black"/>
<path d="M31.8835 21.6091C31.7913 22.5172 31.6795 23.4213 31.6108 24.3314C31.5422 25.2434 31.807 25.4238 32.6111 25.059C33.7996 24.5197 34.037 24.657 33.9605 25.9808C33.9271 26.5535 33.7741 27.138 33.5682 27.6754C33.3544 28.2285 32.9896 28.5953 32.2718 28.2854C31.7109 28.0441 31.3617 28.3324 31.4245 28.9385C31.6128 30.7331 30.7302 31.9883 29.4397 33.067C28.9141 33.5063 28.4355 34.0025 27.9079 34.438C25.5818 36.362 22.9949 36.4561 20.5511 34.6733C19.7352 34.079 18.9958 33.3789 18.2171 32.7336C17.16 31.8588 16.503 30.7782 16.4657 29.3758C16.448 28.7286 16.2558 28.3501 15.4752 28.3991C14.5162 28.458 14.2259 27.6558 14.0239 26.9399C13.7944 26.124 13.6101 25.1983 14.4161 24.5981C14.6966 24.3902 15.2772 24.4785 15.689 24.5746C16.6148 24.7923 16.8835 24.6472 16.7011 23.7018C16.0578 20.3656 18.4211 18.5063 20.7845 17.8709C22.0397 17.5335 23.3597 17.4178 24.5992 17.0393C25.7721 16.6823 26.9135 16.1783 27.9981 15.6036C28.4884 15.3428 28.7846 15.3349 29.2063 15.6213C31.3343 17.0707 31.907 19.1889 31.8835 21.6071V21.6091Z" fill="white"/>
</g>
</svg>
