<svg xmlns="http://www.w3.org/2000/svg" fill="none" viewBox="0 0 48 48"><circle cx="23.523" cy="24.096" r="23" fill="#fff" stroke="#fff"/><mask id="a" style="mask-type:alpha" width="46" height="46" x="1" y="1" maskUnits="userSpaceOnUse"><circle cx="23.523" cy="24.096" r="22.5" fill="#fff"/></mask><g fill="#000" mask="url(#a)"><path d="M6.403 30.385V17.758h2.303v12.627H6.403zM16.98 22.116a5.525 5.525 0 00-.108-.997 2.406 2.406 0 00-.309-.822 1.55 1.55 0 00-.58-.55c-.242-.137-.544-.205-.906-.205-.347 0-.641.074-.883.223a1.95 1.95 0 00-.604.587 3.18 3.18 0 00-.375.828c-.089.31-.155.626-.2.948a9.736 9.736 0 00-.084.95c-.008.31-.012.584-.012.821 0 .282.002.593.006.931.008.335.032.673.072 1.016.04.342.103.674.188.997.088.322.211.608.368.858.162.25.365.451.61.604.25.15.555.224.914.224.402 0 .729-.093.979-.278.254-.185.451-.433.592-.743.141-.31.234-.665.278-1.064.048-.403.067-.822.055-1.257h2.278a9.31 9.31 0 01-.054 1.39 6.337 6.337 0 01-.278 1.275 4.935 4.935 0 01-.52 1.1 3.478 3.478 0 01-.78.864c-.306.242-.66.432-1.064.569-.402.133-.858.2-1.365.2a5.9 5.9 0 01-1.463-.164 4.093 4.093 0 01-1.112-.453 3.3 3.3 0 01-.804-.701 4.12 4.12 0 01-.556-.889 5.588 5.588 0 01-.345-1.027c-.08-.367-.143-.74-.187-1.119-.04-.382-.067-.77-.079-1.16-.008-.391-.012-.774-.012-1.148 0-.355.01-.718.03-1.088.02-.375.057-.746.11-1.112.056-.371.132-.732.229-1.082.1-.351.23-.681.387-.992.157-.314.348-.6.574-.858.226-.262.491-.488.798-.677.31-.19.665-.336 1.063-.441a5.247 5.247 0 011.367-.163c.676 0 1.27.12 1.782.362a3.56 3.56 0 011.288.986c.342.415.596.902.761 1.462.17.56.246 1.159.23 1.795H16.98zM20.631 23.827c0-.484.018-.975.055-1.475.04-.5.116-.983.23-1.45a6.2 6.2 0 01.489-1.318c.213-.415.495-.776.846-1.082.35-.306.78-.548 1.287-.725.508-.178 1.114-.266 1.82-.266.689 0 1.28.088 1.776.266.496.177.915.419 1.258.725.346.306.622.667.828 1.082.21.41.37.85.483 1.317.117.468.194.951.23 1.451.036.5.054.991.054 1.475-.004.58-.026 1.152-.066 1.716-.04.564-.119 1.1-.236 1.608a6.18 6.18 0 01-.49 1.408c-.209.431-.487.804-.834 1.118-.342.315-.763.56-1.263.738-.5.177-1.096.266-1.789.266-.693 0-1.29-.089-1.789-.266a3.709 3.709 0 01-1.27-.738 3.777 3.777 0 01-.833-1.118c-.21-.43-.373-.9-.49-1.408a11.022 11.022 0 01-.23-1.608 26.664 26.664 0 01-.066-1.716zm7.078.024a12.48 12.48 0 00-.097-1.698 4.475 4.475 0 00-.375-1.378 2.238 2.238 0 00-.75-.92c-.313-.225-.714-.338-1.202-.338-.471 0-.862.113-1.172.339a2.3 2.3 0 00-.732.918 4.83 4.83 0 00-.38 1.379c-.07.523-.1 1.09-.091 1.698 0 .794.03 1.49.09 2.091.06.6.176 1.104.345 1.511.173.403.417.707.731.913.314.205.726.308 1.233.308.508 0 .919-.103 1.233-.308.314-.206.556-.51.725-.913.174-.407.29-.91.351-1.51.06-.601.09-1.298.09-2.092zM34.877 17.759l3.487 9.356v-9.356h2.28v12.626h-3.071l-3.464-9.212v9.212h-2.278V17.758h3.046z"/></g></svg>