<svg xmlns="http://www.w3.org/2000/svg" fill="none" viewBox="0 0 48 48"><circle cx="23.585" cy="23.616" r="23" fill="#fff" stroke="#fff"/><mask id="a" style="mask-type:alpha" width="46" height="46" x="1" y="1" maskUnits="userSpaceOnUse"><circle cx="23.585" cy="23.616" r="22.5" fill="#fff"/></mask><g mask="url(#a)"><path fill="#fff" d="M6.492 47.48c0-2.832-.09-5.621.03-8.4.09-2.105 1.328-3.695 2.882-5.023 2.306-1.971 5.037-3.075 7.958-3.715 4.845-1.062 9.65-.885 14.37.697 2.317.777 4.446 1.904 6.183 3.668 1.48 1.503 2.299 3.267 2.243 5.43-.058 2.245-.012 4.492-.012 6.739v.604H6.492z"/><path fill="#000" d="M40.143 48.148H6.491a.669.669 0 01-.668-.668c0-.851-.008-1.713-.016-2.546-.02-1.93-.038-3.925.046-5.883.086-2.011 1.077-3.76 3.116-5.503 2.171-1.855 4.87-3.118 8.249-3.86 5.049-1.106 10.003-.866 14.724.717 2.686.9 4.795 2.154 6.448 3.833 1.696 1.724 2.493 3.66 2.435 5.917-.04 1.551-.03 3.135-.02 4.667.004.673.008 1.369.008 2.054v.605c0 .369-.3.668-.669.668zM7.158 46.811h32.317c0-.66-.005-1.331-.008-1.981-.01-1.542-.02-3.137.02-4.71.05-1.875-.622-3.493-2.05-4.944-1.502-1.526-3.438-2.671-5.919-3.503-4.489-1.505-9.203-1.733-14.013-.677-3.16.692-5.667 1.86-7.667 3.57-1.737 1.484-2.58 2.929-2.648 4.543-.083 1.923-.063 3.9-.046 5.813.007.619.013 1.254.016 1.89h-.002z"/><path fill="#fff" d="M23.326 27.27c-4.369.009-7.95-3.567-7.946-7.935.004-4.348 3.56-7.906 7.912-7.917 4.37-.01 7.952 3.567 7.946 7.935-.006 4.349-3.563 7.908-7.912 7.917z"/><path fill="#000" d="M23.31 27.938a8.537 8.537 0 01-6.07-2.522 8.534 8.534 0 01-2.529-6.082c.005-4.722 3.853-8.572 8.579-8.585h.022c2.286 0 4.44.895 6.068 2.522a8.525 8.525 0 012.527 6.082c-.007 4.724-3.855 8.575-8.58 8.584h-.017v.001zm.002-15.852h-.018c-3.991.01-7.242 3.262-7.245 7.249a7.203 7.203 0 002.136 5.134A7.21 7.21 0 0023.31 26.6h.015c3.989-.008 7.239-3.26 7.245-7.25a7.199 7.199 0 00-2.135-5.134 7.206 7.206 0 00-5.123-2.13zM26.336 47.48l-2.194-11.688L25.62 33.6a.373.373 0 00-.034-.46l-1.897-2.084a.374.374 0 00-.54-.012l-2.096 2.095a.373.373 0 00-.045.473l1.389 2.06a.377.377 0 01.06.263L20.282 47.48h6.053z"/></g></svg>