<svg xmlns="http://www.w3.org/2000/svg" fill="none" viewBox="0 0 17 17"><rect width="16" height="16" x=".75" y=".543" fill="#AAA" rx="8"/><path fill="#000" d="M9.32 10.922v1.121H8.214v-1.12h1.108zm-2.662-3.54a2.508 2.508 0 01.133-.927c.1-.285.245-.532.434-.742.192-.21.422-.373.69-.492.272-.118.572-.178.9-.178.3 0 .575.044.823.13.251.087.465.213.643.38.178.166.316.369.414.608.1.24.15.51.15.814 0 .2-.027.38-.082.54a1.93 1.93 0 01-.205.437 2.292 2.292 0 01-.274.359c-.1.107-.198.207-.293.3-.098.097-.194.192-.288.288a2.114 2.114 0 00-.246.304 1.391 1.391 0 00-.236.796v.394h-.868v-.479c.007-.191.038-.365.093-.52a2.03 2.03 0 01.205-.423c.082-.128.173-.244.273-.349.1-.107.2-.208.297-.304.078-.08.16-.171.247-.274a2.42 2.42 0 00.242-.335c.073-.12.132-.249.178-.386.048-.136.068-.28.062-.43a1.462 1.462 0 00-.106-.455 1.036 1.036 0 00-.23-.342.951.951 0 00-.345-.219 1.243 1.243 0 00-.454-.078c-.228 0-.424.042-.588.126-.162.085-.295.2-.4.346a1.516 1.516 0 00-.23.502 2.5 2.5 0 00-.07.608h-.869z"/></svg>