<svg xmlns="http://www.w3.org/2000/svg" fill="none" viewBox="0 0 16 15"><rect width="15" height="15" x=".5" fill="#D0D0D0" rx="7.5"/><path fill="#000" d="M8.57 9.879V11H7.464V9.879h1.108zM5.909 6.338a2.508 2.508 0 01.133-.926c.1-.285.245-.532.434-.742.192-.21.422-.374.69-.492.272-.119.572-.178.9-.178.3 0 .575.043.823.13.251.086.465.213.643.38.178.166.316.368.414.608.1.239.15.51.15.813 0 .2-.027.38-.082.54a1.93 1.93 0 01-.205.438 2.291 2.291 0 01-.274.359c-.1.107-.198.207-.293.3a17.08 17.08 0 00-.288.287 2.113 2.113 0 00-.246.305 1.39 1.39 0 00-.236.796v.393h-.868v-.478c.007-.192.038-.365.093-.52a2.03 2.03 0 01.205-.424c.082-.127.173-.244.273-.348.1-.107.2-.209.297-.305.078-.08.16-.17.247-.273a2.42 2.42 0 00.242-.335c.073-.12.132-.25.178-.386.048-.137.068-.28.062-.43a1.462 1.462 0 00-.106-.455 1.036 1.036 0 00-.23-.342.951.951 0 00-.345-.219 1.244 1.244 0 00-.454-.079c-.228 0-.424.043-.588.127-.162.084-.295.2-.4.345a1.516 1.516 0 00-.23.502 2.5 2.5 0 00-.07.609h-.869z"/></svg>