<svg xmlns="http://www.w3.org/2000/svg" fill="none" viewBox="0 0 19 19"><path fill="#F7F7F7" d="M.105 6.744c.019-.164.035-.328.055-.492a6.856 6.856 0 011.698-3.756A6.975 6.975 0 015.405.322 7.012 7.012 0 017.848.128a7.07 7.07 0 015.864 4.267 6.865 6.865 0 01.527 3.314 6.893 6.893 0 01-1.48 3.729c-.014.017-.026.035-.04.056.02.023.039.044.06.064.342.34.685.68 1.026 1.021.04.04.076.05.135.04.54-.102 1.026.015 1.42.402 1.067 1.049 2.133 2.099 3.184 3.163.444.45.557 1.007.34 1.6-.214.588-.655.925-1.28 1.02-.022.003-.043.01-.065.016h-.27c-.01-.005-.022-.013-.034-.014a1.604 1.604 0 01-.99-.5c-.193-.195-.39-.387-.586-.58l-2.486-2.465c-.408-.405-.546-.892-.441-1.452a.16.16 0 00-.038-.123c-.344-.347-.693-.69-1.04-1.034-.018-.018-.038-.032-.058-.049l-.073.056c-1.725 1.292-3.654 1.746-5.772 1.328-1.622-.32-2.961-1.137-4.018-2.396A6.826 6.826 0 01.16 7.981C.14 7.817.124 7.653.105 7.49v-.745zm1.576.372c0 3.006 2.461 5.457 5.486 5.46 3.05.003 5.516-2.432 5.521-5.453.006-3.012-2.459-5.46-5.5-5.464-3.037-.004-5.506 2.443-5.507 5.457z"/></svg>