<svg xmlns="http://www.w3.org/2000/svg" fill="none" viewBox="0 0 20 20"><path fill="#000" d="M.614 7.286c.019-.164.034-.328.055-.492a6.856 6.856 0 011.698-3.756A6.975 6.975 0 015.914.864 7.012 7.012 0 018.357.67a7.07 7.07 0 015.864 4.267 6.866 6.866 0 01.527 3.314 6.895 6.895 0 01-1.48 3.729c-.014.017-.026.035-.04.056.02.023.039.044.06.064.341.34.685.68 1.026 1.021.04.04.076.05.135.04.54-.102 1.026.015 1.42.402 1.067 1.049 2.133 2.099 3.184 3.163.444.45.557 1.007.34 1.6-.214.588-.655.925-1.281 1.02-.022.003-.043.01-.064.016h-.27c-.011-.005-.022-.013-.034-.014a1.604 1.604 0 01-.991-.5c-.193-.195-.39-.387-.585-.58l-2.486-2.465c-.408-.405-.546-.892-.442-1.452a.16.16 0 00-.037-.123c-.344-.347-.693-.69-1.04-1.034-.018-.018-.038-.032-.058-.049l-.073.056c-1.726 1.292-3.654 1.746-5.773 1.328-1.621-.32-2.96-1.137-4.017-2.396a6.826 6.826 0 01-1.573-3.61C.65 8.36.633 8.195.614 8.031v-.745zm1.576.372c0 3.006 2.46 5.457 5.486 5.46 3.05.003 5.516-2.432 5.521-5.453.006-3.012-2.459-5.46-5.5-5.464C4.66 2.197 2.191 4.644 2.19 7.658z"/></svg>