<svg xmlns="http://www.w3.org/2000/svg" fill="none" viewBox="0 0 47 47"><circle cx="23.5" cy="23.5" r="23" fill="#fff" stroke="#000"/><path fill="#fff" d="M8.603 19.82l5.787-5.767h18.325l5.684 5.768-15.02 17.125L8.604 19.82z"/><path fill="#000" d="M23.38 37.624h-.003a.677.677 0 01-.51-.235L8.088 20.264a.678.678 0 01.035-.923l5.787-5.768a.679.679 0 01.478-.197h18.326c.182 0 .356.073.483.202l5.684 5.768c.25.253.26.655.027.922L23.889 37.393a.678.678 0 01-.51.23h.001zM9.527 19.855l13.857 16.058 14.088-16.066-5.041-5.116H14.67l-5.143 5.124z"/><path fill="#000" d="M28.904 22.553H17.857a.662.662 0 01-.159-.019l-8.98-2.155a.677.677 0 11.317-1.318l8.902 2.136h10.896l9.151-1.93a.678.678 0 01.28 1.327l-9.22 1.945a.667.667 0 01-.14.014z"/><path fill="#000" d="M23.38 37.623a.68.68 0 01-.633-.435l-5.764-15.07a.687.687 0 01-.029-.39l1.68-7.6a.679.679 0 011.324.291l-1.635 7.403 5.69 14.88a.678.678 0 01-.633.92v.001z"/><path fill="#000" d="M23.38 37.623a.678.678 0 01-.636-.914l5.52-14.882-1.636-7.407a.678.678 0 111.324-.292l1.68 7.602a.681.681 0 01-.027.382l-5.589 15.07a.679.679 0 01-.635.442z"/></svg>