<svg xmlns="http://www.w3.org/2000/svg" fill="none" viewBox="0 0 48 48"><circle cx="24.461" cy="24.164" r="23" fill="#fff" stroke="#000"/><mask id="a" style="mask-type:alpha" width="46" height="46" x="1" y="1" maskUnits="userSpaceOnUse"><circle cx="24.461" cy="24.164" r="22.5" fill="#fff"/></mask><g mask="url(#a)"><path fill="#fff" d="M40.953 11.448h-14.2v40.304h14.2V11.448z"/><path fill="#000" d="M40.952 52.581h-14.2a.83.83 0 01-.83-.83V11.449a.83.83 0 01.83-.83h14.2a.83.83 0 01.83.83V51.75a.83.83 0 01-.83.83zm-13.37-1.66h12.54V12.279h-12.54v38.644z"/><path fill="#000" d="M30.736 17.66a.83.83 0 01-.83-.83v-1.313a.83.83 0 011.66 0v1.313a.83.83 0 01-.83.83zM33.852 17.66a.83.83 0 01-.83-.83v-1.313a.83.83 0 011.66 0v1.313a.83.83 0 01-.83.83zM36.97 17.66a.83.83 0 01-.83-.83v-1.313a.83.83 0 011.66 0v1.313a.83.83 0 01-.83.83zM30.736 22.621a.83.83 0 01-.83-.83v-1.313a.83.83 0 011.66 0v1.313a.83.83 0 01-.83.83zM33.852 22.621a.83.83 0 01-.83-.83v-1.313a.83.83 0 011.66 0v1.313a.83.83 0 01-.83.83zM36.97 22.621a.83.83 0 01-.83-.83v-1.313a.83.83 0 011.66 0v1.313a.83.83 0 01-.83.83zM30.736 27.582a.83.83 0 01-.83-.83V25.44a.83.83 0 011.66 0v1.313a.83.83 0 01-.83.83zM33.852 27.582a.83.83 0 01-.83-.83V25.44a.83.83 0 011.66 0v1.313a.83.83 0 01-.83.83zM36.97 27.582a.83.83 0 01-.83-.83V25.44a.83.83 0 011.66 0v1.313a.83.83 0 01-.83.83zM30.736 32.543a.83.83 0 01-.83-.83V30.4a.83.83 0 011.66 0v1.313a.83.83 0 01-.83.83zM33.852 32.543a.83.83 0 01-.83-.83V30.4a.83.83 0 011.66 0v1.313a.83.83 0 01-.83.83zM36.97 32.543a.83.83 0 01-.83-.83V30.4a.83.83 0 011.66 0v1.313a.83.83 0 01-.83.83zM30.736 37.504a.83.83 0 01-.83-.83v-1.313a.83.83 0 011.66 0v1.313a.83.83 0 01-.83.83zM33.852 37.504a.83.83 0 01-.83-.83v-1.313a.83.83 0 011.66 0v1.313a.83.83 0 01-.83.83zM36.97 37.504a.83.83 0 01-.83-.83v-1.313a.83.83 0 011.66 0v1.313a.83.83 0 01-.83.83zM30.736 42.464a.83.83 0 01-.83-.83v-1.313a.83.83 0 011.66 0v1.313a.83.83 0 01-.83.83zM33.852 42.464a.83.83 0 01-.83-.83v-1.313a.83.83 0 011.66 0v1.313a.83.83 0 01-.83.83zM36.97 42.464a.83.83 0 01-.83-.83v-1.313a.83.83 0 011.66 0v1.313a.83.83 0 01-.83.83zM30.736 47.425a.83.83 0 01-.83-.83v-1.313a.83.83 0 011.66 0v1.313a.83.83 0 01-.83.83zM33.852 47.425a.83.83 0 01-.83-.83v-1.313a.83.83 0 011.66 0v1.313a.83.83 0 01-.83.83zM36.97 47.425a.83.83 0 01-.83-.83v-1.313a.83.83 0 011.66 0v1.313a.83.83 0 01-.83.83z"/><path fill="#fff" d="M26.733 15.517h-14.2V51.75h14.2V15.517z"/><path fill="#000" d="M26.734 52.581h-14.2a.83.83 0 01-.83-.83V15.518a.83.83 0 01.83-.83h14.2a.83.83 0 01.83.83v36.235a.83.83 0 01-.83.83zm-13.37-1.659h12.54V16.347h-12.54v34.575z"/><path fill="#fff" d="M23.704 11.448h-8.14v4.07h8.14v-4.07z"/><path fill="#000" d="M23.703 16.347h-8.139a.83.83 0 01-.83-.83v-4.07a.83.83 0 01.83-.829h8.14a.83.83 0 01.83.83v4.069a.83.83 0 01-.83.83zm-7.31-1.66h6.48v-2.41h-6.48v2.41zM23.151 20.217h-7.035a.83.83 0 010-1.66h7.035a.83.83 0 010 1.66zM23.151 24.744h-7.035a.83.83 0 010-1.659h7.035a.83.83 0 010 1.66zM23.151 29.275h-7.035a.83.83 0 010-1.66h7.035a.83.83 0 010 1.66z"/><path fill="#fff" d="M19.729 22.42h-14.2v29.332h14.2V22.42z"/><path fill="#000" d="M19.729 52.58h-14.2a.83.83 0 01-.83-.83V22.42a.83.83 0 01.83-.83h14.2a.83.83 0 01.83.83V51.75a.83.83 0 01-.83.83zm-13.37-1.659h12.54V23.248H6.359v27.673z"/><path fill="#fff" d="M33.852 31.447h-14.2v20.304h14.2V31.447z"/><path fill="#000" d="M33.853 52.581h-14.2a.83.83 0 01-.83-.83V31.448a.83.83 0 01.83-.83h14.2a.83.83 0 01.83.83V51.75a.83.83 0 01-.83.83zm-13.37-1.66h12.54V32.279h-12.54v18.644zM19.653 12.277a.83.83 0 01-.83-.83v-3.01a.83.83 0 011.66 0v3.01a.83.83 0 01-.83.83z"/><path fill="#000" d="M23.55 50.114a.83.83 0 01-.83-.83V34.738a.83.83 0 011.66 0v14.546a.83.83 0 01-.83.83zM26.753 50.114a.83.83 0 01-.83-.83V34.738a.83.83 0 011.66 0v14.546a.83.83 0 01-.83.83zM29.958 50.114a.83.83 0 01-.83-.83V34.738a.83.83 0 011.66 0v14.546a.83.83 0 01-.83.83zM9.511 29.854a.83.83 0 01-.83-.83V27.71a.83.83 0 011.66 0v1.313a.83.83 0 01-.83.83zM12.63 29.854a.83.83 0 01-.83-.83V27.71a.83.83 0 011.66 0v1.313a.83.83 0 01-.83.83zM15.746 29.854a.83.83 0 01-.83-.83V27.71a.83.83 0 011.66 0v1.313a.83.83 0 01-.83.83zM9.511 34.722a.83.83 0 01-.83-.83v-1.313a.83.83 0 011.66 0v1.313a.83.83 0 01-.83.83zM12.63 34.722a.83.83 0 01-.83-.83v-1.313a.83.83 0 011.66 0v1.313a.83.83 0 01-.83.83zM15.746 34.722a.83.83 0 01-.83-.83v-1.313a.83.83 0 011.66 0v1.313a.83.83 0 01-.83.83zM9.511 39.59a.83.83 0 01-.83-.83v-1.313a.83.83 0 011.66 0v1.313a.83.83 0 01-.83.83zM12.63 39.59a.83.83 0 01-.83-.83v-1.313a.83.83 0 011.66 0v1.313a.83.83 0 01-.83.83zM15.746 39.59a.83.83 0 01-.83-.83v-1.313a.83.83 0 011.66 0v1.313a.83.83 0 01-.83.83zM9.511 44.459a.83.83 0 01-.83-.83v-1.313a.83.83 0 011.66 0v1.313a.83.83 0 01-.83.83zM12.63 44.459a.83.83 0 01-.83-.83v-1.313a.83.83 0 011.66 0v1.313a.83.83 0 01-.83.83zM15.746 44.459a.83.83 0 01-.83-.83v-1.313a.83.83 0 011.66 0v1.313a.83.83 0 01-.83.83z"/></g></svg>