<svg xmlns="http://www.w3.org/2000/svg" fill="none" viewBox="0 0 48 48"><circle cx="24.264" cy="23.616" r="23" fill="#fff" stroke="#000"/><path fill="#fff" d="M36.25 25.988c-.04-2.613-5.454-4.65-12.095-4.55-6.64.1-11.991 2.3-11.952 4.912l.074 4.9c.04 2.613 5.454 4.65 12.095 4.55 6.64-.1 11.991-2.3 11.952-4.912l-.074-4.9z"/><path fill="#000" d="M23.902 36.447c-3.112 0-6.036-.46-8.28-1.303-2.549-.959-3.965-2.339-3.988-3.885l-.074-4.893v-.006c-.023-1.547 1.35-2.969 3.87-4.004 2.33-.957 5.425-1.512 8.716-1.561 3.29-.05 6.4.411 8.758 1.299 2.55.959 3.966 2.338 3.989 3.885l.074 4.9c.023 1.545-1.351 2.967-3.87 4.002-2.33.958-5.425 1.513-8.715 1.562-.16.003-.32.004-.479.004zM12.847 26.34l.074 4.9c.028 1.888 4.518 3.92 10.974 3.92.156 0 .31-.002.468-.004 3.133-.047 6.061-.568 8.245-1.466 1.968-.809 3.088-1.827 3.073-2.794l-.073-4.9c-.015-.967-1.165-1.95-3.156-2.699-2.21-.832-5.153-1.263-8.286-1.217-3.132.047-6.061.568-8.245 1.466-1.964.807-3.083 1.823-3.073 2.788v.006z"/><path fill="#000" d="M23.829 31.547c-3.113 0-6.037-.459-8.28-1.303-2.548-.958-3.965-2.338-3.988-3.884-.023-1.547 1.35-2.969 3.87-4.004 2.33-.957 5.424-1.512 8.715-1.561 3.29-.05 6.401.411 8.758 1.299 2.55.959 3.965 2.338 3.99 3.885.022 1.546-1.352 2.968-3.87 4.003-2.33.958-5.425 1.512-8.716 1.562l-.48.003zm.803-9.47c-.155 0-.31.001-.467.004-6.706.101-11.348 2.326-11.319 4.26.015.967 1.165 1.95 3.155 2.7 2.211.831 5.154 1.263 8.286 1.216 3.133-.047 6.062-.567 8.246-1.465 1.967-.809 3.087-1.827 3.073-2.794-.028-1.889-4.518-3.92-10.975-3.92h.001z"/><path fill="#000" d="M15.118 34.753a.643.643 0 01-.643-.634l-.057-3.809a.643.643 0 111.286-.018l.057 3.808a.643.643 0 01-.633.653h-.01zM18.82 35.428a.643.643 0 01-.643-.634l-.058-3.809a.643.643 0 111.287-.019l.057 3.809a.643.643 0 01-.634.653h-.01zM22.518 35.898a.643.643 0 01-.644-.634l-.057-3.808a.643.643 0 111.286-.019l.058 3.809a.643.643 0 01-.634.652h-.01zM26.206 35.67a.643.643 0 01-.643-.634l-.058-3.809a.643.643 0 111.287-.018l.057 3.808a.643.643 0 01-.634.653h-.01.001zM29.889 35.093a.643.643 0 01-.643-.634l-.058-3.809a.643.643 0 111.286-.019l.058 3.809a.643.643 0 01-.634.653h-.01zM33.57 34.475a.643.643 0 01-.643-.634l-.057-3.809a.643.643 0 111.286-.018l.058 3.808a.643.643 0 01-.634.653h-.01z"/><path fill="#fff" d="M35.757 16.032C35.348 13.45 29.7 12.2 23.14 13.239c-6.56 1.04-11.545 3.974-11.136 6.555l.766 4.84c.41 2.58 6.058 3.83 12.617 2.792 6.56-1.04 11.546-3.974 11.137-6.555l-.767-4.84z"/><path fill="#000" d="M25.014 28.132c-3.08.44-6.04.4-8.38-.117-2.66-.588-4.257-1.754-4.5-3.281L11.37 19.9v-.007c-.243-1.527.916-3.13 3.263-4.51 2.172-1.278 5.157-2.265 8.408-2.78 3.25-.515 6.394-.499 8.854.046 2.659.588 4.257 1.754 4.498 3.281l.767 4.84c.242 1.527-.917 3.129-3.264 4.51-2.17 1.278-5.156 2.266-8.407 2.78-.158.025-.316.049-.473.071zM12.64 19.693l.766 4.84c.296 1.865 5.028 3.24 11.42 2.327.153-.022.306-.045.462-.07 3.094-.49 5.92-1.42 7.955-2.618 1.833-1.079 2.797-2.245 2.646-3.2l-.767-4.84c-.151-.956-1.429-1.767-3.505-2.226-2.306-.51-5.28-.521-8.375-.032-3.095.49-5.92 1.42-7.955 2.618-1.83 1.077-2.794 2.242-2.647 3.195v.006z"/><path fill="#000" d="M24.248 23.293c-3.081.44-6.04.4-8.38-.118-2.66-.588-4.257-1.753-4.499-3.28-.242-1.528.917-3.13 3.264-4.511 2.171-1.278 5.156-2.265 8.407-2.78 3.25-.515 6.395-.499 8.854.046 2.659.588 4.256 1.754 4.498 3.281.242 1.528-.917 3.13-3.263 4.51-2.171 1.279-5.157 2.265-8.407 2.78-.159.026-.316.05-.474.072zm-.545-9.488c-.154.022-.307.045-.462.07-6.625 1.05-10.905 3.908-10.602 5.819.151.955 1.43 1.766 3.506 2.225 2.306.51 5.28.521 8.374.032 3.095-.49 5.92-1.42 7.956-2.618 1.833-1.08 2.797-2.245 2.646-3.201-.296-1.865-5.027-3.241-11.42-2.327h.002z"/><path fill="#000" d="M16.079 27.699a.643.643 0 01-.726-.537l-.596-3.761a.643.643 0 111.27-.201l.596 3.762a.643.643 0 01-.535.736l-.01.001h.001zM19.838 27.843a.643.643 0 01-.726-.536l-.596-3.762a.643.643 0 111.27-.201l.597 3.762a.643.643 0 01-.535.736l-.01.001zM23.566 27.786a.643.643 0 01-.727-.537l-.596-3.762a.643.643 0 111.271-.2l.596 3.762a.643.643 0 01-.535.735l-.01.002zM27.185 27.037a.643.643 0 01-.726-.537l-.596-3.762a.643.643 0 111.27-.2l.596 3.762a.643.643 0 01-.535.735l-.01.002h.001zM30.748 25.944a.643.643 0 01-.726-.536l-.596-3.762a.643.643 0 111.27-.201l.597 3.762a.643.643 0 01-.545.737zM34.306 24.812a.643.643 0 01-.727-.537l-.596-3.762a.643.643 0 111.27-.2l.597 3.762a.643.643 0 01-.535.735l-.01.002z"/></svg>