<svg xmlns="http://www.w3.org/2000/svg" fill="none" viewBox="0 0 47 47"><circle cx="23.5" cy="23.5" r="23" fill="#fff" stroke="#000"/><path fill="#fff" d="M32.905 17.096l5.231-.08-.066-4.416a2.615 2.615 0 10-5.23.079l.066 4.417h-.001z"/><path fill="#000" d="M32.905 17.653a.557.557 0 01-.557-.55l-.067-4.416a3.152 3.152 0 01.896-2.257 3.152 3.152 0 012.229-.963 3.146 3.146 0 012.257.896c.609.59.95 1.382.963 2.23l.067 4.416a.557.557 0 01-.55.566l-5.23.078h-.009.001zm2.55-7.072h-.032c-.55.008-1.064.23-1.446.624a2.045 2.045 0 00-.581 1.465l.058 3.86 4.117-.062-.058-3.86a2.044 2.044 0 00-.624-1.446 2.044 2.044 0 00-1.433-.581h-.001z"/><path fill="#fff" d="M16.005 10.316c-2.596.04-2.9 2.015-2.9 2.015l.276 18.371.002.149-.444.007-3.778.057.035 2.334a3.779 3.779 0 003.835 3.721l16.74-.251.261-.004v-.01c3.249-.049 3.15-3.094 3.15-3.094l-.32-21.317c.343-2.23 2.553-2.27 2.553-2.27l-19.41.293z"/><path fill="#000" d="M12.973 37.528a4.34 4.34 0 01-4.334-4.27l-.035-2.334a.557.557 0 01.549-.566l3.666-.055-.27-17.963c0-.031 0-.062.006-.093.13-.844 1.017-2.45 3.443-2.487l19.41-.292a.557.557 0 01.018 1.114c-.002 0-.467.016-.947.258-.584.295-.94.797-1.059 1.495l.32 21.266c.003.126.013 1.56-.985 2.605-.631.662-1.507 1.016-2.604 1.054a.538.538 0 01-.11.013l-17.002.256h-.066zm-3.247-6.064l.027 1.777a3.224 3.224 0 003.27 3.172l16.896-.254a.56.56 0 01.104-.011c.835-.013 1.48-.25 1.919-.705.7-.727.684-1.807.683-1.818l-.32-21.323c0-.032.001-.063.006-.093.104-.674.359-1.195.689-1.591l-16.986.255c-1.911.03-2.29 1.234-2.35 1.508l.277 18.462a.557.557 0 01-.549.565l-3.666.055z"/><path fill="#fff" d="M25.716 33.001l-.035-2.334-.077.001-9.184.138-3.778.057-3.777.058.035 2.334a3.779 3.779 0 003.835 3.721l16.74-.251.077-.002a3.779 3.779 0 01-3.835-3.721V33z"/><path fill="#000" d="M12.675 37.533a4.303 4.303 0 01-3.017-1.224 4.309 4.309 0 01-1.316-3.046l-.035-2.335a.557.557 0 01.549-.566l16.817-.253c.307-.002.56.24.565.549l.035 2.334a3.2 3.2 0 00.977 2.264c.618.599 1.432.922 2.292.909a.557.557 0 11.016 1.114l-.077.001-16.74.252h-.067.001zm-3.246-6.065l.027 1.778a3.2 3.2 0 00.977 2.263c.617.6 1.432.92 2.292.909l13.916-.21a4.31 4.31 0 01-1.483-3.2l-.027-1.776-15.703.236h.001zM17.28 20.043a.557.557 0 01-.009-1.114l10.811-.163a.558.558 0 01.017 1.114l-10.811.163h-.01.001zM17.323 22.938a.557.557 0 01-.008-1.115l10.811-.162a.557.557 0 01.016 1.114l-10.81.163h-.01.001zM17.366 25.833a.557.557 0 01-.008-1.114l10.811-.163a.557.557 0 01.017 1.114l-10.812.163h-.008zM17.41 28.728a.557.557 0 01-.008-1.114l10.811-.163a.556.556 0 11.016 1.114l-10.81.163h-.01.001z"/><path fill="#fff" d="M22.62 16.93a1.805 1.805 0 100-3.61 1.805 1.805 0 000 3.61z"/><path fill="#000" d="M22.62 17.486c-.618 0-1.2-.236-1.644-.667a2.364 2.364 0 011.61-4.056 2.364 2.364 0 011.73 4.006 2.347 2.347 0 01-1.66.717h-.036zm.001-3.61h-.02a1.25 1.25 0 00-.849 2.143 1.246 1.246 0 001.764-.026 1.25 1.25 0 00-.895-2.117z"/></svg>