<svg xmlns="http://www.w3.org/2000/svg" fill="none" viewBox="0 0 23 26"><path fill="#fff" d="M6.096 10.17c-.04.287-.083.556-.112.827a8.45 8.45 0 00.253 3.164c.028.102.017.165-.05.242-.655.758-1.316 1.51-1.956 2.285-.746.903-.99 1.986-.697 3.189.289 1.182.973 1.954 1.997 2.254 1.007.296 1.915.012 2.656-.84a409.95 409.95 0 004.495-5.247c.809-.963 1.024-2.138.634-3.402-.392-1.268-1.21-1.967-2.357-2.137a.485.485 0 01-.045-.008c-.003 0-.005-.005-.019-.021.03-.04.06-.083.093-.122.644-.752 1.29-1.503 1.932-2.258.056-.064.097-.072.166-.03 1.736 1.05 2.764 2.7 2.993 4.966.205 2.028-.341 3.787-1.577 5.239-1.477 1.736-2.947 3.482-4.452 5.184-1.547 1.75-3.403 2.292-5.455 1.55-2.03-.735-3.286-2.4-3.693-4.833-.363-2.173.156-4.095 1.488-5.684 1.196-1.425 2.415-2.823 3.624-4.232.023-.027.05-.052.082-.086z"/><path fill="#fff" d="M16.907 15.45c.039-.293.082-.57.11-.85a8.478 8.478 0 00-.265-3.136c-.028-.101-.01-.157.05-.228.648-.75 1.3-1.494 1.934-2.257.775-.931 1.025-2.045.7-3.282-.326-1.241-1.072-2.003-2.165-2.243-.94-.206-1.778.096-2.458.882a455.708 455.708 0 00-4.511 5.266c-.799.951-1.017 2.111-.64 3.365.373 1.234 1.155 1.94 2.266 2.145.052.01.105.017.181.03-.036.048-.062.087-.091.122-.652.762-1.306 1.523-1.956 2.286-.048.056-.086.066-.148.028-1.653-.99-2.675-2.544-2.965-4.686-.292-2.146.248-4.013 1.566-5.558 1.484-1.74 2.958-3.493 4.466-5.204 2.953-3.35 8.01-1.847 9.047 2.99.486 2.265.001 4.296-1.393 5.981-1.195 1.445-2.429 2.844-3.646 4.263-.024.028-.05.052-.082.086z"/></svg>