<svg xmlns="http://www.w3.org/2000/svg" fill="none" viewBox="0 0 47 47"><circle cx="23.5" cy="23.5" r="23" fill="#fff" stroke="#000"/><path fill="#fff" d="M34.594 21.465c-1.034-2.49-7.003-2.378-13.33.25-6.328 2.628-10.62 6.777-9.585 9.267l1.939 4.669c1.034 2.49 7.001 2.378 13.33-.25 6.328-2.628 10.619-6.777 9.585-9.267l-1.94-4.669z"/><path fill="#000" d="M18.047 38.191c-2.698 0-4.51-.796-5.116-2.255l-1.936-4.662-.003-.008c-.625-1.506.157-3.424 2.202-5.401 1.876-1.814 4.64-3.531 7.785-4.838 3.144-1.306 6.312-2.052 8.922-2.1 2.844-.054 4.755.746 5.38 2.252l1.94 4.669c.625 1.506-.157 3.424-2.202 5.401-1.876 1.813-4.64 3.531-7.785 4.838-3.145 1.305-6.313 2.052-8.922 2.1-.09.003-.177.003-.265.003v.002zm-5.68-7.494l1.938 4.67c.364.876 1.852 1.375 3.98 1.336 2.426-.046 5.402-.752 8.378-1.988 6.347-2.636 9.935-6.487 9.183-8.295l-1.939-4.67c-.75-1.808-6.01-1.984-12.358.652-6.342 2.634-9.927 6.48-9.186 8.29l.002.005h.001z"/><path fill="#000" d="M16.108 33.522c-2.698 0-4.51-.796-5.116-2.255-.625-1.506.157-3.424 2.202-5.401 1.876-1.814 4.64-3.532 7.785-4.838 3.144-1.306 6.312-2.052 8.922-2.1 2.845-.054 4.755.746 5.38 2.252.626 1.505-.156 3.424-2.201 5.401-1.876 1.813-4.64 3.531-7.785 4.838-3.145 1.305-6.313 2.052-8.922 2.1l-.265.003zm14.055-13.11c-.077 0-.155 0-.235.002-2.426.046-5.402.752-8.378 1.988-6.348 2.636-9.935 6.487-9.184 8.295.355.856 1.72 1.345 3.732 1.345 2.24 0 5.281-.607 8.626-1.996C27.7 28.81 30.3 27.2 32.046 25.513c1.53-1.48 2.226-2.886 1.861-3.762-.35-.844-1.742-1.339-3.745-1.339h.001z"/><path fill="#000" d="M17.432 38.052a.744.744 0 01-.687-.459l-1.507-3.629a.743.743 0 111.373-.57l1.507 3.63a.743.743 0 01-.686 1.028zM21.238 37.288a.744.744 0 01-.687-.459L19.044 33.2a.742.742 0 111.373-.57l1.507 3.63a.743.743 0 01-.686 1.028zM24.963 36.33a.744.744 0 01-.687-.46l-1.507-3.628a.742.742 0 111.373-.57l1.507 3.629a.743.743 0 01-.686 1.029zM28.41 34.704a.744.744 0 01-.686-.459l-1.507-3.629a.743.743 0 111.373-.57l1.507 3.63a.742.742 0 01-.686 1.028zM31.722 32.746a.744.744 0 01-.687-.459l-1.507-3.629a.743.743 0 111.373-.57l1.507 3.63a.742.742 0 01-.686 1.028zM35.016 30.75a.744.744 0 01-.687-.458l-1.507-3.63a.742.742 0 111.373-.57l1.507 3.63a.743.743 0 01-.686 1.029z"/><path fill="#fff" d="M35.247 9.876H24.159v3.878h11.088V9.876z"/><path fill="#000" d="M35.247 14.497H24.159a.744.744 0 01-.743-.743V9.876c0-.41.333-.744.743-.744h11.088c.41 0 .743.333.743.744v3.878c0 .41-.333.743-.743.743zM24.902 13.01h9.601v-2.39h-9.6v2.39z"/><path fill="#fff" d="M24.023 16.873h-4.266v-4.265h-3.878v4.265h-4.266v3.878h4.266v4.266h3.878v-4.265h4.265v-3.878z"/><path fill="#000" d="M19.757 25.76h-3.878a.744.744 0 01-.744-.743v-3.522h-3.522a.744.744 0 01-.743-.744v-3.878c0-.41.333-.743.743-.743h3.522v-3.522c0-.41.333-.744.744-.744h3.878c.41 0 .743.333.743.744v3.522h3.522c.41 0 .744.333.744.743v3.878c0 .41-.333.744-.744.744H20.5v3.522c0 .41-.333.743-.743.743zm-3.135-1.487h2.391v-3.522c0-.41.333-.743.744-.743h3.522v-2.391h-3.522a.744.744 0 01-.744-.744v-3.522h-2.39v3.522c0 .41-.334.744-.744.744h-3.522v2.39h3.522c.41 0 .743.334.743.744v3.522z"/></svg>