<svg xmlns="http://www.w3.org/2000/svg" fill="none" viewBox="0 0 47 47"><circle cx="23.5" cy="23.5" r="23" fill="#fff" stroke="#000"/><path fill="#fff" d="M23.012 20.075l-2.641 2.247 12.797 16.303 3.882-3.3-14.038-15.25z"/><path fill="#000" d="M37.44 35.782l-3.882 3.3a.603.603 0 01-.862-.086L19.899 22.693a.602.602 0 01.082-.83l2.642-2.246a.6.6 0 01.832.051l14.037 15.25a.599.599 0 01-.054.865l.002-.001zm-4.184 1.98l2.928-2.491-13.222-14.364-1.76 1.497 12.054 15.357z"/><path fill="#fff" d="M20.696 8.612L9.429 18.193l6.81 8.008 11.266-9.582-6.81-8.007z"/><path fill="#000" d="M27.895 17.077L16.628 26.66a.601.601 0 01-.847-.069l-6.81-8.007a.601.601 0 01.069-.848l11.266-9.581a.601.601 0 01.848.068l6.81 8.008a.601.601 0 01-.07.847zm-11.588 8.276l10.35-8.802-6.03-7.091-10.35 8.802 6.03 7.091z"/><path fill="#fff" d="M15.41 29.28l1.41-1.199a.776.776 0 00.088-1.094l-8.148-9.58a.776.776 0 00-1.094-.088l-1.41 1.199a.776.776 0 00-.088 1.094l8.147 9.58a.776.776 0 001.094.089z"/><path fill="#000" d="M17.209 28.54l-1.41 1.199a1.38 1.38 0 01-1.942-.157l-8.147-9.58a1.38 1.38 0 01.157-1.942l1.41-1.2a1.38 1.38 0 011.941.157l8.148 9.58a1.38 1.38 0 01-.157 1.942zM6.646 18.975a.175.175 0 00-.02.246l8.147 9.58a.175.175 0 00.247.02l1.41-1.199a.175.175 0 00.02-.246l-8.148-9.58a.175.175 0 00-.246-.02l-1.41 1.199z"/><path fill="#fff" d="M17.516 11.317l-4.907 4.172 6.81 8.007 4.907-4.172-6.81-8.007z"/><path fill="#000" d="M24.715 19.782l-4.907 4.172a.601.601 0 01-.847-.068l-6.81-8.007a.601.601 0 01.069-.848l4.906-4.172a.601.601 0 01.848.068l6.81 8.007a.602.602 0 01-.07.848zm-5.228 2.867l3.99-3.394-6.03-7.09-3.99 3.393 6.03 7.09z"/><path fill="#000" d="M28.016 16.974L16.75 26.556a.601.601 0 01-.848-.069l-6.81-8.007a.602.602 0 01.07-.848l11.266-9.581a.601.601 0 01.847.068l6.81 8.008a.601.601 0 01-.069.847zM16.43 25.25l10.35-8.802-6.03-7.091-10.35 8.802 6.03 7.091z"/><path fill="#fff" d="M29.268 17.494l1.41-1.199a.776.776 0 00.089-1.094l-8.148-9.58a.776.776 0 00-1.094-.088l-1.41 1.199a.776.776 0 00-.088 1.094l8.147 9.58a.776.776 0 001.094.088z"/><path fill="#000" d="M31.068 16.753l-1.41 1.2a1.38 1.38 0 01-1.942-.157l-8.147-9.58a1.38 1.38 0 01.157-1.942l1.41-1.2a1.38 1.38 0 011.941.157l8.148 9.58a1.38 1.38 0 01-.157 1.942zM20.504 7.19a.175.175 0 00-.02.246l8.148 9.58a.175.175 0 00.246.02l1.41-1.199a.175.175 0 00.02-.246l-8.147-9.58a.175.175 0 00-.246-.02l-1.41 1.199z"/></svg>