<svg xmlns="http://www.w3.org/2000/svg" fill="none" viewBox="0 0 47 47"><circle cx="23.5" cy="23.5" r="23" fill="#fff" stroke="#000"/><path fill="#000" fill-rule="evenodd" d="M19.508 17.696l-3.656 4.179-.753-.659 3.656-4.178.753.658zM29.116 25.218l-2.699-6.528.924-.382 2.699 6.528-.924.382zM24.235 33.086l-5.31-1.305.239-.971 5.31 1.305-.239.971z" clip-rule="evenodd"/><path fill="#fff" d="M19.445 28.348a6.836 6.836 0 11-13.673 0 6.836 6.836 0 0113.673 0z"/><path fill="#000" fill-rule="evenodd" d="M20.445 28.348a7.836 7.836 0 11-15.673 0 7.836 7.836 0 0115.673 0zm-7.837 6.836a6.836 6.836 0 100-13.673 6.836 6.836 0 000 13.673z" clip-rule="evenodd"/><mask id="a" style="mask-type:alpha" width="15" height="15" x="5" y="21" maskUnits="userSpaceOnUse"><circle cx="12.608" cy="28.348" r="6.837" fill="#fff"/></mask><g mask="url(#a)"><path fill="#000" d="M7.576 35.396c0-.86-.027-1.708.01-2.553.027-.64.403-1.122.875-1.526.7-.599 1.53-.934 2.418-1.128 1.472-.323 2.932-.27 4.366.211.704.236 1.351.579 1.879 1.115.45.456.698.992.682 1.65-.018.682-.004 1.365-.004 2.047v.184H7.577zM12.691 29.255a2.417 2.417 0 01-2.414-2.411 2.416 2.416 0 012.404-2.405 2.416 2.416 0 012.414 2.41 2.417 2.417 0 01-2.404 2.406z"/><path fill="#fff" d="M13.606 35.395l-.667-3.55.45-.667a.113.113 0 00-.011-.14l-.576-.633a.114.114 0 00-.165-.004l-.636.637a.113.113 0 00-.014.144l.422.626a.114.114 0 01.018.08l-.66 3.507h1.839z"/></g><path fill="#fff" d="M30.877 12.04a6.836 6.836 0 11-13.673 0 6.836 6.836 0 0113.673 0z"/><path fill="#000" fill-rule="evenodd" d="M31.877 12.04a7.836 7.836 0 11-15.673 0 7.836 7.836 0 0115.673 0zm-7.837 6.837a6.836 6.836 0 100-13.673 6.836 6.836 0 000 13.673z" clip-rule="evenodd"/><mask id="b" style="mask-type:alpha" width="14" height="14" x="17" y="5" maskUnits="userSpaceOnUse"><circle cx="24.04" cy="12.041" r="6.837" fill="#fff"/></mask><g fill="#000" mask="url(#b)"><path d="M19.008 19.089c0-.86-.027-1.708.009-2.553.027-.64.403-1.122.876-1.526.7-.599 1.53-.934 2.418-1.129 1.472-.322 2.932-.268 4.366.212.704.236 1.35.579 1.878 1.115.45.456.699.992.682 1.65-.017.682-.004 1.364-.004 2.047v.184H19.008zM24.123 12.948a2.417 2.417 0 01-2.415-2.411 2.416 2.416 0 012.405-2.406 2.416 2.416 0 012.414 2.411 2.417 2.417 0 01-2.404 2.406z"/></g><path fill="#fff" d="M38.713 31.206a6.836 6.836 0 11-13.673 0 6.836 6.836 0 0113.673 0z"/><path fill="#000" fill-rule="evenodd" d="M39.713 31.206a7.836 7.836 0 11-15.673 0 7.836 7.836 0 0115.673 0zm-7.837 6.837a6.836 6.836 0 100-13.673 6.836 6.836 0 000 13.673z" clip-rule="evenodd"/><mask id="c" style="mask-type:alpha" width="14" height="15" x="25" y="24" maskUnits="userSpaceOnUse"><circle cx="31.877" cy="31.206" r="6.837" fill="#fff"/></mask><g fill="#000" mask="url(#c)"><path d="M26.844 38.254c0-.86-.027-1.708.01-2.553.027-.64.403-1.122.875-1.526.7-.599 1.53-.934 2.418-1.128 1.472-.323 2.932-.27 4.366.211.704.236 1.351.579 1.879 1.115.45.456.698.992.682 1.65-.018.682-.004 1.364-.004 2.047v.184H26.845zM31.96 32.113a2.417 2.417 0 01-2.415-2.411 2.416 2.416 0 012.404-2.406 2.416 2.416 0 012.414 2.411 2.417 2.417 0 01-2.404 2.406z"/></g></svg>