<svg xmlns="http://www.w3.org/2000/svg" fill="none" viewBox="0 0 48 48"><circle cx="24.264" cy="23.616" r="23" fill="#fff" stroke="#000"/><path fill="#fff" d="M30.844 14.97c2.408.11 5.22 1.98 6.855 4.653.247.403.455.84.63 1.295l.955-.015s1.276.01 1.295 1.286c.02 1.276-.9 1.463-1.239 1.468l-.343.005c.228 1.78.105 3.47-.156 4.38-.469 1.631-2.202 4.006-3.494 4.896-1.291.89-1.418 2.08-1.418 2.08l.026 1.739s.131-.9.002.145c-.13 1.045-1.259 1.146-1.259 1.146l-1.594.024c-1.943.03-1.905-1.36-1.905-1.36l-.022-1.449-7.556.114s.065 1.071.027 1.796c-.037.726-1.154 1.032-1.154 1.032s-.608.068-2.116.032c-1.508-.035-1.474-1.602-1.474-1.602l-.037-2.434c-3.981-.607-5.503-3.397-5.503-3.397-3.741-.06-3.34-4.299-3.413-5.226-.072-.927.276-.932 1.662-1.3 1.386-.369 1.762-2.375 1.762-2.375.636-2.26 2.017-3.79 3.552-4.822-.364-.313-1.219-1.002-1.844-1.148-.814-.191-.718-1.439 1.458-1.384 1.646.04 2.854.759 3.344 1.107 1.889-.63 3.427-.706 3.427-.706l9.53.02h.002z"/><path fill="#000" d="M19.203 38.848c-.243 0-.522-.003-.838-.01-1.54-.036-2.074-1.332-2.06-2.203l-.028-1.93c-3.151-.644-4.74-2.57-5.25-3.316-1.493-.12-2.578-.893-3.152-2.252-.477-1.128-.497-2.382-.508-3.13a7.604 7.604 0 00-.011-.382c-.105-1.35.688-1.556 1.785-1.842l.32-.084c.993-.264 1.324-1.89 1.327-1.907a.546.546 0 01.012-.052c.53-1.879 1.584-3.45 3.14-4.68-.403-.292-.76-.49-.991-.543-.61-.143-.998-.662-.925-1.234.087-.674.797-1.379 2.535-1.335a6.72 6.72 0 013.421 1.047c1.812-.565 3.242-.642 3.305-.645h.032l9.53.02h.025c2.656.12 5.605 2.105 7.34 4.939.188.307.362.643.518 1.002l.546-.008h.014c.748.006 1.87.51 1.89 1.876.018 1.245-.726 1.902-1.52 2.047.127 1.49.04 3-.242 3.982-.497 1.732-2.275 4.221-3.73 5.223-.937.646-1.127 1.458-1.157 1.627l.016 1.062c.05.11.076.255.055.45l-.048.405c-.15 1.207-1.243 1.62-1.8 1.67a.404.404 0 01-.044.002l-1.595.024c-.856.013-1.518-.21-1.968-.666a1.905 1.905 0 01-.546-1.29l-.013-.844-6.34.095c.013.374.02.85 0 1.239-.058 1.125-1.437 1.536-1.593 1.58a.612.612 0 01-.093.017c-.02.002-.427.045-1.357.045l-.002.001zM8.556 25.228c-.007.024-.021.102-.006.305.01.12.012.269.015.456.032 2.167.396 4.178 2.81 4.216a.6.6 0 01.517.313c.057.101 1.45 2.54 5.067 3.091a.6.6 0 01.509.584l.037 2.434v.023c-.001.223.06.97.888.989 1.204.028 1.82-.01 1.99-.024.305-.099.66-.32.668-.472.035-.683-.026-1.72-.026-1.73a.601.601 0 01.59-.636l7.556-.114a.6.6 0 01.61.591l.02 1.45c0 .014.002.009 0 .02.007.19.123.766 1.297.75l1.565-.024c.132-.018.634-.118.7-.612a.723.723 0 01-.005-.072l-.026-1.739c0-.024 0-.049.003-.073.006-.06.173-1.476 1.675-2.51 1.223-.842 2.836-3.104 3.256-4.566.23-.802.362-2.393.138-4.14a.601.601 0 01.585-.676l.343-.004c.303-.005.66-.158.65-.86-.01-.58-.44-.686-.7-.695l-.942.014a.598.598 0 01-.568-.384 7.385 7.385 0 00-.582-1.198c-1.508-2.465-4.121-4.258-6.358-4.365l-9.499-.02c-.15.009-1.564.111-3.255.675a.602.602 0 01-.536-.08 5.596 5.596 0 00-3.013-.996c-.71-.018-1.073.12-1.227.222.677.189 1.467.783 2.02 1.257a.598.598 0 01-.056.952c-1.67 1.122-2.78 2.624-3.304 4.464-.06.29-.545 2.377-2.191 2.814l-.326.085c-.37.097-.788.206-.887.284h-.002z"/><path fill="#fff" d="M25.421 18.377a4.697 4.697 0 100-9.394 4.697 4.697 0 000 9.394z"/><path fill="#000" d="M25.42 18.976a5.302 5.302 0 01-5.294-5.216A5.259 5.259 0 0121.62 9.99a5.263 5.263 0 013.721-1.607 5.255 5.255 0 013.768 1.495 5.263 5.263 0 011.608 3.72 5.258 5.258 0 01-1.495 3.769 5.263 5.263 0 01-3.72 1.607h-.081l-.001.001zm.003-9.394h-.063a4.07 4.07 0 00-2.879 1.244 4.075 4.075 0 00-1.156 2.915 4.102 4.102 0 004.096 4.036h.062a4.069 4.069 0 002.878-1.244 4.076 4.076 0 001.157-2.915 4.066 4.066 0 00-1.244-2.878 4.07 4.07 0 00-2.851-1.157z"/><path fill="#fff" d="M31.117 17.216l-11.286.17.027 1.816 11.286-.17-.027-1.816z"/><path fill="#000" d="M19.832 17.984a.6.6 0 01-.008-1.199l11.286-.17a.6.6 0 01.018 1.199l-11.287.17h-.01.002z"/></svg>