<svg xmlns="http://www.w3.org/2000/svg" fill="none" viewBox="0 0 47 47"><circle cx="23.5" cy="23.5" r="23" fill="#fff" stroke="#000"/><path fill="#fff" d="M13.219 31.587c0 .54.002 1.051 0 1.563-.007.895-.535 1.42-1.43 1.425-.553.003-1.106.008-1.66-.001-.77-.013-1.31-.552-1.324-1.326-.01-.565-.002-1.13-.002-1.716-.777-.148-.975-.688-.974-1.372.002-2.174-.031-4.348.009-6.521.034-1.876 1.114-3.084 2.702-3.912.123-.064.249-.12.48-.233-.665-.044-1.211-.078-1.756-.12-.743-.056-.957-.32-.95-1.149.007-.656.276-.918.98-.96.407-.025.814-.062 1.221-.084a2.888 2.888 0 011.698.414c.45-.847.904-1.69 1.35-2.54.55-1.048 1.358-1.816 2.486-2.184.48-.157 1.003-.221 1.511-.253 4.185-.254 8.37-.295 12.551.068 1.438.124 2.466.932 3.183 2.139.464.78.864 1.597 1.293 2.398.068.125.142.246.233.405.477-.463 1.033-.52 1.63-.452.47.053.946.062 1.418.101.531.044.804.342.819.873.026.956-.188 1.184-1.149 1.24-.479.027-.958.066-1.542.107.29.146.488.237.678.344 1.615.915 2.537 2.234 2.507 4.158-.029 1.936-.006 3.874-.006 5.81 0 .171 0 .343-.008.514-.037.712-.244.98-.967 1.218 0 .52.002 1.056 0 1.593-.005.925-.52 1.44-1.448 1.443-.54.002-1.08.005-1.62-.001-.79-.01-1.332-.55-1.346-1.347-.01-.538-.002-1.076-.002-1.64H13.218v-.002z"/><path fill="#000" d="M13.219 31.587c0 .54.002 1.051 0 1.563-.007.895-.535 1.42-1.43 1.425-.553.003-1.106.008-1.66-.001-.77-.013-1.31-.552-1.324-1.326-.01-.565-.002-1.13-.002-1.716-.777-.148-.975-.688-.974-1.372.002-2.174-.031-4.348.009-6.521.034-1.876 1.114-3.084 2.702-3.912.123-.064.249-.12.48-.233-.665-.044-1.211-.078-1.756-.12-.743-.056-.957-.32-.95-1.149.007-.656.276-.918.98-.96.407-.025.814-.062 1.221-.084a2.888 2.888 0 011.698.414c.45-.847.904-1.69 1.35-2.54.55-1.048 1.358-1.816 2.486-2.184.48-.157 1.003-.221 1.511-.253 4.185-.254 8.37-.295 12.551.068 1.438.124 2.466.932 3.183 2.139.464.78.864 1.597 1.293 2.398.068.125.142.246.233.405.477-.463 1.033-.52 1.63-.452.47.053.946.062 1.418.101.531.044.804.342.819.873.026.956-.188 1.184-1.149 1.24-.479.027-.958.066-1.542.107.29.146.488.237.678.344 1.615.915 2.537 2.234 2.507 4.158-.029 1.936-.006 3.874-.006 5.81 0 .171 0 .343-.008.514-.037.712-.244.98-.967 1.218 0 .52.002 1.056 0 1.593-.005.925-.52 1.44-1.448 1.443-.54.002-1.08.005-1.62-.001-.79-.01-1.332-.55-1.346-1.347-.01-.538-.002-1.076-.002-1.64H13.218v-.002zm-.36-12.472c7.121-.418 14.173-.422 21.29.004-.738-1.355-1.41-2.68-2.17-3.953-.52-.868-1.338-1.353-2.385-1.399-.762-.033-1.523-.118-2.285-.146-3.343-.123-6.685-.149-10.022.145-.984.087-1.775.561-2.267 1.396-.754 1.277-1.428 2.601-2.16 3.952v.001zm-.346 6.742c.71.02 1.42.009 2.131.009.486-.001.82-.247.82-.666.003-.885-.397-1.646-1.347-1.829-1.266-.244-2.535-.47-3.805-.697-.602-.108-.998.217-1.019.833-.011.368-.01.738-.002 1.106.009.46.24.878.692 1.028.267.089.575.082.854.108.367.034.735.061 1.103.082.191.011.382.018.573.024v.002zm21.945.008c.661-.002 1.325-.016 1.98-.112.284-.043.595-.058.832-.232.207-.15.347-.382.407-.629.02-.08.031-.162.033-.244.01-.369.008-.738 0-1.106-.017-.662-.41-.977-1.066-.857-1.19.217-2.38.441-3.571.656-.93.167-1.374.616-1.517 1.553-.097.64.2.976.849.973.631-.004 1.263 0 1.894 0h.158v-.002z"/></svg>