<svg xmlns="http://www.w3.org/2000/svg" fill="none" viewBox="0 0 21 21"><path fill="#000" stroke="#000" stroke-width=".3" d="M10.497 20.827c-5.515 0-9.98-4.461-9.997-9.966C.483 5.293 5 .815 10.525.827c5.502.013 9.995 4.484 9.975 10.04a9.997 9.997 0 01-10.003 9.96zm-9.171-9.64c0 .04-.003.071 0 .101.04.37.063.742.124 1.108a8.96 8.96 0 001.425 3.557c.028.042.05.056.103.035.871-.366 1.777-.615 2.702-.8l.373-.075c-.102-.66-.221-1.308-.296-1.96-.075-.652-.105-1.309-.156-1.966H1.326zm14.05 0a19.56 19.56 0 01-.451 3.905c.543.13 1.079.239 1.604.387.526.149 1.042.336 1.572.51a9.097 9.097 0 001.579-4.802h-4.304v0zm-.002-.827h4.308c-.026-.253-.045-.498-.077-.74a9.078 9.078 0 00-1.483-3.924c-.035-.053-.064-.062-.124-.037-.831.349-1.696.588-2.578.77-.164.034-.329.066-.504.101.287 1.264.426 2.539.457 3.83v0zm-9.747.003c.03-1.297.172-2.57.456-3.834l-.16-.032c-.987-.188-1.955-.438-2.885-.821-.114-.048-.114-.047-.185.06a9.108 9.108 0 00-1.505 4.287c-.01.112-.015.225-.022.34h4.3zm.813.826c.025 1.28.161 2.54.446 3.792a26.199 26.199 0 013.2-.241v-3.552H6.44v0zm4.467 0v.095c0 1.119.002 2.237-.001 3.356 0 .086.026.103.106.104.856.012 1.71.068 2.56.168l.543.067c.283-1.251.422-2.512.445-3.79h-3.653zm-4.465-.828h3.646V6.91c-.536-.028-1.067-.047-1.597-.086-.533-.04-1.064-.101-1.604-.154a18.56 18.56 0 00-.445 3.691zm7.668-3.704a26.36 26.36 0 01-3.197.241v3.461h3.646a18.583 18.583 0 00-.45-3.702zM10.913 19.96c.033-.008.062-.01.087-.022.182-.083.373-.15.542-.254.462-.283.811-.684 1.116-1.125.482-.698.818-1.467 1.088-2.267.056-.168.107-.337.164-.517-1-.138-1.993-.205-2.997-.222v4.406h0zm-.826 0v-4.407a24.814 24.814 0 00-2.997.223c.057.179.108.348.164.516.274.814.618 1.595 1.113 2.302.299.427.645.81 1.09 1.093.193.123.399.219.63.274v0zm0-18.266c-.033.008-.058.013-.082.02a2.334 2.334 0 00-.756.397c-.395.303-.71.68-.981 1.093-.531.81-.885 1.697-1.159 2.62-.003.01-.002.02-.003.03.35.095 2.733.268 2.982.216V1.695v0zm.827 0v4.388a24.9 24.9 0 002.979-.22c0-.016.002-.025 0-.033-.037-.12-.073-.241-.112-.36-.28-.853-.63-1.67-1.148-2.409-.299-.428-.645-.81-1.09-1.093-.193-.123-.399-.22-.63-.273h0zm3.803 4.04c.974-.176 1.923-.409 2.85-.777a9.16 9.16 0 00-2.48-2.099 8.652 8.652 0 00-2.306-.927c.98 1.095 1.52 2.41 1.936 3.804v0zm-6.5-3.804C6.3 2.423 4.713 3.436 3.431 4.958c.935.368 1.884.603 2.853.777.415-1.393.955-2.708 1.933-3.804v0zm4.561 17.796c1.925-.521 3.516-1.525 4.798-3.039-.037-.017-.057-.028-.078-.036-.878-.342-1.787-.567-2.71-.739-.055-.01-.075.007-.09.059-.081.262-.16.525-.252.784-.3.856-.682 1.674-1.22 2.41-.137.186-.288.361-.448.56h0zm-4.574-.015c-.974-1.1-1.513-2.417-1.926-3.808-.973.175-1.926.41-2.858.781 1.288 1.518 2.878 2.522 4.784 3.027h0z"/></svg>