<?xml version="1.0" standalone="no"?>
<!DOCTYPE svg PUBLIC "-//W3C//DTD SVG 20010904//EN"
 "http://www.w3.org/TR/2001/REC-SVG-20010904/DTD/svg10.dtd">
<svg version="1.0" xmlns="http://www.w3.org/2000/svg"
 width="512.000000pt" height="512.000000pt" viewBox="0 0 512.000000 512.000000"
 preserveAspectRatio="xMidYMid meet">
<metadata>
Created by potrace 1.14, written by Peter Selinger 2001-2017
</metadata>
<g transform="translate(0.000000,512.000000) scale(0.100000,-0.100000)"
fill="#000000" stroke="none">
<path d="M2601 4469 c-83 -14 -257 -75 -341 -120 -216 -116 -398 -315 -514
-560 -45 -93 -96 -265 -96 -320 0 -15 -3 -30 -7 -32 -5 -3 -72 169 -149 382
l-142 386 -173 3 -174 2 -319 -872 c-176 -480 -322 -879 -324 -886 -3 -10 44
-12 229 -10 l232 3 42 125 42 125 274 0 274 0 39 -127 40 -128 236 0 236 0 27
-28 27 -28 -320 -485 c-223 -336 -320 -492 -320 -511 0 -49 22 -77 103 -130
88 -58 129 -65 173 -32 15 10 167 232 339 492 171 260 314 475 317 477 2 3 41
-8 85 -25 227 -83 499 -86 750 -9 222 68 465 243 601 432 l32 46 -195 131
c-108 72 -200 130 -204 128 -4 -2 -28 -28 -53 -58 -83 -103 -203 -183 -338
-225 -32 -10 -105 -19 -175 -22 -103 -5 -132 -2 -198 16 -213 58 -407 223
-476 403 -9 24 -5 23 52 -20 370 -280 908 -249 1254 72 62 58 203 233 203 253
0 6 -31 51 -69 99 -216 280 -479 414 -808 414 -214 -1 -377 -53 -578 -185
l-29 -20 24 45 c14 25 63 83 110 130 141 142 286 201 490 201 127 1 195 -16
312 -74 l87 -44 132 198 c72 109 129 202 126 207 -11 17 -193 102 -286 132
-152 51 -211 60 -386 59 -88 -1 -184 -5 -214 -10z m371 -864 c139 -29 259 -92
369 -194 104 -95 103 -90 17 -174 -119 -118 -241 -182 -404 -213 -101 -19
-229 -15 -329 11 -136 35 -325 153 -398 249 l-29 37 79 77 c112 110 233 176
377 207 81 18 235 18 318 0z m-1709 -307 c37 -117 67 -216 67 -220 0 -10 -290
-10 -290 0 0 16 144 432 150 432 3 0 36 -96 73 -212z"/>
<path d="M2725 3564 c-222 -79 -219 -413 4 -489 173 -59 345 64 345 247 0 69
-16 109 -28 71 -3 -11 -20 -32 -36 -48 -56 -54 -159 -29 -190 45 -21 50 -7
100 40 141 32 29 37 38 24 43 -27 11 -117 5 -159 -10z"/>
<path d="M3455 4051 c-65 -103 -121 -193 -123 -200 -3 -8 74 -11 292 -11 l296
0 0 -700 0 -700 210 0 210 0 0 700 0 700 210 0 210 0 0 200 0 200 -592 0 -593
-1 -120 -188z"/>
<path d="M4140 2205 c0 -33 2 -35 35 -35 33 0 35 2 35 35 0 33 -2 35 -35 35
-33 0 -35 -2 -35 -35z"/>
<path d="M4270 2151 c0 -26 -4 -30 -32 -33 -28 -2 -34 -8 -36 -30 -3 -24 -8
-28 -33 -28 -27 0 -29 -3 -29 -35 0 -32 2 -35 30 -35 25 0 30 -4 30 -25 0 -21
-5 -25 -30 -25 -29 0 -30 -2 -30 -45 l0 -45 100 0 101 0 -3 103 -3 102 -27 3
c-22 3 -28 9 -28 28 0 20 5 24 30 24 28 0 30 3 30 35 0 33 -2 35 -35 35 -32 0
-35 -2 -35 -29z m0 -126 c0 -21 -5 -25 -30 -25 -25 0 -30 4 -30 25 0 21 5 25
30 25 25 0 30 -4 30 -25z"/>
<path d="M3385 1793 c-70 -136 -164 -317 -207 -401 l-80 -153 113 3 114 3 35
67 35 68 178 0 c100 0 177 4 175 9 -1 5 -25 50 -53 100 l-49 91 -72 0 -71 0
46 90 c25 49 49 90 53 90 3 0 65 -114 138 -252 73 -139 135 -257 139 -261 4
-4 56 -6 114 -5 l107 3 -213 395 -212 395 -82 3 -81 3 -127 -248z"/>
<path d="M4140 1520 l0 -280 100 0 100 0 -2 278 -3 277 -97 3 -98 3 0 -281z"/>
<path d="M1677 939 c-32 -18 -14 -69 25 -69 19 0 38 28 31 48 -8 20 -37 31
-56 21z"/>
<path d="M2047 939 c-32 -18 -14 -69 25 -69 19 0 38 28 31 48 -8 20 -37 31
-56 21z"/>
<path d="M1495 928 c-3 -8 -4 -75 -3 -149 l3 -134 30 0 30 0 0 145 0 145 -28
3 c-16 2 -29 -2 -32 -10z"/>
<path d="M1857 933 c-4 -3 -7 -21 -7 -40 0 -18 -4 -33 -10 -33 -5 0 -10 -11
-10 -25 0 -14 5 -25 10 -25 6 0 10 -35 10 -85 l0 -85 30 0 30 0 0 85 c0 78 2
85 20 85 14 0 20 7 20 21 0 12 -8 23 -20 26 -16 4 -20 14 -20 44 0 34 -3 39
-23 39 -13 0 -27 -3 -30 -7z"/>
<path d="M3690 900 c0 -29 -4 -40 -15 -40 -9 0 -15 -9 -15 -25 0 -16 6 -25 15
-25 12 0 15 -16 15 -85 l0 -85 30 0 30 0 0 85 c0 69 3 85 15 85 9 0 15 9 15
25 0 16 -6 25 -15 25 -11 0 -15 11 -15 40 0 38 -2 40 -30 40 -28 0 -30 -2 -30
-40z"/>
<path d="M880 785 l0 -145 30 0 30 0 0 60 c0 54 2 60 20 60 29 0 76 26 84 45
13 35 6 76 -19 100 -20 21 -34 25 -85 25 l-60 0 0 -145z m105 60 c0 -13 -8
-21 -22 -23 -19 -3 -23 1 -23 23 0 22 4 26 23 23 14 -2 22 -10 22 -23z"/>
<path d="M2992 788 l3 -143 62 -3 c111 -5 167 43 167 143 0 100 -51 145 -163
145 l-72 0 3 -142z m148 62 c23 -23 28 -96 7 -123 -6 -10 -29 -20 -50 -24
l-37 -6 0 87 0 86 30 0 c17 0 39 -9 50 -20z"/>
<path d="M1193 825 c-33 -33 -35 -39 -30 -81 7 -67 46 -104 108 -104 56 0 93
25 109 75 25 75 -27 145 -107 145 -38 0 -50 -5 -80 -35z m102 -21 c23 -9 36
-49 25 -78 -12 -32 -45 -42 -75 -22 -31 20 -33 58 -5 86 22 22 29 23 55 14z"/>
<path d="M1670 750 l0 -110 30 0 30 0 0 110 0 110 -30 0 -30 0 0 -110z"/>
<path d="M2040 750 l0 -110 30 0 30 0 0 110 0 110 -30 0 -30 0 0 -110z"/>
<path d="M2261 846 c-49 -27 -65 -99 -36 -156 20 -39 43 -50 104 -50 38 0 56
6 77 24 l28 23 -22 12 c-18 9 -30 9 -56 0 -46 -17 -86 7 -86 51 0 44 40 68 86
51 26 -9 38 -9 56 0 l22 12 -28 23 c-31 28 -105 32 -145 10z"/>
<path d="M2557 842 c-31 -34 -22 -69 28 -104 45 -32 49 -62 5 -38 -18 9 -25 8
-41 -6 -18 -16 -18 -18 -3 -36 19 -20 83 -25 114 -8 45 24 30 96 -26 126 -35
19 -48 42 -16 29 30 -13 44 -11 56 8 9 15 7 21 -8 33 -28 20 -89 18 -109 -4z"/>
<path d="M3367 835 c-46 -46 -43 -120 5 -172 24 -26 95 -32 116 -11 9 9 12 9
12 0 0 -7 13 -12 30 -12 l30 0 0 110 0 110 -30 0 c-17 0 -30 -5 -30 -12 0 -9
-3 -9 -12 0 -7 7 -31 12 -54 12 -31 0 -48 -6 -67 -25z m111 -41 c12 -8 22 -25
22 -37 0 -31 -27 -67 -51 -67 -25 0 -59 34 -59 60 0 22 33 60 53 60 7 0 23 -7
35 -16z"/>
<path d="M3904 837 c-49 -42 -40 -157 14 -186 10 -5 53 -10 95 -9 l77 0 0 108
0 108 -80 0 c-69 1 -84 -2 -106 -21z m107 -37 c37 -20 17 -110 -24 -110 -7 0
-23 7 -35 16 -26 18 -29 60 -5 86 18 20 36 23 64 8z"/>
</g>
</svg>
