<svg xmlns="http://www.w3.org/2000/svg" fill="none" viewBox="0 0 148 157"><path fill="#0002" d="M18.165 132.962h1.911c1.034 0 1.78.096 2.236.286.457.191.818.5 1.081.927.264.427.396.939.396 1.535 0 .66-.173 1.21-.518 1.647-.345.437-.814.742-1.406.914-.347.099-.98.148-1.899.148v4.009h-1.802v-9.466zm1.802 3.7h.573c.45 0 .763-.032.94-.097a.833.833 0 00.415-.319.936.936 0 00.151-.539c0-.366-.141-.633-.424-.801-.206-.124-.588-.187-1.146-.187h-.508v1.944-.001zM31.284 135.247c.66 0 1.282.165 1.863.496.581.33 1.035.778 1.36 1.344.327.566.49 1.178.49 1.835 0 .656-.165 1.278-.492 1.853a3.547 3.547 0 01-1.343 1.348 3.712 3.712 0 01-1.872.485c-1.004 0-1.86-.358-2.57-1.072-.71-.714-1.066-1.582-1.066-2.603 0-1.093.401-2.005 1.203-2.735.704-.634 1.513-.952 2.426-.952l.001.001zm.029 1.654c-.546 0-1 .19-1.363.569-.364.38-.545.865-.545 1.457 0 .593.18 1.103.538 1.481.358.378.813.566 1.363.566s1.007-.191 1.373-.573c.366-.382.549-.873.549-1.474 0-.6-.18-1.088-.538-1.464-.36-.375-.818-.563-1.376-.563l-.001.001zM38.874 132.725h1.756v9.704h-1.756v-9.704zM45.547 132.544c.308 0 .572.112.793.335.22.222.33.493.33.81 0 .318-.11.581-.327.802a1.061 1.061 0 01-.783.331c-.304 0-.579-.112-.799-.338a1.13 1.13 0 01-.33-.82c0-.321.109-.573.327-.791.218-.219.481-.328.79-.328v-.001zm-.878 2.883h1.756v7.002H44.67v-7.002zM50.87 132.848h1.757v2.58h1.042v1.513h-1.042v5.489H50.87v-5.489h-.9v-1.513h.9v-2.58zM57.93 132.544c.308 0 .572.112.792.335.22.222.33.493.33.81 0 .318-.108.581-.326.802a1.061 1.061 0 01-.783.331c-.304 0-.579-.112-.8-.338a1.13 1.13 0 01-.33-.82c0-.321.11-.573.328-.791.218-.219.48-.328.79-.328v-.001zm-.878 2.883h1.756v7.002h-1.756v-7.002zM69.893 136.842l-1.462.805c-.275-.288-.547-.488-.815-.599a2.458 2.458 0 00-.944-.167c-.658 0-1.189.196-1.595.588-.406.393-.609.894-.609 1.507 0 .612.196 1.082.587 1.458.39.377.903.565 1.539.565.786 0 1.398-.268 1.836-.804l1.385.948c-.75.977-1.81 1.465-3.179 1.465-1.23 0-2.195-.364-2.892-1.094-.697-.729-1.046-1.582-1.046-2.561 0-.678.17-1.302.509-1.872a3.575 3.575 0 011.419-1.345c.606-.326 1.286-.489 2.037-.489.694 0 1.319.138 1.872.415a3.56 3.56 0 011.358 1.181v-.001zM78.4 136.405l-1.089 1.088c-.442-.438-.843-.656-1.203-.656-.197 0-.352.041-.463.125a.377.377 0 00-.167.312c0 .094.035.181.106.261.07.079.245.188.524.325l.643.322c.678.335 1.143.675 1.396 1.024.254.347.38.755.38 1.222 0 .622-.229 1.142-.685 1.558-.457.416-1.07.624-1.837.624-1.021 0-1.836-.399-2.445-1.197l1.08-1.178c.207.241.448.435.724.582.277.148.522.222.737.222.232 0 .419-.056.56-.167.142-.112.213-.24.213-.386 0-.27-.255-.534-.766-.791l-.592-.296c-1.133-.57-1.699-1.285-1.699-2.143 0-.553.214-1.026.64-1.419.428-.392.973-.589 1.638-.589a2.848 2.848 0 012.304 1.158v-.001z"/><path fill="#0002" d="M89.07 132.962h2.134c1.376 0 2.398.17 3.067.512.668.341 1.219.895 1.652 1.663.433.767.65 1.665.65 2.69 0 .729-.121 1.4-.364 2.011-.242.611-.576 1.119-1.003 1.522a3.534 3.534 0 01-1.385.836c-.498.155-1.36.232-2.584.232H89.07v-9.466zm1.788 1.738v5.971h.836c.824 0 1.421-.095 1.792-.284.371-.189.675-.506.911-.953.235-.446.354-.996.354-1.649 0-1.004-.281-1.784-.843-2.338-.506-.498-1.32-.747-2.44-.747h-.61zM105.902 135.427h1.756v7.001h-1.756v-.739c-.344.326-.688.561-1.032.705a2.883 2.883 0 01-1.122.215c-.904 0-1.686-.351-2.346-1.052-.66-.702-.99-1.574-.99-2.617s.32-1.966.958-2.658c.638-.69 1.414-1.036 2.326-1.036.42 0 .814.08 1.183.238.368.159.709.397 1.022.714v-.771h.001zm-1.847 1.441c-.544 0-.994.192-1.354.576-.359.384-.538.876-.538 1.477 0 .6.183 1.102.548 1.493.366.39.816.585 1.349.585.534 0 1.01-.192 1.373-.576.364-.384.545-.887.545-1.509 0-.622-.182-1.102-.545-1.48-.363-.378-.823-.566-1.378-.566zM112.282 132.848h1.758v2.58h1.042v1.513h-1.042v5.489h-1.758v-5.489h-.9v-1.513h.9v-2.58zM123.824 135.427h1.757v7.001h-1.757v-.739c-.343.326-.687.561-1.032.705a2.875 2.875 0 01-1.121.215c-.904 0-1.686-.351-2.346-1.052-.66-.702-.99-1.574-.99-2.617s.319-1.966.957-2.658c.639-.69 1.414-1.036 2.327-1.036.42 0 .814.08 1.183.238.368.159.709.397 1.022.714v-.771zm-1.847 1.441c-.543 0-.993.192-1.353.576-.359.384-.539.876-.539 1.477 0 .6.183 1.102.549 1.493.366.39.816.585 1.349.585.534 0 1.009-.192 1.373-.576.363-.384.545-.887.545-1.509 0-.622-.182-1.102-.545-1.48-.364-.378-.823-.566-1.379-.566z"/><path fill="#0002" d="M91.057 50.179a4.286 4.286 0 11-5.195-5.195 8.588 8.588 0 105.195 5.195"/><path fill="#0002" d="M82.97 42.879c8.485 0 16.02 4.057 20.776 10.337-4.755 6.28-12.29 10.338-20.775 10.338s-16.02-4.058-20.776-10.338c4.756-6.28 12.292-10.337 20.776-10.337zm0-6.812c-5.157 0-10.3 1.23-14.872 3.555a33.14 33.14 0 00-11.332 9.483l-3.113 4.111 3.113 4.112a33.142 33.142 0 0011.332 9.483 32.955 32.955 0 0014.873 3.555 32.96 32.96 0 0014.873-3.555 33.148 33.148 0 0011.332-9.483l3.113-4.112-3.113-4.11a33.137 33.137 0 00-11.332-9.484 32.967 32.967 0 00-14.873-3.555z"/><path fill="#0002" d="M40.142 82.31l-2.76-8.77H19.07l-2.93 8.77H.842l21.65-58.936h11.292l21.663 58.935H40.141zM28.516 45.726l-5.355 15.727h10.37l-5.015-15.727z"/><path fill="#0002" d="M41.663 123.095l-3.765-2.474a3.39 3.39 0 01-.97-4.68l25.073-37.824a3.388 3.388 0 014.68-.968l3.766 2.474a3.39 3.39 0 01.969 4.679l-25.072 37.824a3.39 3.39 0 01-4.68.969z"/><path fill="#0002" d="M91.369 15.15c5.101 1.275 9.842 3.074 14.115 5.856L96.66 34.168c-5.542-3.674-11.49-4.884-17.849-3.63-6.452 1.273-11.496 4.652-15.13 10.135-3.636 5.484-4.846 11.434-3.583 17.84 1.273 6.451 4.65 11.496 10.087 15.14 5.436 3.645 11.386 4.856 17.839 3.583 6.453-1.273 11.497-4.651 15.18-10.145l13.161 8.823c-2.887 4.245-6.499 7.838-10.825 10.826-4.326 2.99-9.147 4.983-14.5 6.038-10.707 2.113-20.638.1-29.737-6-9.1-6.101-14.733-14.523-16.846-25.23-2.112-10.707-.098-20.639 5.993-29.785 6.092-9.147 14.515-14.781 25.221-16.893 0 0 9.215-1.34 15.698.28z"/><path fill="#0002" d="M134 35.603V82.31h-13.965V35.603h-19.91l8.451-13.109h39.378v13.11H134zM133.755 99.313h-6.396V102h6.396v-2.688zM133.755 104.086h-6.396v18.396h6.396v-18.396z"/><path fill="#0002" d="M131.616 99.682h-2.398V102h2.398v-2.318z"/><path fill="#0002" d="M129.757 99.682h-2.398V102h2.398v-2.318zM129.629 95.39h-2.079v2.08h2.079v-2.08zM131.677 93.313h-2.079v2.077h2.079v-2.078z"/><path fill="#0002" d="M133.754 91.234h-2.078v2.079h2.078v-2.079zM129.629 89.343h-2.079v2.077h2.079v-2.077zM133.754 95.39h-2.078v2.324h2.078V95.39z"/><path fill="#0002" d="M133.754 97.47h-2.078v2.077h2.078V97.47z"/><path fill="#0002" d="M132.216 97.47h-2.618v2.077h2.618V97.47zM92.679 122.482l13.668-26.445h5.238l14.271 26.445h-7.166l-9.423-17.926-9.484 17.926H92.68z"/><path fill="#0002" d="M99.246 117.861h14.976l-3.5-6.398h-8.998l-2.478 6.398z"/></svg>