<svg width="194" height="145" viewBox="0 0 194 145" fill="none" xmlns="http://www.w3.org/2000/svg">
<path d="M56.4662 46.7563C57.9908 35.5472 62.355 25.6052 69.84 17.1099C81.4283 3.96158 96.1887 -1.12741 113.364 0.262828C121.473 0.919472 128.907 3.78203 135.978 7.73215C137.426 8.5427 137.625 9.14804 136.617 10.5845C133.384 15.1912 130.258 19.8801 127.239 24.6305C126.308 26.1028 125.679 26.0259 124.297 25.2358C113.395 18.9977 102.297 19.1311 91.8859 25.8668C81.5972 32.5205 76.7316 42.483 77.6423 54.9131C78.5683 67.5945 87.4706 78.4343 99.8263 82.1792C111.931 85.8472 125.28 81.6508 132.995 71.56C134.32 69.8261 135.113 69.585 136.914 70.888C141.263 74.0327 145.745 77.003 150.267 79.8963C151.848 80.9069 151.756 81.5738 150.728 82.9897C136.904 101.991 111.568 109.522 89.8752 100.919C88.1613 100.242 87.4297 100.514 86.4474 102.017C77.9953 114.94 69.4461 127.795 60.9327 140.677C58.3387 144.596 56.4611 144.996 52.496 142.426C51.4932 141.775 50.4955 141.128 49.5081 140.451C46.5202 138.409 46.0495 136.116 48.0704 133.049C54.829 122.794 61.6182 112.554 68.3921 102.309C70.0856 99.7495 71.6256 97.0665 73.5237 94.6606C75.0177 92.7676 75.0228 91.4697 72.9098 90.259C72.5465 90.0487 72.2191 89.7768 71.8814 89.5357C71.3442 88.8893 70.8326 88.2172 70.2545 87.6068C64.1252 81.0814 60.1959 73.412 58.0266 64.7319C56.548 58.8068 56.4457 52.8046 56.4662 46.7717V46.7563Z" fill="rgba(0, 0, 0, 0.15)"/>
<path d="M56.4664 46.7564C56.4511 52.7893 56.5483 58.7914 58.0269 64.7166C60.1962 73.3966 64.1255 81.066 70.2547 87.5914C70.8277 88.2019 71.3394 88.8791 71.8817 89.5203C65.6654 89.5665 59.4441 89.587 53.2279 89.6793C52.0358 89.6947 51.6316 89.151 51.3297 88.1044C50.5521 85.4009 49.6004 82.7435 48.8381 80.0349C48.4339 78.6036 47.8046 77.9572 46.193 77.9829C39.547 78.0752 32.8959 78.0803 26.2499 77.9829C24.6434 77.9572 24.0039 78.5728 23.5844 80.0195C22.8272 82.6409 21.8244 85.1906 21.062 87.812C20.6681 89.1612 20.0644 89.7306 18.5704 89.705C13.1165 89.6127 7.65749 89.5973 2.2087 89.705C0.305455 89.746 0.346385 89.1099 0.878474 87.6479C9.91887 63.0545 18.9388 38.4611 27.9025 13.8472C28.4704 12.2877 29.2736 11.7747 30.8801 11.826C34.2006 11.9388 37.5363 11.9901 40.8466 11.8106C42.8879 11.7029 43.814 12.3544 44.5149 14.3346C48.0451 24.3125 51.7493 34.2237 55.4023 44.1554C55.7246 45.0327 56.1083 45.8945 56.4613 46.7615L56.4664 46.7564ZM36.595 41.7084C34.8964 46.7256 33.4229 51.0348 31.9852 55.3543C31.6015 56.5086 29.1406 60.3766 30.2764 61.5155C30.875 62.1157 41.7214 62.2747 42.4377 61.6745C43.8344 60.5151 41.5014 57.1139 41.1331 55.8827C39.7619 51.3631 38.2629 46.8795 36.6001 41.7033L36.595 41.7084Z" fill="rgba(0, 0, 0, 0.15)"/>
<path d="M130.452 28.1653C134.222 22.2914 137.676 16.9356 141.099 11.5542C141.6 10.7642 142.306 10.7437 143.089 10.7437C159.271 10.7488 175.449 10.7642 191.627 10.7231C193.074 10.7231 193.566 11.1848 193.545 12.6264C193.484 17.1511 193.468 21.6809 193.55 26.2056C193.581 27.8369 192.916 28.2166 191.427 28.1909C187.17 28.114 182.914 28.1396 178.652 28.1704C174.692 28.2012 175.203 27.642 175.198 31.7614C175.178 50.0346 175.142 68.3129 175.244 86.5861C175.26 88.9715 174.804 89.8744 172.226 89.7256C168.066 89.4845 163.876 89.5153 159.711 89.7154C157.302 89.8334 156.555 89.2229 156.57 86.6733C156.688 68.3129 156.637 49.9525 156.631 31.5921C156.631 27.5702 156.821 28.1806 153.209 28.1653C145.816 28.1396 138.418 28.1601 130.441 28.1601L130.452 28.1653Z" fill="rgba(0, 0, 0, 0.15)"/>
<path d="M81.3467 52.4767C82.416 52.6819 82.7485 53.5643 83.3011 54.1439C97.1405 68.585 119.908 68.3028 133.389 53.5899C134.965 51.8713 135.134 50.8299 133.456 49.0088C119.718 34.0855 96.8847 33.9111 83.035 48.7266C82.6411 49.1473 82.2471 49.5731 81.7867 50.0707C81.2904 45.7666 84.3499 36.3017 87.3685 34.0907C90.5508 31.7565 94.3726 30.5561 98.2201 29.7917C116.158 26.2263 130.974 31.5308 142.496 45.823C143.923 47.5929 146.359 49.3525 146.21 51.3942C146.072 53.2616 143.847 54.9904 142.501 56.7551C129.516 73.8176 106.155 78.8656 87.4759 68.7081C85.7211 67.7539 84.5341 66.533 83.8332 64.6759C82.3546 60.7617 81.4234 56.7551 81.3467 52.4767Z" fill="rgba(0, 0, 0, 0.15)"/>
<path d="M164.117 142.499C161.344 142.499 158.642 142.453 155.946 142.519C154.677 142.55 154.442 141.601 154.023 140.806C150.6 134.316 147.192 127.822 143.78 121.327C143.468 120.732 143.13 120.147 142.552 119.101C141.15 121.784 139.902 124.154 138.658 126.534C138.178 127.452 138.643 127.95 139.487 127.74C144.527 126.503 146.097 130.048 147.704 133.603C148.083 134.434 148.528 135.24 149.121 136.404C144.276 136.404 139.794 136.456 135.318 136.373C133.941 136.348 132.928 136.661 132.56 138.025C131.465 142.088 128.702 142.878 124.875 142.581C120.716 142.258 120.685 142.504 122.624 138.733C127.582 129.099 132.585 119.496 137.471 109.826C138.311 108.163 139.283 107.661 141.145 107.502C144.568 107.209 146.374 108.405 147.955 111.539C152.631 120.829 157.742 129.905 162.654 139.077C163.201 140.103 164.004 141.037 164.117 142.504V142.499Z" fill="rgba(0, 0, 0, 0.15)"/>
<path d="M111.748 40.2877C108.591 42.0575 107.056 44.2583 107.905 47.4287C108.473 49.5525 109.967 50.9428 112.188 51.3326C115.206 51.861 117.212 50.3887 118.593 47.7878C120.389 52.174 118.767 57.3502 114.736 60.2897C110.515 63.3677 104.872 63.1676 100.799 59.7972C96.9209 56.5909 95.6521 50.9684 97.7651 46.3462C100.088 41.2675 105.045 38.9795 111.743 40.2877H111.748Z" fill="rgba(0, 0, 0, 0.15)"/>
<path d="M174.754 130.469C174.754 133.711 174.672 136.958 174.79 140.195C174.852 141.878 174.514 142.565 172.611 142.555C166.231 142.529 166.231 142.611 166.231 136.204C166.231 130.915 166.277 125.621 166.2 120.332C166.18 118.741 166.553 118.085 168.308 118.054C174.754 117.941 174.754 117.874 174.754 124.318C174.754 126.365 174.754 128.411 174.754 130.463V130.469Z" fill="rgba(0, 0, 0, 0.15)"/>
<path d="M174.749 111.005C174.749 115.94 174.749 115.894 168.246 115.694C166.711 115.647 166.138 115.201 166.184 113.631C166.22 112.518 166.491 112.097 167.617 112.246C168.405 112.349 169.131 112.308 169.157 111.143C169.182 110.076 168.865 109.522 167.729 109.625C166.593 109.727 166.563 108.963 166.558 108.137C166.558 107.301 166.604 106.547 167.74 106.67C168.896 106.793 169.233 106.188 169.157 105.151C169.085 104.238 169.627 103.946 170.426 104.007C171.592 104.1 171.904 103.469 171.838 102.448C171.756 101.186 172.605 101.16 173.521 101.16C174.355 101.16 174.795 101.468 174.754 102.355C174.713 103.181 174.959 104.171 173.582 104.089C172.733 104.038 172.124 104.192 172.073 105.29C172.022 106.506 172.636 106.752 173.628 106.675C174.57 106.598 174.769 107.157 174.754 107.947C174.733 108.968 174.754 109.989 174.754 111.015L174.749 111.005ZM171.797 108.219C171.838 107.429 171.592 106.911 170.676 106.916C169.965 106.916 169.546 107.173 169.52 107.927C169.494 108.65 169.551 109.302 170.513 109.343C171.311 109.378 171.833 109.127 171.797 108.219Z" fill="rgba(0, 0, 0, 0.15)"/>
<path d="M169.469 100.191C169.612 101.35 168.967 101.571 167.97 101.607C166.854 101.643 166.558 101.181 166.542 100.124C166.527 98.9957 166.977 98.6777 168.026 98.6982C169.07 98.7238 169.617 99.0778 169.474 100.191H169.469Z" fill="rgba(0, 0, 0, 0.15)"/>
</svg>
