<svg xmlns="http://www.w3.org/2000/svg" fill="none" viewBox="0 0 134 100"><path fill="#000" d="M38.816 32.436c1.058-7.783 4.088-14.686 9.286-20.584C56.148 2.722 66.397-.811 78.322.154c5.63.456 10.792 2.444 15.702 5.186 1.005.563 1.144.983.444 1.98a255.463 255.463 0 00-6.512 9.753c-.646 1.023-1.083.97-2.043.42-7.57-4.33-15.275-4.238-22.504.439-7.144 4.62-10.522 11.537-9.89 20.168.643 8.805 6.824 16.331 15.403 18.932 8.405 2.547 17.674-.367 23.03-7.374.92-1.203 1.471-1.37 2.722-.466 3.02 2.183 6.131 4.246 9.271 6.255 1.098.701 1.034 1.164.32 2.147-9.598 13.194-27.19 18.423-42.252 12.45-1.19-.47-1.698-.282-2.38.762-5.869 8.972-11.805 17.899-17.716 26.843-1.801 2.721-3.105 2.999-5.858 1.215-.696-.453-1.389-.902-2.075-1.372-2.074-1.417-2.401-3.01-.998-5.14 4.693-7.12 9.407-14.23 14.11-21.343 1.176-1.778 2.246-3.64 3.563-5.311 1.038-1.314 1.041-2.215-.426-3.056-.252-.146-.48-.335-.714-.502-.373-.45-.728-.916-1.13-1.34-4.255-4.53-6.984-9.856-8.49-15.883-1.026-4.114-1.098-8.281-1.083-12.47v-.01z"/><path fill="#EC1C24" d="M38.816 32.436c-.01 4.189.057 8.356 1.084 12.47 1.506 6.028 4.234 11.353 8.49 15.883.398.424.753.895 1.13 1.34-4.317.032-8.636.046-12.952.11-.828.01-1.109-.367-1.318-1.093-.54-1.877-1.201-3.723-1.73-5.603-.281-.994-.718-1.443-1.837-1.425-4.614.064-9.233.067-13.847 0-1.116-.018-1.56.41-1.851 1.414-.526 1.82-1.222 3.59-1.751 5.41-.274.937-.693 1.333-1.73 1.315a309.752 309.752 0 00-11.361 0c-1.321.029-1.293-.413-.924-1.428C6.496 43.752 12.76 26.676 18.983 9.586c.395-1.083.952-1.439 2.068-1.403 2.305.078 4.621.114 6.92-.011 1.417-.075 2.06.377 2.547 1.752 2.451 6.928 5.023 13.81 7.56 20.706.223.61.49 1.208.735 1.81l.003-.004zM25.02 28.931c-1.18 3.484-2.203 6.476-3.201 9.475-.266.801-1.975 3.487-1.187 4.278.416.417 7.947.527 8.445.11.97-.805-.65-3.166-.906-4.021-.952-3.138-1.993-6.251-3.148-9.846l-.003.004zM90.187 19.528c2.618-4.079 5.016-7.797 7.393-11.534.348-.549.838-.563 1.382-.563 11.236.004 22.469.014 33.701-.014 1.006 0 1.347.32 1.333 1.321-.043 3.142-.054 6.287.003 9.429.021 1.133-.44 1.396-1.474 1.378-2.956-.053-5.911-.035-8.871-.014-2.749.022-2.394-.367-2.397 2.494-.015 12.687-.039 25.379.032 38.067.01 1.656-.306 2.283-2.096 2.18-2.888-.168-5.798-.147-8.69-.008-1.673.082-2.191-.342-2.181-2.112.082-12.748.046-25.496.043-38.245 0-2.793.131-2.369-2.377-2.38-5.133-.017-10.27-.003-15.808-.003l.007.004z"/><path fill="#000" d="M56.092 36.408c.742.142.973.755 1.357 1.158 9.61 10.027 25.418 9.83 34.778-.385 1.094-1.193 1.212-1.916.046-3.18-9.538-10.363-25.392-10.484-35.009-.197-.273.292-.547.588-.867.933-.344-2.988 1.78-9.56 3.876-11.095 2.21-1.62 4.863-2.454 7.535-2.985C80.263 18.18 90.55 21.864 98.55 31.788c.992 1.229 2.682 2.45 2.579 3.868-.095 1.297-1.64 2.497-2.575 3.723-9.016 11.847-25.236 15.352-38.206 8.3-1.219-.663-2.043-1.511-2.53-2.8-1.026-2.718-1.673-5.5-1.726-8.471z"/><path fill="#EC1C24" d="M113.562 98.914c-1.925 0-3.801-.032-5.673.014-.881.021-1.044-.638-1.335-1.19-2.377-4.505-4.743-9.015-7.112-13.525-.217-.413-.451-.819-.853-1.545-.973 1.862-1.84 3.508-2.703 5.16-.334.638-.011.984.575.838 3.5-.858 4.59 1.603 5.705 4.071.263.577.572 1.137.984 1.945-3.364 0-6.476.036-9.584-.021-.956-.018-1.659.2-1.915 1.147-.76 2.82-2.678 3.37-5.335 3.163-2.889-.225-2.91-.054-1.564-2.672 3.443-6.69 6.917-13.357 10.31-20.071.582-1.154 1.257-1.504 2.55-1.614 2.377-.203 3.631.627 4.728 2.803 3.247 6.451 6.796 12.752 10.206 19.121.381.712.938 1.36 1.016 2.38v-.004z"/><path fill="#000" d="M77.2 27.945c-2.192 1.228-3.258 2.756-2.668 4.958.394 1.474 1.431 2.44 2.973 2.71 2.096.367 3.488-.655 4.448-2.46 1.246 3.045.12 6.639-2.679 8.68-2.93 2.137-6.849 1.998-9.677-.342-2.692-2.227-3.573-6.13-2.106-9.34 1.612-3.526 5.055-5.115 9.705-4.207h.003z"/><path fill="#EC1C24" d="M120.947 90.561c0 2.251-.056 4.506.025 6.754.043 1.168-.191 1.645-1.513 1.638-4.43-.018-4.43.04-4.43-4.41 0-3.672.032-7.348-.021-11.02-.014-1.105.245-1.56 1.463-1.582 4.476-.078 4.476-.125 4.476 4.35V90.56zM120.945 77.047c0 3.427 0 3.394-4.515 3.255-1.066-.032-1.464-.341-1.432-1.431.025-.773.213-1.065.995-.962.547.071 1.051.043 1.069-.766.018-.74-.202-1.126-.991-1.054-.789.07-.81-.46-.814-1.033 0-.58.032-1.105.821-1.019.803.085 1.037-.335.984-1.054-.05-.634.327-.837.881-.795.81.064 1.027-.374.981-1.082-.057-.877.532-.895 1.168-.895.579 0 .885.214.856.83-.028.574.142 1.261-.813 1.204-.59-.035-1.013.072-1.048.834-.036.844.391 1.015 1.08.962.653-.054.792.334.781.883-.014.709 0 1.418 0 2.13l-.003-.007zm-2.05-1.934c.029-.549-.142-.909-.778-.905-.494 0-.785.178-.803.702-.017.502.022.954.689.983.555.025.917-.15.892-.78zM117.279 69.538c.099.805-.348.958-1.041.983-.774.025-.98-.296-.991-1.03-.011-.783.302-1.004 1.03-.99.725.018 1.105.264 1.005 1.037h-.003z"/></svg>