<svg xmlns="http://www.w3.org/2000/svg" fill="none" viewBox="0 0 148 129"><path fill="#000" fill-opacity=".133" d="M91.057 36.179a4.284 4.284 0 01-7.19 1.995 4.288 4.288 0 01.04-6.102 4.287 4.287 0 011.955-1.088 8.589 8.589 0 105.195 5.195z"/><path fill="#000" fill-opacity=".133" fill-rule="evenodd" d="M91.369 1.15c5.101 1.275 9.842 3.074 14.115 5.856L96.66 20.168c-5.542-3.674-11.49-4.884-17.849-3.63-6.452 1.273-11.496 4.652-15.13 10.135a26.453 26.453 0 00-1.725 3.001 33.143 33.143 0 016.142-4.052 32.962 32.962 0 0114.872-3.555 32.973 32.973 0 0114.874 3.555 33.135 33.135 0 0111.332 9.484l3.113 4.11-3.113 4.112a33.149 33.149 0 01-11.332 9.483 32.959 32.959 0 01-14.873 3.555 32.957 32.957 0 01-14.873-3.555 33.142 33.142 0 01-7.078-4.862c1.671 4.834 4.734 8.734 9.165 11.704 5.436 3.645 11.386 4.856 17.839 3.583 6.453-1.273 11.497-4.651 15.18-10.145l13.161 8.823c-2.887 4.245-6.499 7.838-10.825 10.826-4.326 2.99-9.147 4.983-14.5 6.038-8.33 1.644-16.192.79-23.557-2.543l-21.139 31.891a3.392 3.392 0 01-4.68.969l-3.766-2.474a3.39 3.39 0 01-.97-4.68L57.92 70.273a40.657 40.657 0 01-2.605-2.323l.132.359-15.305.001-2.76-8.77H19.07l-2.93 8.77H.842l21.65-58.936h11.292l9.976 27.139c.512-6.578 2.746-12.828 6.69-18.75C56.542 8.616 64.965 2.982 75.67.87c0 0 9.216-1.34 15.699.28zM28.516 31.726l-5.355 15.727h10.37l-5.015-15.727zm75.23 7.49c-4.756-6.28-12.29-10.337-20.776-10.337-8.484 0-16.02 4.057-20.775 10.337 4.756 6.28 12.291 10.338 20.776 10.338s16.02-4.058 20.775-10.338zM20.076 118.962h-1.911v9.466h1.801v-4.009c.919 0 1.552-.049 1.899-.148.592-.172 1.061-.477 1.406-.914.345-.437.518-.987.518-1.647 0-.596-.132-1.108-.396-1.535a2.272 2.272 0 00-1.081-.927c-.456-.19-1.202-.286-2.236-.286zm.464 3.7h-.573l.001-1.943h.508c.558 0 .94.063 1.146.187.283.168.424.435.424.801a.932.932 0 01-.21.617l-.047.049a.844.844 0 01-.309.192 1.562 1.562 0 01-.362.072c-.157.017-.35.025-.578.025zM33.147 121.743a3.706 3.706 0 00-1.863-.496c-.914-.001-1.723.317-2.427.951-.802.73-1.203 1.642-1.203 2.735 0 1.021.356 1.889 1.066 2.603.71.714 1.566 1.072 2.57 1.072a3.72 3.72 0 001.872-.485 3.55 3.55 0 001.343-1.348 3.7 3.7 0 00.492-1.853c0-.657-.163-1.269-.49-1.835a3.57 3.57 0 00-1.36-1.344zm-3.197 1.727c.363-.379.817-.569 1.363-.569.56-.001 1.017.187 1.377.562.358.376.538.864.538 1.464 0 .601-.183 1.092-.549 1.474-.366.382-.823.573-1.373.573s-1.005-.188-1.363-.566c-.358-.378-.538-.888-.538-1.481 0-.592.18-1.077.545-1.457z" clip-rule="evenodd"/><path fill="#000" fill-opacity=".133" d="M40.63 118.725h-1.756v9.704h1.756v-9.704zM46.34 118.879a1.078 1.078 0 00-.793-.335c-.308.001-.57.11-.789.329-.218.218-.327.47-.327.791a1.132 1.132 0 00.33.82c.22.226.495.338.8.338a1.057 1.057 0 00.782-.331c.217-.221.327-.484.327-.802 0-.317-.11-.588-.33-.81zM46.425 121.427h-1.756v7.002h1.756v-7.002zM52.627 118.848H50.87v2.58h-.9v1.513h.9v5.489h1.757v-5.489h1.042v-1.513h-1.042v-2.58zM58.722 118.879a1.073 1.073 0 00-.792-.335 1.076 1.076 0 00-.789.329 1.06 1.06 0 00-.328.791 1.134 1.134 0 00.33.82c.221.226.496.338.8.338a1.056 1.056 0 00.783-.331c.218-.221.326-.484.326-.802 0-.317-.11-.588-.33-.81zM58.808 121.427h-1.756v7.002h1.756v-7.002zM68.43 123.647l1.463-.805a3.573 3.573 0 00-1.358-1.18c-.553-.277-1.178-.415-1.872-.415-.75 0-1.431.163-2.037.489a3.58 3.58 0 00-1.419 1.345 3.595 3.595 0 00-.509 1.872c0 .979.35 1.832 1.046 2.561.697.73 1.662 1.094 2.892 1.094 1.369 0 2.429-.488 3.179-1.465l-1.385-.948c-.438.536-1.05.804-1.836.804-.285 0-.546-.038-.782-.114a1.916 1.916 0 01-.757-.451c-.39-.376-.587-.846-.587-1.458 0-.613.203-1.114.609-1.507.406-.392.937-.588 1.595-.588.323-.007.643.05.944.167a2.12 2.12 0 01.455.271c.12.092.24.202.36.328zM77.311 123.493l1.089-1.088a2.861 2.861 0 00-2.305-1.157c-.665 0-1.21.197-1.638.589-.426.393-.64.866-.64 1.419 0 .858.566 1.573 1.7 2.143l.59.296c.512.257.767.521.767.791v.022l-.001.016a.435.435 0 01-.1.238l-.011.014-.026.029a.9.9 0 01-.047.044l-.028.023a.725.725 0 01-.152.091 1.02 1.02 0 01-.408.076c-.117 0-.242-.022-.377-.065a2.49 2.49 0 01-1.084-.739l-1.08 1.178c.609.798 1.424 1.197 2.445 1.197.767 0 1.38-.208 1.837-.624.456-.416.685-.936.685-1.558 0-.257-.038-.497-.115-.718a1.915 1.915 0 00-.265-.504c-.166-.23-.425-.456-.776-.679a6.914 6.914 0 00-.62-.345l-.643-.322a4.853 4.853 0 01-.241-.126 1.17 1.17 0 01-.283-.199.385.385 0 01-.106-.261.378.378 0 01.167-.312.538.538 0 01.123-.068.726.726 0 01.164-.044c.026-.005.053-.007.08-.01a1.48 1.48 0 01.096-.003c.36 0 .76.218 1.203.656z"/><path fill="#000" fill-opacity=".133" fill-rule="evenodd" d="M91.204 118.962H89.07v9.466h2.167c1.224 0 2.086-.077 2.584-.232.52-.168.994-.454 1.385-.836.427-.403.761-.911 1.003-1.522a5.399 5.399 0 00.364-2.011c0-1.025-.217-1.923-.65-2.69-.433-.768-.984-1.322-1.652-1.663-.669-.342-1.69-.512-3.067-.512zm-.346 7.709V120.7h.61c1.12 0 1.934.249 2.44.747.562.554.843 1.334.843 2.338 0 .653-.119 1.203-.354 1.649-.236.447-.54.764-.91.953-.372.189-.969.284-1.793.284h-.836zM107.658 121.427h-1.756l-.001.771a3.245 3.245 0 00-1.022-.714 2.991 2.991 0 00-1.183-.238c-.912 0-1.688.346-2.326 1.036-.638.692-.958 1.615-.958 2.658s.33 1.915.99 2.617c.66.701 1.442 1.052 2.346 1.052.385.004.766-.069 1.122-.215.344-.144.688-.379 1.032-.705v.739h1.756v-7.001zm-4.957 2.017c.36-.384.81-.576 1.354-.576.555 0 1.015.188 1.378.566a1.806 1.806 0 01.351.51 2.19 2.19 0 01.188.776l.003.068c.002.041.003.083.003.126 0 .622-.181 1.125-.545 1.509a1.837 1.837 0 01-1.373.576c-.533 0-.983-.195-1.349-.585-.365-.391-.548-.893-.548-1.493 0-.601.179-1.093.538-1.477z" clip-rule="evenodd"/><path fill="#000" fill-opacity=".133" d="M114.04 118.848h-1.758v2.58h-.9v1.513h.9v5.489h1.758v-5.489h1.042v-1.513h-1.042v-2.58z"/><path fill="#000" fill-opacity=".133" fill-rule="evenodd" d="M125.581 121.427h-1.757v.771a3.245 3.245 0 00-1.022-.714 2.973 2.973 0 00-1.183-.238c-.913 0-1.688.346-2.327 1.036-.638.692-.957 1.615-.957 2.658s.33 1.915.99 2.617c.66.701 1.442 1.052 2.346 1.052h.065l.057-.002.059-.002.081-.005c.295-.024.584-.093.859-.206.345-.144.689-.379 1.032-.705v.739h1.757v-7.001zm-4.957 2.017c.36-.384.81-.576 1.353-.576.556 0 1.015.188 1.379.566.363.378.545.858.545 1.48s-.182 1.125-.545 1.509a1.839 1.839 0 01-1.373.576c-.533 0-.983-.195-1.349-.585-.366-.391-.549-.893-.549-1.493 0-.601.18-1.093.539-1.477z" clip-rule="evenodd"/><path fill="#000" fill-opacity=".133" d="M134 68.31V21.603l13.954.001V8.494h-39.378l-8.451 13.109h19.91V68.31H134zM129.629 83.47h2.047l.001-2.08h2.077l.001 6.61h-6.396v-2.687h2.239V83.47h-2.048v-2.08h2.048v-2.077h2.079v2.077h-2.048v2.08zM131.677 79.313l-.001-2.079h2.078v2.079h-2.077zM127.359 90.086h6.396v18.396h-6.396V90.086zM129.629 75.343h-2.079v2.077h2.079v-2.077zM92.679 108.482l13.668-26.445h5.238l14.271 26.445h-7.166l-9.423-17.926-3.654 6.907h5.109l3.5 6.398h-11.994l-2.445 4.621h-7.104z"/></svg>