<svg xmlns="http://www.w3.org/2000/svg" fill="none" viewBox="0 0 56 11"><path fill="gray" d="M6.57 10.54c-.612-.05-1.227.009-1.836-.088-1.847-.293-3.096-1.326-3.676-3.095-.593-1.808-.349-3.512.896-4.994C3.055 1.05 4.49.462 6.204.553c.904.047 1.758.26 2.525.75.726.464 1.263 1.082 1.495 1.931.012.043.015.087.03.129.021.064.003.089-.066.089H8.679c-.051 0-.079-.026-.108-.063-.534-.67-1.27-.92-2.087-1.003-.629-.064-1.243-.038-1.835.224a3.3 3.3 0 00-1.961 3.066c.03 1.337.893 2.53 2.092 2.891.228.07.462.102.701.102.823 0 1.647.003 2.47-.002.126-.001.171.027.169.163-.009.52-.008 1.039 0 1.559.002.128-.038.156-.16.154-.463-.006-.927-.003-1.39-.003zM27.29 5.318v3.897c0 .748-.575 1.323-1.323 1.324h-4.012a1.3 1.3 0 01-1.32-1.296 200.7 200.7 0 01.001-3.63c.008-.756.596-1.288 1.394-1.29 1.116-.002 2.233 0 3.35 0 .148 0 .223-.078.223-.232 0-.912.003-1.824-.004-2.736-.002-.142.04-.171.174-.169.448.009.896.012 1.343-.001.156-.004.177.05.176.186-.005 1.316-.003 2.631-.003 3.946v.001zm-3.338 3.53c.503 0 1.005-.003 1.508.001.098 0 .146-.011.146-.13-.006-.857-.004-1.713 0-2.57 0-.096-.021-.133-.128-.132-1.005.004-2.01.004-3.015 0-.11 0-.141.032-.14.14.003.85.003 1.701 0 2.552-.001.108.027.142.138.14.497-.005.994-.002 1.491-.002zM34.84 10.54l-5.725-.001a1.291 1.291 0 01-1.306-1.288 288.124 288.124 0 010-3.649c.005-.723.58-1.269 1.352-1.276 1.216-.01 2.432-.012 3.648 0 .812.009 1.35.574 1.344 1.388-.004.486.04.975-.025 1.458a1.267 1.267 0 01-1.265 1.089c-1.061.002-2.122.004-3.184-.004-.15 0-.184.043-.181.186.008.405.002.405.406.405 1.36 0 2.72.002 4.08-.003.135 0 .188.033.172.173-.011.103 0 .21-.002.315-.008.514.14.945.684 1.207h.001zm-3.858-3.97h1.126c.356 0 .35 0 .36-.365.003-.145-.029-.196-.187-.194-.794.01-1.589.004-2.383.004-.405 0-.4 0-.402.408 0 .112.027.151.146.15.447-.007.894-.003 1.34-.003z"/><path fill="gray" d="M20.755 10.54h-5.616c-.816 0-1.372-.558-1.372-1.374V5.718c0-.825.534-1.386 1.354-1.392 1.21-.01 2.42-.01 3.63 0 .824.006 1.364.563 1.363 1.386 0 .464.025.928-.014 1.391a1.275 1.275 0 01-1.27 1.158c-1.067.002-2.134.003-3.2-.002-.137-.001-.177.033-.175.173.008.416.002.416.425.416 1.26 0 2.52-.001 3.78.002.146 0 .335-.065.429.03.086.088.02.274.026.416.003.061-.003.122.001.183.032.458.194.837.639 1.06zm-3.828-3.97h1.109c.392 0 .387 0 .39-.4.002-.124-.033-.158-.157-.158-.8.006-1.6.003-2.4.003-.416 0-.411 0-.413.41 0 .115.032.148.148.147.44-.007.882-.003 1.323-.003zM52.43 4.137h2.006c.731.001 1.307.566 1.31 1.298.005 1.266.005 2.532 0 3.797a1.304 1.304 0 01-1.325 1.307h-4.013a1.303 1.303 0 01-1.317-1.312V5.446c0-.74.572-1.308 1.315-1.308h2.023zm-.001 1.692c-.503 0-1.006.003-1.508-.003-.109-.001-.14.03-.14.139.004.912.004 1.823 0 2.735 0 .114.027.15.146.15.994-.005 1.989-.004 2.983 0 .116 0 .149-.031.148-.148-.004-.906-.004-1.812 0-2.718.001-.122-.028-.16-.155-.159-.491.008-.983.003-1.475.003h.001zM40.733 7.924c0 .818-.003 1.636.003 2.454 0 .132-.036.166-.166.164a40.477 40.477 0 00-1.376 0c-.126.002-.156-.035-.156-.158.005-1.42.001-2.84.006-4.261 0-.142-.024-.196-.184-.194-.784.01-1.57.008-2.354.002-.127-.001-.155.035-.154.157.004 1.354.002 2.709.002 4.062 0 .391 0 .393-.399.389a1.251 1.251 0 01-.92-.386 1.204 1.204 0 01-.362-.863c-.002-1.26-.005-2.52.001-3.78a1.278 1.278 0 011.243-1.264c1.188-.014 2.377-.014 3.565 0 .703.008 1.245.589 1.25 1.307.005.79.001 1.58.001 2.37z"/><path fill="gray" d="M49.434 10.54c-1.658 0-3.316.003-4.974-.003a1.292 1.292 0 01-1.276-1.268 327.336 327.336 0 010-3.864 1.283 1.283 0 011.288-1.267c1.31-.002 2.62.001 3.93-.004.134 0 .179.03.176.171a37.8 37.8 0 00-.001 1.36c.002.128-.031.168-.165.167-1.116-.006-2.233 0-3.35-.006-.141-.001-.194.023-.193.184.01.895.008 1.79.002 2.686-.001.126.034.155.156.154 1.128-.004 2.255 0 3.382-.005.127 0 .174.028.168.163-.013.27-.01.541.088.8.139.368.383.623.768.732zM10.264 5.548c1.024-1.014 2.292-1.18 3.602-1.226.02.062-.034.067-.058.088-.4.353-.518.82-.537 1.325-.01.302-.003.304-.296.342-.44.057-.868.161-1.265.365-.985.504-1.427 1.338-1.444 2.42-.008.503-.007 1.006.002 1.509.003.141-.043.174-.177.171a43.553 43.553 0 00-1.343 0c-.103.001-.13-.03-.13-.13.003-1.99.003-3.979 0-5.968 0-.093.025-.124.12-.123.464.004.929.006 1.393 0 .116-.002.136.044.135.146-.005.351-.002.703-.002 1.081zM42.657 9.84c0 .167-.003.332 0 .498.004.14-.066.202-.2.202h-1.012c-.127 0-.193-.064-.193-.195.002-.342.001-.685 0-1.027 0-.132.069-.193.194-.194a90.9 90.9 0 011.028 0c.117.002.184.062.183.187-.002.176 0 .353 0 .53z"/></svg>