<svg xmlns="http://www.w3.org/2000/svg" fill="none" viewBox="0 0 74 28"><path fill="#000" d="M9.028 19.328c.022.04.03.048.03.056.05.538-.189.806-.718.806H1.443c-.262 0-.393-.134-.393-.403v-.453c.362-.043.715-.08 1.068-.128.165-.022.328-.057.49-.094.576-.129.93-.48 1.005-1.068.06-.46.108-.924.109-1.387.008-4.254.008-8.509 0-12.763-.001-.463-.05-.927-.108-1.387-.075-.591-.443-.946-1.013-1.062a14.471 14.471 0 00-1.406-.196C1.02 1.23.978 1.163.973 1.005.953.357.95.357 1.596.357c2.325 0 4.65.004 6.976-.005.256-.001.328.076.32.326-.017.533-.004.53-.528.605-.312.044-.626.084-.933.152-.55.122-.913.455-.99 1.023-.069.502-.121 1.01-.126 1.517C6.3 5.598 6.31 7.22 6.31 8.843c0 .052.01.102.018.173h10.365c.006-.086.017-.17.017-.254-.003-1.807.001-3.614-.018-5.42a4.13 4.13 0 00-.155-1.09c-.171-.594-.672-.79-1.227-.875-.398-.06-.799-.108-1.215-.163V.373h7.937v.84c-.414.054-.829.1-1.241.162-.42.063-.858.145-1.102.528a2.12 2.12 0 00-.302.85 12.44 12.44 0 00-.08 1.547c-.006 3.974-.01 7.947.003 11.92.002.655.065 1.312.148 1.962.06.481.394.785.858.887.486.107.985.157 1.478.232l.217.033c0 .244.007.486-.006.727-.003.044-.08.103-.134.122-.063.021-.139.008-.209.008h-7.45c-.244 0-.366-.119-.367-.355-.002-.525 0-.51.525-.566a10.63 10.63 0 001.32-.215c.47-.112.795-.416.87-.91.071-.474.141-.955.145-1.433.016-2.018.002-4.035.012-6.053 0-.248-.058-.328-.319-.328-3.255.009-6.51.008-9.766 0-.248 0-.33.06-.329.32.011 1.94-.007 3.878.014 5.817.007.591.084 1.185.176 1.77.07.439.387.716.806.813.493.114 1 .168 1.5.248.077.012.155.02.229.03zM57.718 3.984h.35c2.368 0 4.737-.018 7.105.006 1.648.017 3.268.226 4.793.915 1.623.733 2.724 1.953 3.356 3.605.672 1.755.676 3.547.246 5.35-.5 2.093-1.72 3.665-3.55 4.775-1.429.868-2.999 1.351-4.652 1.415-2.54.1-5.084.08-7.626.116-.182.003-.241-.058-.242-.241-.005-.616-.01-.607.602-.674a8.82 8.82 0 00.93-.164c.421-.093.643-.39.69-.796.05-.434.072-.873.072-1.31.006-3.27.006-6.542 0-9.812 0-.429-.019-.86-.068-1.285-.058-.505-.298-.738-.804-.828a9.89 9.89 0 00-.963-.13c-.174-.014-.255-.057-.243-.246.015-.216.004-.435.004-.696zm6.608 1.044c-.394.025-.79.027-1.18.077-.865.11-1.005.278-1.005 1.144-.002 3.596-.004 7.191.005 10.786 0 .303.047.616.133.906.13.44.41.785.868.913 1.536.43 3.032.234 4.46-.406 1.624-.727 2.64-2.036 3.163-3.699.65-2.063.678-4.137-.173-6.169-.52-1.245-1.41-2.156-2.604-2.773-1.15-.594-2.388-.777-3.667-.779zM53.419 16.179v-.351c-.003-2.377.01-4.754-.018-7.13-.01-.857-.106-1.714-.188-2.568-.056-.585-.419-.934-.979-1.058-.383-.085-.777-.13-1.168-.174-.165-.018-.223-.069-.226-.239-.015-.676-.02-.675.647-.675h5.338v.862c-.372.068-.744.12-1.108.206-.528.127-.837.481-.881 1.017-.078.933-.169 1.87-.175 2.805-.025 3.737-.02 7.473-.025 11.21v.293c-.3 0-.578.006-.855-.006-.056-.002-.12-.065-.162-.116-.823-1.01-1.643-2.026-2.466-3.037-1.034-1.27-2.073-2.534-3.106-3.804-1.161-1.426-2.318-2.855-3.477-4.283l-1.18-1.45c-.011.136-.022.209-.022.28.003 2.44-.008 4.878.019 7.316.01.883.09 1.768.176 2.648.07.706.4 1.048 1.091 1.192.392.082.793.123 1.221.187 0 .227.012.463-.008.696-.005.059-.11.146-.179.155-.173.023-.35.009-.525.009-1.667 0-3.334-.006-5.002.006-.27.002-.363-.077-.331-.342.02-.172.003-.348.003-.522.364-.06.708-.108 1.05-.172.654-.121 1.021-.54 1.082-1.181.08-.845.14-1.695.15-2.544.026-2.534.024-5.069.027-7.604 0-.385.006-.776-.056-1.154-.122-.752-.584-1.267-1.285-1.528-.348-.13-.734-.161-1.105-.217-.17-.026-.235-.08-.235-.262-.003-.66-.01-.66.661-.66.965 0 1.93.003 2.896-.004a.49.49 0 01.423.2c1.438 1.742 2.88 3.48 4.325 5.217 1.27 1.528 2.546 3.052 3.818 4.58.526.632 1.046 1.268 1.57 1.902.07.085.146.164.266.298l-.001.002zM31.54 3.581c.255.706.502 1.388.747 2.07.543 1.506 1.085 3.013 1.625 4.52.431 1.202.852 2.408 1.291 3.607.493 1.348.999 2.691 1.508 4.033.08.21.2.409.317.602.29.479.746.696 1.28.775.226.033.451.064.717.1 0 .247.013.498-.011.747-.005.05-.15.122-.233.123-.649.01-1.298.006-1.947.006-1.247 0-2.492-.005-3.738.004-.234.002-.322-.056-.314-.308.017-.573.004-.57.561-.665a4.67 4.67 0 00.614-.142c.368-.115.477-.3.37-.681-.121-.438-.265-.871-.417-1.3-.292-.824-.602-1.641-.89-2.467-.063-.178-.141-.245-.333-.244a616.83 616.83 0 01-4.633.002c-.151 0-.234.035-.285.19-.368 1.105-.76 2.2-1.116 3.308-.282.878-.119 1.126.788 1.305.223.043.45.077.678.09.16.01.21.073.207.226-.016.819.112.675-.647.68-1.535.007-3.071-.003-4.607.007-.254.002-.332-.076-.325-.329.014-.555 0-.58.533-.637.961-.104 1.524-.678 1.865-1.522.586-1.453 1.163-2.908 1.742-4.363.456-1.146.911-2.293 1.363-3.44.622-1.579 1.24-3.16 1.86-4.738.15-.382.301-.765.46-1.144a.302.302 0 01.154-.156c.261-.093.53-.17.816-.259zm.95 9.463l-1.995-5.777-.064-.008-2.132 5.785h4.191zM37.524 26.29v-1.092c0-.325.004-.649 0-.974-.002-.189.125-.175.252-.177.127-.003.222.014.222.18-.003.9-.002 1.803-.002 2.698-.416.11-.495.086-.728-.227-.464-.624-.926-1.25-1.39-1.875-.013-.018-.038-.028-.092-.064v2.195c-.097.01-.168.008-.234.024-.193.047-.244-.035-.242-.219.007-.789-.001-1.578.007-2.368.001-.106.056-.3.098-.303.177-.013.378-.1.529.105.492.67.995 1.332 1.494 1.996.016.021.034.04.086.101zM11.699 27.043c-.956-.001-1.513-.416-1.659-1.183a1.489 1.489 0 011.242-1.767c.64-.093 1.252-.027 1.699.517.382.466.4 1.004.197 1.538-.201.529-.635.792-1.183.874-.12.019-.244.018-.295.021h-.001zm1.058-1.473c.009-.664-.431-1.143-1.058-1.15-.697-.01-1.136.427-1.151 1.14-.014.635.443 1.131 1.048 1.14.703.01 1.151-.427 1.16-1.13h.001zM48.988 25.644c.516.299.429.872.684 1.28-.453.13-.559.076-.675-.334-.024-.083-.042-.169-.066-.253a.802.802 0 00-1.01-.555c-.057.019-.111.142-.115.22-.013.312-.005.625-.005.954h-.497v-.446c0-.71.009-1.42-.006-2.129-.004-.232.072-.314.3-.3.443.027.89.01 1.329.068.317.043.563.237.605.598.042.373-.087.65-.438.81-.03.014-.054.042-.107.086zm-1.186-1.218v.39c0 .693.043.729.74.61.008 0 .017-.001.025-.003.257-.055.481-.304.471-.525-.01-.243-.191-.438-.483-.467-.24-.025-.485-.005-.754-.005zM57.458 26.973c-.154 0-.266.025-.359-.007-.097-.034-.214-.104-.255-.19-.096-.204-.141-.431-.228-.64-.109-.265-.704-.483-.955-.349-.047.026-.075.128-.077.196-.008.314-.004.629-.004.967h-.47c-.005-.054-.018-.12-.018-.187-.002-.806.004-1.612-.005-2.418-.002-.19.05-.272.25-.262.444.023.891.003 1.33.056.317.038.58.221.642.57.07.392-.079.683-.448.854-.028.012-.045.048-.076.08.466.312.432.855.672 1.33zm-1.868-1.527c.138 0 .25.003.36 0 .131-.005.264-.001.392-.025.257-.047.486-.303.48-.515-.005-.226-.2-.44-.48-.471-.244-.027-.495-.006-.752-.006v1.018zM21.231 26.943l.852-2.048c.088-.21.196-.412.26-.629.072-.242.25-.187.418-.2.175-.015.292.027.365.209.26.647.533 1.289.8 1.933l.3.725c-.474.1-.552.097-.682-.328-.13-.43-.371-.5-.782-.508-.47-.01-.767.072-.894.58-.087.348-.145.34-.637.266zm1.485-2.39c-.168.43-.315.81-.465 1.2h.945l-.48-1.2zM33.5 25.349v.334h-1.375c0 .3-.01.568.01.833.004.047.134.117.208.119.427.011.855.006 1.3.006v.315H31.64c-.006-.074-.02-.149-.02-.223-.001-.799.005-1.597-.005-2.395-.002-.199.044-.281.263-.275.551.015 1.103.005 1.676.005v.351c-.393 0-.786.009-1.178-.003-.191-.006-.265.047-.259.249.023.818-.114.667.676.683.227.005.454 0 .708 0zM51.215 24.103c.552-.03 1.092-.113 1.623.056.416.132.584.351.59.733.008.434-.163.704-.562.848-.18.065-.37.116-.558.14-.19.024-.384.005-.61.005v1.07h-.483v-2.852zm.485 1.45c.308-.04.602-.05.88-.12.24-.063.359-.276.344-.523-.013-.227-.144-.405-.375-.442-.276-.045-.56-.05-.85-.072v1.157zM44.067 26.64h1.501v.316h-1.99v-2.87h1.912v.332h-1.44c0 .282-.011.534.01.784.004.054.123.135.194.14.306.015.614.017.92.003.247-.01.323.08.227.34h-1.335v.955zM65.651 26.644h1.502v.314c-.08.005-.149.014-.217.014H65.16v-2.888h1.914v.332h-1.438c0 .28-.011.541.01.799.004.05.13.123.204.127.298.015.597.016.895.004.238-.01.33.07.232.34H65.65v.958h.001zM61.277 26.582c.346.042.654.098.964.108a.791.791 0 00.416-.128c.247-.152.257-.468.017-.633-.155-.106-.347-.154-.518-.24-.24-.12-.488-.227-.706-.379-.325-.224-.279-.802.156-1.06.397-.234 1.152-.252 1.6-.032-.022.216-.072.351-.356.269a1.954 1.954 0 00-.673-.048c-.21.015-.4.13-.418.366-.017.227.165.335.348.41.234.096.477.17.71.268.454.192.651.588.498.986-.137.354-.441.507-.779.538a4.472 4.472 0 01-1.041-.039c-.361-.052-.36-.086-.218-.386zM8.41 24.2l-.126.311c-.257-.032-.495-.07-.734-.088-.102-.007-.226 0-.303.054-.119.081-.276.203-.286.317-.01.118.11.297.224.363.224.128.487.187.728.292.303.131.585.29.606.68.027.491-.254.824-.83.882a4.368 4.368 0 01-1.04-.046c-.35-.05-.358-.104-.185-.382.328.04.637.102.947.107a.857.857 0 00.457-.159.357.357 0 000-.583c-.153-.108-.338-.173-.512-.25-.184-.081-.381-.135-.554-.233-.25-.143-.4-.356-.375-.668.022-.289.19-.464.43-.577.504-.234 1.011-.192 1.553-.02zM17.45 24.23l-.111.237c-.407 0-.795-.049-1.165.011-.62.101-.981.581-.934 1.138.053.632.484 1.055 1.136 1.076.312.011.625-.033.964-.055l.121.292c-.83.153-1.617.26-2.305-.297-.658-.532-.584-1.696.112-2.177.602-.416 1.564-.525 2.181-.226v.001zM40.546 26.956v-2.535c-.308 0-.586-.002-.864.001-.133.002-.243.001-.24-.185.005-.18.11-.19.245-.19.72.001 1.439.01 2.158-.005.273-.005.315.112.248.365h-1.047v2.549h-.5zM25.811 24.084c.092-.006.169-.008.245-.017.181-.022.245.051.242.236-.009.683.006 1.367-.009 2.05-.005.232.061.304.295.293.4-.02.801-.006 1.218-.006l.017.307H25.81v-2.863zM19.578 26.959h-.474c-.006-.086-.016-.169-.016-.252 0-.788.004-1.576-.003-2.364-.002-.19.028-.287.255-.283.21.003.243.085.241.266-.007.867-.003 1.733-.003 2.632zM59.056 24.075h.45v2.884h-.45v-2.884z"/></svg>