<svg xmlns="http://www.w3.org/2000/svg" fill="none" viewBox="0 0 11 11"><g fill="#000" clip-path="url(#a)"><path d="M5.338.969c1.336 0 1.494.006 2.02.029.488.022.751.104.927.172.233.09.4.2.574.373.176.176.284.342.373.574.069.176.15.442.172.928.024.527.03.685.03 2.02s-.006 1.494-.03 2.019c-.021.488-.103.752-.172.928-.09.232-.199.4-.373.574a1.538 1.538 0 01-.574.373c-.176.068-.441.15-.928.172-.527.023-.685.03-2.02.03s-1.493-.007-2.019-.03c-.488-.022-.752-.104-.927-.172-.233-.09-.4-.2-.575-.373a1.538 1.538 0 01-.373-.574c-.068-.176-.15-.442-.172-.928-.023-.527-.029-.686-.029-2.02 0-1.335.006-1.494.03-2.02.021-.487.103-.751.171-.927.09-.232.2-.4.373-.574.176-.176.342-.283.575-.373.175-.068.441-.15.927-.172.526-.023.684-.03 2.02-.03zm0-.9c-1.358 0-1.527.005-2.06.029C2.745.12 2.38.207 2.063.33a2.44 2.44 0 00-.886.578 2.45 2.45 0 00-.578.885c-.123.318-.21.682-.233 1.213-.023.535-.03.705-.03 2.062 0 1.358.007 1.528.03 2.06.024.532.11.897.233 1.214.129.33.298.61.578.887.277.277.556.449.885.576.318.123.681.209 1.212.232.534.023.704.03 2.06.03 1.358 0 1.528-.007 2.061-.03.532-.023.897-.11 1.213-.232.329-.127.608-.3.885-.576.277-.278.45-.557.576-.885.123-.319.21-.682.233-1.213.023-.533.029-.703.029-2.06 0-1.358-.006-1.528-.03-2.061-.023-.531-.109-.897-.232-1.213a2.342 2.342 0 00-.572-.889 2.444 2.444 0 00-.885-.576C8.295.209 7.932.123 7.4.1 6.865.074 6.695.068 5.338.068z"/><path d="M5.338 2.5a2.569 2.569 0 10.001 5.138A2.569 2.569 0 005.338 2.5zm0 4.234a1.666 1.666 0 110-3.332 1.666 1.666 0 010 3.332zM8.607 2.398a.6.6 0 11-1.2 0 .6.6 0 011.2 0z"/></g><defs><clipPath id="a"><path fill="#fff" d="M0 0h10v10H0z" transform="translate(.338 .068)"/></clipPath></defs></svg>