<svg xmlns="http://www.w3.org/2000/svg" fill="none" viewBox="0 0 52 16"><path fill="#000" d="M23.086 7.056c0-3.082.962-4.809 3.472-4.809.71-.01 1.412.159 2.04.49l-.258 1.721a4.537 4.537 0 00-1.695-.358c-.84 0-1.32.302-1.32 2.166V7.77c0 2.024.516 2.41 1.32 2.41a3.693 3.693 0 001.665-.487l.417 1.636a4.355 4.355 0 01-2.225.603c-2.468-.011-3.416-1.847-3.416-4.876zM40.984.681l.412 1.636v5.997a2.104 2.104 0 01-.976.202c-.602 0-.863-.345-.863-1.191V.68H37.01l.41 1.636v4.504c0 2.583 1.162 3.362 2.454 3.362a3 3 0 001.163-.202l.56-.933.443.964h1.494V.681h-2.55zM11.864 2.407l.411 1.637v5.996a2.105 2.105 0 01-.975.202c-.602 0-.863-.345-.863-1.191V2.407H7.89l.412 1.637v4.505c0 2.581 1.163 3.363 2.455 3.363.396.01.791-.058 1.163-.199l.56-.933.443.961h1.493V2.407h-2.552zM18.51 11.747l-.4-1.64V4.111c.305-.144.64-.213.977-.202.603 0 .86.345.86 1.191v6.647h2.55l-.411-1.64V5.604c0-2.583-1.163-3.362-2.455-3.362a3.015 3.015 0 00-1.163.202l-.56.933-.446-.961H15.97v9.342l2.541-.011zM47.908.681H44.67l.412 1.636v6.067l-.412 1.628h2.55V7.294h.704c1.992 0 3.14-1.003 3.14-3.298S49.918.681 47.909.681zm.933 3.744c0 1.02-.258 1.305-.99 1.305h-.646V2.388h.608c.745 0 1.017.257 1.017 1.25l.011.787zM4.183 2.407H.943l.413 1.637v6.066l-.412 1.64h2.55V9.022h.703c1.995 0 3.141-1.006 3.141-3.301S6.192 2.407 4.183 2.407zm.933 3.744c0 1.02-.26 1.306-.992 1.306H3.48v-3.33h.62c.744 0 1.019.258 1.019 1.25l-.003.774zM35.872 4.044l.412-1.637H33.34l.41 1.637v2.079H31.84v-2.08l.412-1.636H29.29l.412 1.637v6.066l-.412 1.64h2.962l-.412-1.64V7.846h1.908v2.264l-.409 1.64h2.945l-.412-1.64V4.044zM36.284 13.467H.944v1.718h35.34v-1.718z"/><path fill="#000" d="M50.813 11.747H36.284v1.723h14.53v-1.723z"/></svg>