<svg xmlns="http://www.w3.org/2000/svg" viewBox="0 0 30 30"><path d="M12.75 11.475a.484.484 0 00-.45.45V15.3c0 .225.225.45.45.45s.45-.225.45-.45v-3.375a.484.484 0 00-.45-.45zm3.975 0a.484.484 0 00-.45.45v2.025L14.7 11.775c-.075-.15-.3-.225-.525-.15a.506.506 0 00-.3.45v3.3c0 .225.225.45.45.45s.45-.225.45-.45v-1.95L16.35 15.6c.075.15.225.15.375.15h.15c.15-.075.3-.225.3-.45v-3.375c-.075-.225-.225-.45-.45-.45zm-5.25 3.375h-1.2v-2.925a.484.484 0 00-.45-.45.484.484 0 00-.45.45V15.3c0 .225.225.45.45.45H11.4c.225 0 .45-.225.45-.45s-.075-.45-.375-.45zm8.85-.075H18.6v-.825h1.35c.225 0 .45-.225.45-.45a.484.484 0 00-.45-.45H18.6v-.825h1.65c.225 0 .45-.225.45-.45a.484.484 0 00-.45-.45h-2.1a.484.484 0 00-.45.45v3.3c0 .225.225.45.45.45h2.175c.225 0 .45-.225.45-.45s-.225-.3-.45-.3z"/><path d="M15 0C6.75 0 0 6.75 0 15s6.75 15 15 15 15-6.75 15-15S23.25 0 15 0zm7.725 18.225c-1.2 1.5-6.45 5.025-7.65 5.775-.525.3-1.125-.075-1.125-.675v-1.8c-2.925-.15-8.175-2.7-8.175-7.8 0-5.25 5.25-7.8 9.3-7.8 4.35 0 9.3 2.85 9.3 7.8-.075 1.35-.45 3-1.65 4.5z"/></svg>