<svg xmlns="http://www.w3.org/2000/svg" fill="none" viewBox="0 0 11 11"><g clip-path="url(#a)"><path fill="#000" d="M3.484 9.131c3.772 0 5.837-3.126 5.837-5.837 0-.087-.002-.177-.006-.265.401-.29.748-.65 1.023-1.062a4.045 4.045 0 01-1.178.322c.428-.257.749-.66.902-1.135a4.124 4.124 0 01-1.302.498 2.054 2.054 0 00-3.497 1.871 5.827 5.827 0 01-4.228-2.142 2.054 2.054 0 00.635 2.738 2.054 2.054 0 01-.93-.256v.025A2.05 2.05 0 002.386 5.9a2.04 2.04 0 01-.925.035 2.056 2.056 0 001.915 1.426 4.115 4.115 0 01-3.038.849 5.82 5.82 0 003.146.921z"/></g><defs><clipPath id="a"><path fill="#fff" d="M0 0h10v10H0z" transform="translate(.338 .068)"/></clipPath></defs></svg>