<svg xmlns="http://www.w3.org/2000/svg" fill="none" viewBox="0 0 40 42"><g clip-path="url(#a)"><path fill="#fff" d="M37.803 11.436H2.188v28.313h35.615V11.436z"/><path fill="#fff" d="M22.569 32.177c-.39.413-.773.83-1.145 1.256.75.584 1.503 1.166 2.258 1.746h13.164v-3.002H22.567h.002zM36.845 26.639v-3.07h-6.031c.022.145.032.293.032.438v.087h-.002c-.027.368-.219.71-.403 1.005a5.706 5.706 0 01-.176.264c-.041.057-.095.117-.1.14-.038.109-.048.24-.066.375-.035.251-.038.585-.338.76H36.845z"/><path fill="#EC1C24" d="M36.846 23.569v-3.962h-8.182c.015.104.024.207.024.313 0 .27-.046.542-.134.795.534.318.958.826 1.029 1.45.513.125.93.448 1.115.943.055.15.092.305.114.46h6.034zM23.682 35.18l.306.238c.02.014 1.89 1.707 4.016 3.634h8.843v-3.871H23.682z"/><path fill="#2B388F" d="M23.47 30.68l-.467.97.05.01-.146.156-.34.361h14.278v-5.54h-7.082a.832.832 0 01-.075.037c-.199.084-.382.137-.519.265-.114.106-.227.21-.342.314-.239.218-.492.429-.7.663-.21.233-.511.38-.762.53-.32.189-.637.377-.945.58l-.089.059-.058-.221-.471.335-.57.447-.62.335-.77.363-.371.335v.002z"/><path fill="#fff" d="M28.866 26.666l.09-.042c.14-.064.279-.113.388-.164a.37.37 0 00.15-.111c.026-.036.071-.252.098-.45.034-.208.05-.39.104-.497.217-.289.654-.946.651-1.332v-.048c-.006-.453-.067-1.36-1.056-1.55l-.035.137-.039.015s-.284.103-.522.239a.71.71 0 01.12.335c.004.064-.029.145-.093.176l-.025.013-.025-.008c-.249-.08-.48-.363-.721-.657l-.033-.04.02-.05c.04-.124.137-.198.234-.195.158.006.303.136.425.285.183-.166.405-.372.534-.493-.042-.32-.233-.83-.868-1.196l-.039.09-.037.008s-.167.037-.355.097l.013.032s-.046.029-.116.055l.125 6.296c.305-.297.862-.793 1.017-.945h-.005zm-.39-.084l-.323.41-.018-1.213.36.503.379-.133.06.158-.459.275zm1.312-3.676c.293.084.367.35.361.516 0 .108-.02.184-.022.189l-.149-.042c.005-.03.01-.058.01-.08.007-.241-.256-.426-.26-.426l.06-.158v.001zM28.12 19.717v.007l-.149.04a.84.84 0 00-.288-.456l.024 1.188c.064-.05.178-.152.32-.32l.124.097-.15.349-.018.043-.041.005-.23.026.006.329c.17-.116.343-.239.45-.315v-.003c.087-.213.236-.65.236-1.09a1.37 1.37 0 00-.178-.718l.005-.004-.22-.223-.026-.026a.771.771 0 00-.317-.113l.009.475c.33.201.428.645.441.709h.002zM4.418 20.492v.01l-.15-.034s.114-.828.783-.85l.003-.377a1.629 1.629 0 00-.168-.003h-.002a.965.965 0 00-.45.108l-.006.008-.037.045-.248.252-.036.056a1.4 1.4 0 00-.128.598c0 .463.178.932.277 1.148.151.099.434.281.652.418l.07.03a.322.322 0 00.055-.007l.016-2.079c-.166.065-.54.252-.63.674l-.001.003zm.304.93l-.242-.017-.043-.003-.181-.386.121-.101c.225.25.384.343.386.343l-.04.163v.002zM4.945 22.787c-.064 0-.093-.089-.093-.116a.37.37 0 01.02-.108c.056-.211.11-.344.152-.423l-.23-.08a.713.713 0 01-.194-.071l.012-.033c-.191-.053-.358-.08-.358-.08l-.039-.007-.017-.038-.024-.05c-.622.392-.796.91-.827 1.233.132.115.361.311.55.47.118-.16.262-.297.424-.302.094-.003.187.068.232.184l.02.05-.032.042c-.229.303-.452.596-.697.685l-.027.01-.025-.012c-.07-.029-.104-.116-.101-.182a.718.718 0 01.108-.329 3.887 3.887 0 00-.53-.216l-.04-.013-.013-.043-.028-.092c-.904.211-.997.99-1.003 1.473 0 .058.003.113.004.16.01.392.47 1.029.697 1.31l-.056.056.064-.049c.05.094.074.276.114.482.036.199.086.413.113.445.021.033.078.071.156.105.101.044.235.087.39.15.03.01.06.023.092.037l-.009.026.012.011.018-.024c.177.163 1.003.839 1.197 1.047l.046-5.742a.245.245 0 01-.08.034h.002zm-2.414 1.509c0 .027.003.058.012.09l-.146.052s-.031-.095-.031-.214a.505.505 0 01.345-.507l.062.155s-.25.189-.244.422l.002.002zm1.632 3.038l-.466-.255.053-.161.384.117.342-.516.023 1.211-.336-.396z"/><path fill="#000" d="M4.377 20.917l-.122.101.182.386.043.003.242.017.04-.162s-.16-.094-.385-.344v-.001zM4.135 27.035l-.385-.117-.054.16.467.256.338.396-.026-1.21-.34.515zM5.596 24.164l-.003-.002H5.59l-.075.147s1.86 1.269 3.254 2.206l.04-.075-.031.08 1.13.548.067-.155-4.379-2.75zM7.153 23.056L10.28 26.4l.113-.116-.836-1.151-.06.053.046-.07c-.953-.796-2.095-1.984-2.268-2.163l-.022-.024-.106.124.003.003h.002zM4.266 20.467l.15.034v-.01c.089-.42.464-.61.63-.674.05-.02.082-.027.082-.03l-.01-.17c-.018 0-.038-.003-.058-.003h-.01c-.67.02-.783.848-.784.85v.003zM2.366 24.224c0 .12.028.207.03.214l.147-.052a.337.337 0 01-.012-.09c-.008-.234.244-.42.244-.422l-.063-.155a.502.502 0 00-.345.506l-.001-.002zM10.884 31.33l-.875-.717-.097.134s.225.224.458.505c.22.258.445.58.492.765l.008.038.15-.034-.003-.013-.133-.676v-.001zM12.343 25.223s.244.637.241.966c0 .044-.004.08-.012.108l.147.05.003-.01.125-.482-.365-.71-.137.078h-.002zM27.982 20.667l.018-.044.15-.348-.125-.097c-.14.17-.256.27-.32.32-.034.027-.055.04-.055.041l.047.16h.013l.229-.027.041-.005h.002zM28.494 26.282l-.36-.503.019 1.213.322-.41.458-.277-.06-.158-.379.135zM22.713 26.563l.007-.005 1.102-.593-.033-.078.042.073c1.332-.976 3.1-2.288 3.174-2.343h.002l-.082-.145h-.003s-.002 0-.005.003l-4.278 2.936.073.152h.001zM25.33 22.432l-.11-.12-.005.006c-.082.093-1.24 1.404-2.208 2.28l.048.066-.061-.052L22.2 25.8l.117.112 3.012-3.481v.001zM27.973 19.765l.148-.04v-.006c-.013-.063-.111-.507-.441-.71a.672.672 0 00-.35-.1c-.028 0-.059 0-.09.007l-.005.169s.24.052.45.226c.124.103.24.25.288.456v-.002zM29.987 23.49c0 .022-.003.05-.009.08l.149.042s.022-.082.022-.188c.006-.166-.068-.432-.361-.516l-.06.158s.265.185.26.425v-.001zM21.925 31.585v-.003l.006-.034c.085-.403.905-1.306.905-1.307l-.1-.13-.007.004-.844.75-.109.675-.003.02.152.027v-.003.001zM20.077 24.754l-.34.724.01.035.134.45v.003l.144-.058s0-.006-.002-.008v-.008a.384.384 0 01-.015-.12c-.001-.334.209-.944.209-.945l-.14-.071v-.002zM12.117 21.786c.3.495.605 1.32.605 2.642l.152.011.257-2.131-1.493-1.666-.175.449.065.037s.289.161.59.658h-.001zM19.727 23.701c.054-1.32.391-2.13.711-2.609.32-.48.616-.622.616-.627l.065-.034-.027-.076-.09-.264-.04-.116-1.557 1.59.17 2.14.152-.002V23.7z"/><path fill="#2B388F" d="M23 31.658l.004-.008c-.026-.005-.03-.003-.004.008z"/><path fill="#000" d="M1.138 1.207v16.195h.009v23.567h37.517v-.479h.003V1.207H1.137zM5.764 28.98c-.343-.186-.701-.39-.774-.476l-.01-.011c-.195-.206-1.02-.884-1.197-1.046l-.018.024-.012-.012.009-.025a1.13 1.13 0 00-.092-.04c-.154-.06-.289-.102-.39-.146a.371.371 0 01-.156-.105c-.027-.032-.079-.246-.113-.445-.04-.206-.064-.388-.115-.482l-.063.049.056-.057c-.226-.28-.685-.917-.697-1.309a2.621 2.621 0 01-.005-.16c.006-.483.101-1.262 1.004-1.473l.028.092.012.043.04.013s.289.09.53.216a.718.718 0 00-.108.33c-.004.065.03.152.101.181l.026.012.026-.01c.246-.089.469-.382.698-.685l.032-.042-.02-.05c-.046-.118-.139-.187-.232-.184-.162.006-.307.143-.424.301a36.253 36.253 0 01-.55-.469c.03-.322.205-.841.827-1.233l.023.05.018.038.039.007s.166.029.358.08l-.012.033s.079.045.193.07l.23.081c-.04.08-.096.212-.152.423a.44.44 0 00-.02.108c0 .027.03.116.094.116a.22.22 0 00.079-.034c.086-.056.158-.168.294-.318.16-.19.366-.436.585-.664.344-.379.573-.52.605-.716-.014-.125-.113-.132-.179-.132-.077 0-.183.015-.328.042-.326.07-.436.456-.461.542-.173.277-.354.367-.51.39a.721.721 0 01-.055.006c-.021-.01-.045-.019-.07-.029-.219-.137-.503-.319-.653-.417-.098-.218-.276-.686-.276-1.148 0-.208.038-.413.128-.598l.035-.057.249-.251.037-.045v-.005s.004-.004.006-.004a.95.95 0 01.45-.108h.002l.044-.001c.039 0 .08.001.124.005.238.012.536.064.924.148l.076.018.014-.087v-.005l.285.272.18.19.274.376.26.339.038-.003c.79-.076.836-.702.836-.72v-.051l-.625-.416-.011.135c-.008.116-.097.382-.15.539a2.254 2.254 0 00-.256-.271l-.116-.123-.473-.354-.112-.07a3.749 3.749 0 00-.098-.066c.048-.308.097-.53.674-.841.062-.005.148-.01.245-.01.303-.003.726.047.898.213h.002c.023.02.038.032.038.035.106.102.186.215.256.305l.007.011h.002c.06.074.102.142.196.155.186.165 1.578 1.437 2.165 2.8l.082.19.224-.742-.036-.037S9.49 19.74 8.794 18.958c.085.01.173.027.25.053.216.07 2.42.951 2.92 1.23.376.208 1.018.655 1.308 1.074.1.148.15.275.153.38v.046c0 .62-.218 3.08-.244 3.4-.008.13-.041.458-.041.838 0 .175.006.363.027.549.043.409.142.815.382 1.067.35.366 1.362 1.108 2.364 1.878a56.882 56.882 0 01-2.596 2.353c-.604.517-1.212 1.033-1.821 1.55-.467-.493-.766-.775-1.023-1.018a18.803 18.803 0 01-.323-.311s-.003-.002-.004-.005c-.467-.47-.525-.813-.733-1.016-.171-.155-.452-.27-.596-.324h-.003l-.014-.007a.567.567 0 00-.055-.017c-.083-.023-.684-.207-.932-.413-.001 0-.003 0-.004-.003l-.008-.007c-.17-.143-.523-.37-.858-.579l-.038-.025c-.043-.026-.087-.052-.127-.078-.02-.011-.038-.024-.056-.035l-.2-.121-.115-.071c-.112-.068-.272-.155-.446-.25l-.195-.105-.002-.011zm2.734 1.954l-.175-.079c.082.026.13.047.175.079zm-2.242 8.118c1.014-1.032 2.1-2.117 3.21-3.199l.058-.056c.648-.63 1.303-1.256 1.954-1.869l.052-.048.159-.15.004-.005.006-.007.283-.282-.232.199c.168-.142.334-.287.502-.43a79.15 79.15 0 013.042-2.679c.128-.106.26-.22.394-.338.177-.165.35-.33.524-.497l.016.011.044-.042.035-.032.041-.04.061-.058.05-.047a41.575 41.575 0 002.17-2.2l.001-.003c.182-.206.323-.507.436-.835l.006-.1.031-.148.11-.314.11-.46a3.79 3.79 0 00.061-.575c0-.033 0-.06-.004-.083l-.076.01.076-.011c-.036-.325-.357-2.903-.363-3.433l-.046-.005h.046c0-.106.049-.242.141-.382.274-.43.9-.904 1.27-1.129.487-.3 2.661-1.273 2.875-1.352.076-.03.162-.05.247-.065-.67.811-1.979 2.3-1.98 2.303l-.036.04.25.73.074-.19c.541-1.39 1.895-2.723 2.068-2.893.09-.017.13-.087.187-.16l.003-.004a.03.03 0 01.006-.008c.067-.095.143-.211.237-.308.008-.01.023-.023.047-.045.198-.207.751-.26 1.045-.256l.091.001c.586.285.644.508.702.813l-.098.074-.1.066-.456.368-.118.133c-.1.099-.184.195-.251.287-.06-.153-.158-.417-.17-.533l-.016-.136-.611.445.003.052c0 .018.07.64.86.682h.038l.247-.345.267-.397.17-.193.272-.282v.004l.016.086.076-.02c.482-.125.827-.195 1.09-.2h.027c.065 0 .123.005.18.014a.77.77 0 01.316.112l.027.026.22.223-.006.005c.13.216.177.464.178.717 0 .44-.15.877-.235 1.09v.003l-.45.315-.187.128-.069.033c-.168 0-.374-.068-.578-.371-.028-.084-.153-.464-.479-.52a2.36 2.36 0 00-.3-.028c-.082.005-.181-.007-.204.134.035.2.27.327.63.693.227.218.438.455.606.638.181.184.257.311.383.337.063 0 .093-.085.093-.114a.385.385 0 00-.021-.115 2.03 2.03 0 00-.168-.416l.003-.001.224-.089a.435.435 0 00.073-.024.563.563 0 00.116-.055l-.013-.032c.188-.06.355-.095.355-.097l.037-.008.039-.09c.635.364.826.875.868 1.196-.128.121-.35.327-.534.493-.122-.15-.267-.278-.425-.285-.097-.003-.195.071-.235.195l-.02.05.034.04c.24.294.474.578.72.657l.026.008.025-.013c.064-.03.097-.111.094-.176a.71.71 0 00-.12-.335c.237-.136.521-.237.521-.239l.039-.014.036-.137c.988.188 1.05 1.094 1.055 1.549v.048c.003.386-.434 1.044-.651 1.332-.052.107-.07.289-.104.497-.028.198-.072.416-.098.45a.37.37 0 01-.15.11c-.109.052-.247.1-.388.164l-.09.042c-.154.15-.712.648-1.017.944a3.065 3.065 0 00-.17.178c-.069.087-.427.313-.768.513l-.181.11c-.17.1-.327.194-.436.267l-.21.14-.106.071a.354.354 0 00-.036.024l-.14.094s-.003 0-.004.003c-.335.227-.698.479-.871.639-.243.22-.84.432-.922.456l-.055.02-.014.007c-.142.062-.42.19-.587.353-.2.21-.247.556-.696 1.045l-.004.005c-.015.016-.024.027-.033.035l-.278.286a24.83 24.83 0 00-1.219 1.332l-.046.054-.06.07-.032.038-.028.033-.017.019-.064.074-.038.045-.061.073.004.003c-.007.01-.015.018-.024.028-1.208 1.443-2.88 3.737-4.094 5.423h-10.4v.018zm10.86 0c1.049-1.477 2.118-2.944 3.254-4.363.227-.285.46-.564.697-.842.677.583 1.395 1.198 2.325 1.993l.043.037c.955.815 2.134 1.822 3.713 3.175H17.115zM36.846 23.57v15.483h-8.843c-2.126-1.927-3.996-3.62-4.016-3.634l-.306-.237c-.755-.58-1.507-1.163-2.258-1.746a41.81 41.81 0 011.145-1.256c.113-.121.224-.242.34-.361.05-.052.097-.105.146-.157-.008 0-.015-.003-.021-.005l.24-.306.343-.624.269-.302.464-.18.623-.363.511-.282.849-.513v.005l.09-.058c.307-.203.624-.392.943-.58.252-.15.552-.297.763-.53.208-.235.46-.444.7-.663.115-.105.23-.209.342-.315.137-.127.318-.18.519-.264a.843.843 0 00.074-.037c.3-.174.304-.508.338-.76.018-.135.026-.266.065-.374.006-.024.06-.084.101-.14.061-.087.12-.176.176-.265.183-.295.376-.636.403-1.004h.004v-.087c0-.147-.012-.294-.033-.439a2.369 2.369 0 00-.114-.46c-.184-.497-.602-.818-1.115-.944-.072-.624-.495-1.132-1.029-1.45.088-.254.134-.525.134-.794 0-.054-.003-.107-.008-.158l-.013-.131-.004-.023h8.183v3.962l-.005-.008z"/><path fill="#EC1C24" d="M10.983 16.858l-.564-2.036H6.68l-.597 2.036H2.958L7.38 3.18h2.305l4.421 13.68h-3.125.002zM8.61 8.366l-1.093 3.65h2.117L8.61 8.367z"/><path fill="#fff" d="M20.725 16.973c-1.417 0-2.493-.539-3.38-1.537-1.28-1.441-1.23-3.361-1.23-5.417 0-2.056-.05-3.978 1.23-5.418.887-1 1.963-1.536 3.38-1.536 2.305 0 4.166 1.441 4.61 4.456h-3.038c-.188-.769-.564-1.46-1.554-1.46-.545 0-.956.25-1.177.575-.274.403-.461.884-.461 3.381 0 2.498.187 2.978.46 3.381.222.328.633.576 1.178.576.99 0 1.366-.692 1.554-1.46h3.039c-.445 3.016-2.305 4.456-4.61 4.456v.003z"/><path fill="#EC1C24" d="M33.882 6.177v10.681h-2.988V6.177h-2.988V3.179h8.963v2.998h-2.988.001z"/></g><path stroke="#fff" stroke-width=".5" d="M.853.75h38.214v40.5H.853z"/><defs><clipPath id="a"><path fill="#fff" d="M1.103 1h37.714v40H1.103z"/></clipPath></defs></svg>