<svg xmlns="http://www.w3.org/2000/svg" fill="none" viewBox="0 0 34 36"><g clip-path="url(#a)"><path fill="#fff" d="M32.359 9.59H1.195v24.773H32.36V9.59z"/><path fill="#fff" d="M19.029 27.738c-.34.361-.676.727-1.002 1.099.657.51 1.316 1.02 1.976 1.528h11.518v-2.627H19.028h.001zM31.521 22.892v-2.686h-5.277c.02.127.028.257.028.384v.076h-.002c-.024.321-.191.62-.353.879-.05.077-.099.155-.153.231-.037.05-.084.102-.089.123-.032.094-.041.209-.057.327-.03.22-.032.512-.295.665h6.197l.001.001z"/><path fill="#EC1C24" d="M31.521 20.206V16.74h-7.159c.013.09.021.18.021.273 0 .236-.04.474-.117.696.467.278.838.722.9 1.268.45.11.815.392.976.825.048.131.08.267.1.404h5.279zM20.003 30.366l.268.208c.017.012 1.654 1.494 3.514 3.18h7.738v-3.388H20.003z"/><path fill="#2B388F" d="M19.819 26.429l-.41.848.044.008-.127.137c-.1.104-.198.21-.298.316H31.52v-4.847h-6.197a.73.73 0 01-.065.032c-.174.073-.334.12-.454.231-.1.094-.199.185-.3.276-.209.19-.43.375-.612.58-.185.204-.447.332-.667.463-.28.166-.557.33-.826.508l-.078.051-.051-.193-.413.293-.499.391-.543.294-.672.317-.325.293v.002z"/><path fill="#fff" d="M24.54 22.916c.027-.014.053-.026.078-.037.123-.056.244-.099.34-.144a.325.325 0 00.13-.097c.024-.031.063-.22.086-.394.03-.182.045-.341.091-.434.19-.253.573-.828.57-1.165v-.043c-.005-.396-.058-1.19-.923-1.356l-.032.12-.033.013s-.249.09-.457.209c.06.099.103.197.105.293.003.057-.026.127-.082.154l-.022.011-.022-.007c-.217-.069-.42-.317-.63-.574l-.03-.035.018-.044c.036-.109.12-.173.205-.17.138.005.266.118.372.25.16-.146.354-.327.467-.433-.036-.28-.204-.726-.76-1.046l-.033.079-.033.007s-.146.032-.31.084l.01.029s-.04.025-.1.047l.109 5.51c.266-.26.754-.694.89-.827h-.004zm-.342-.073l-.283.358-.015-1.061.314.44.332-.117.052.138-.4.242zm1.148-3.217c.256.073.322.306.316.451 0 .095-.018.161-.02.165l-.13-.036c.005-.027.008-.051.008-.07.007-.211-.223-.373-.226-.373l.052-.139v.002zM23.886 16.835v.006l-.13.035a.735.735 0 00-.252-.399l.02 1.04c.056-.044.157-.133.28-.28l.11.085-.132.305-.015.038-.037.004-.2.023.005.288c.148-.102.3-.21.393-.276v-.002a2.68 2.68 0 00.207-.954c0-.22-.042-.439-.157-.628l.006-.004-.193-.195-.023-.022a.673.673 0 00-.277-.1l.008.416c.288.176.374.564.386.62h.001zM3.146 17.514V17.523l-.13-.03s.1-.725.685-.744l.002-.33a1.472 1.472 0 00-.108-.004c-.013 0-.026 0-.039.002h-.001a.842.842 0 00-.394.094l-.005.007-.033.04-.217.22-.031.049c-.078.164-.111.341-.112.523 0 .405.156.816.242 1.005.132.086.38.245.57.365l.062.026a.282.282 0 00.048-.006l.014-1.818c-.145.056-.473.22-.551.59l-.002.002zm.267.814l-.212-.015-.038-.003-.158-.337.106-.09c.197.22.336.301.337.301l-.035.143v.001zM3.609 19.521c-.056 0-.082-.077-.082-.101 0-.031.006-.06.017-.095.049-.184.097-.3.134-.37l-.202-.07a.624.624 0 01-.17-.062l.011-.028c-.168-.047-.313-.07-.313-.07l-.034-.006-.016-.034-.02-.044c-.544.343-.697.797-.724 1.08.116.1.316.272.481.41.103-.14.23-.26.371-.264.082-.003.164.06.203.16l.018.045-.028.036c-.2.266-.396.522-.61.6l-.024.008-.022-.01c-.061-.025-.091-.101-.088-.159a.628.628 0 01.095-.288 3.407 3.407 0 00-.465-.189l-.035-.011-.01-.038-.025-.08c-.791.184-.873.866-.878 1.289 0 .05.002.099.004.14.009.342.41.9.61 1.145l-.05.05.056-.043c.045.082.065.242.1.422.032.174.076.361.1.39a.325.325 0 00.136.091c.088.038.206.076.34.131.027.009.054.02.081.033l-.007.022.01.01.016-.02c.155.142.878.733 1.047.915l.04-5.024a.214.214 0 01-.069.03h.002zm-2.113 1.321c0 .024.003.05.01.079l-.127.045s-.027-.083-.027-.188a.442.442 0 01.301-.442l.055.135s-.219.165-.213.37l.001.001zM2.924 23.5l-.408-.223.047-.141.335.103.3-.452.02 1.06-.294-.347z"/><path fill="#000" d="M3.112 17.885l-.107.089.159.337.037.003.212.015.035-.142s-.14-.082-.336-.3v-.002zM2.9 23.24l-.338-.104-.046.141.408.223.295.347-.022-1.06-.298.452zM4.178 20.726l-.003-.001h-.002l-.067.128s1.628 1.11 2.848 1.93l.035-.065-.027.07.989.48.058-.136-3.831-2.407v.001zM5.54 19.757l2.737 2.926.099-.101-.731-1.008-.052.047.039-.06c-.834-.698-1.833-1.738-1.984-1.894l-.02-.021-.092.108.003.003h.001zM3.014 17.491l.131.03v-.008c.078-.369.406-.534.552-.59.043-.017.071-.024.071-.025l-.009-.15c-.016 0-.032-.003-.05-.003h-.01c-.585.018-.684.742-.685.744v.002zM1.352 20.779c0 .105.024.181.027.187l.127-.045a.295.295 0 01-.01-.079c-.007-.205.213-.368.213-.37l-.054-.135a.44.44 0 00-.302.443l-.001-.002zM8.805 26.997l-.766-.627-.084.117s.196.196.4.441c.193.226.39.508.43.67l.007.033.132-.03-.003-.011-.116-.591v-.002zM10.082 21.653s.213.557.21.845c0 .038-.004.07-.01.095l.129.044.002-.009.11-.422-.32-.62-.12.067h-.002zM23.765 17.666l.016-.038.131-.305-.11-.084a1.832 1.832 0 01-.279.28c-.03.023-.048.034-.048.036l.04.14h.012l.2-.024.037-.005h.001zM24.214 22.58l-.315-.44.016 1.06.282-.357.401-.243-.052-.138-.332.118zM19.155 22.826l.006-.005.964-.519-.028-.067.036.063c1.166-.854 2.713-2.002 2.777-2.05h.002l-.072-.127h-.002s-.002 0-.004.003l-3.744 2.569.064.133zM21.445 19.211l-.096-.105-.004.005c-.072.082-1.085 1.229-1.932 1.995l.041.058-.053-.045-.695 1.04.103.097 2.636-3.046v.001zM23.758 16.878l.13-.035v-.006c-.012-.055-.098-.443-.387-.62a.588.588 0 00-.385-.083l-.004.148s.21.046.393.198c.11.09.21.219.253.4v-.002zM25.52 20.137a.38.38 0 01-.008.07l.13.037s.02-.072.02-.165c.005-.145-.06-.378-.316-.452l-.052.139s.232.162.226.372v-.001zM18.466 27.22v-.002l.005-.03c.074-.353.792-1.143.792-1.144l-.088-.115-.006.005-.738.656-.095.59-.003.018.133.024v-.003.001zM16.849 21.243l-.298.633.009.031.117.394v.003l.126-.051-.001-.007v-.007a.336.336 0 01-.013-.105c-.002-.293.182-.826.182-.828l-.122-.062v-.001zM9.884 18.645c.263.434.53 1.156.53 2.313l.132.01.225-1.865-1.306-1.458-.153.393.057.032s.252.141.516.575h-.001zM16.543 20.321c.047-1.155.342-1.863.622-2.282.28-.42.538-.545.538-.55l.058-.029-.024-.066-.08-.231-.034-.102-1.362 1.391.15 1.874.132-.003v-.002z"/><path fill="#2B388F" d="M19.406 27.284l.004-.007c-.023-.005-.027-.003-.004.007z"/><path fill="#000" d="M.277.64v14.17h.008V35.43h32.827v-.419h.003V.639H.277zm4.048 24.3c-.3-.162-.614-.341-.678-.416l-.009-.01c-.17-.18-.892-.773-1.047-.915l-.016.02-.01-.01.008-.022a.987.987 0 00-.08-.034c-.135-.053-.253-.09-.342-.128a.325.325 0 01-.136-.092c-.024-.028-.07-.215-.1-.389-.034-.18-.055-.34-.1-.422l-.055.043.05-.05c-.198-.245-.6-.803-.61-1.145a2.291 2.291 0 01-.005-.14c.005-.423.089-1.105.878-1.29l.025.08.01.039.036.011s.252.08.464.19a.629.629 0 00-.095.287c-.004.058.026.134.089.16l.022.01.023-.01c.215-.077.41-.333.61-.599l.029-.036-.018-.044c-.04-.103-.121-.164-.203-.16-.142.005-.268.125-.371.263a31.383 31.383 0 01-.481-.41c.026-.283.18-.737.723-1.08l.02.044.016.034.034.005s.146.026.314.07l-.01.03s.068.039.168.06l.202.072c-.036.069-.085.185-.134.37a.386.386 0 00-.017.094c0 .024.026.101.082.101a.194.194 0 00.069-.03c.075-.049.138-.146.258-.277.14-.167.32-.382.51-.581.303-.332.503-.455.53-.627-.011-.11-.099-.115-.156-.115-.068 0-.16.012-.287.036-.285.06-.382.4-.404.474-.15.243-.31.322-.446.342-.017.003-.032.004-.048.005a.92.92 0 00-.061-.025c-.191-.12-.44-.28-.571-.365-.086-.19-.242-.6-.242-1.005 0-.182.034-.361.112-.523l.03-.05.218-.22.033-.04v-.003l.005-.003a.83.83 0 01.394-.095h.001l.04-.001c.033 0 .07.001.107.004.208.011.47.056.81.13l.066.015.012-.076v-.004l.25.238.157.167.24.329.227.296.034-.003c.69-.066.73-.614.73-.63v-.044l-.546-.364-.01.118c-.007.102-.085.334-.132.471a1.972 1.972 0 00-.223-.237l-.102-.107-.413-.31-.098-.061a3.238 3.238 0 00-.086-.058c.042-.27.085-.464.59-.736.054-.004.13-.009.214-.009.265-.003.635.041.786.186h.001c.02.019.034.029.034.031.092.09.163.188.224.267l.006.01h.002c.052.065.09.124.171.136.163.143 1.38 1.256 1.894 2.45l.072.165.196-.649-.03-.032s-1.194-1.256-1.803-1.94c.074.01.151.024.219.046.189.063 2.118.833 2.555 1.077.329.182.89.573 1.145.94.087.13.131.24.134.332v.04c0 .543-.192 2.696-.214 2.975-.008.114-.036.4-.036.734 0 .152.005.317.023.48.038.358.125.713.335.933.306.32 1.191.97 2.068 1.644a49.848 49.848 0 01-2.271 2.058c-.529.453-1.06.905-1.594 1.356-.408-.43-.67-.677-.895-.89a15.86 15.86 0 01-.282-.272s-.003-.002-.004-.005c-.409-.41-.46-.71-.641-.888-.15-.136-.396-.237-.522-.284h-.003l-.011-.006a.523.523 0 00-.049-.015c-.072-.02-.598-.18-.815-.361-.002 0-.003 0-.004-.003l-.007-.006c-.148-.125-.458-.324-.75-.506l-.034-.023c-.038-.022-.076-.045-.11-.068l-.05-.03c-.057-.036-.116-.071-.174-.106-.037-.023-.07-.044-.102-.062-.097-.06-.238-.136-.39-.22l-.17-.09-.002-.01zm2.392 1.71l-.153-.069c.072.023.113.041.153.07zm-1.961 7.104c.887-.903 1.837-1.853 2.808-2.8l.051-.049c.567-.552 1.14-1.099 1.71-1.635l.045-.042.14-.132.003-.004.005-.005.247-.247-.203.173.44-.375a69.325 69.325 0 012.662-2.345c.112-.093.227-.193.345-.296.154-.144.305-.288.457-.434l.015.01.039-.037.03-.029.036-.035.053-.05.045-.041a36.412 36.412 0 001.898-1.925v-.003c.16-.18.283-.444.382-.73l.005-.088.028-.13.096-.275.096-.402c.035-.209.053-.386.053-.503 0-.029 0-.053-.004-.072l-.066.008.066-.01c-.03-.284-.312-2.54-.317-3.004l-.04-.004h.04c0-.093.043-.211.124-.334.24-.377.787-.791 1.11-.988.427-.262 2.33-1.114 2.517-1.183.066-.026.141-.044.215-.057a115.68 115.68 0 01-1.732 2.015l-.032.035.22.64.064-.167c.474-1.216 1.659-2.383 1.81-2.531.079-.016.114-.076.164-.14l.002-.004a.024.024 0 01.005-.007c.059-.083.125-.185.207-.27l.042-.04c.173-.18.657-.226.914-.223l.08.001c.512.25.563.444.614.711a2.69 2.69 0 01-.086.065l-.087.058-.4.321-.102.117a2.08 2.08 0 00-.22.252c-.052-.134-.138-.366-.149-.467l-.014-.119-.535.39.003.045c0 .015.061.56.752.596h.034l.216-.301.234-.348.148-.169.238-.247v.005l.014.074.067-.017c.421-.11.723-.17.953-.175h.024c.057 0 .108.005.157.012a.675.675 0 01.277.099l.024.022.192.195-.005.004c.113.189.155.406.156.628 0 .385-.131.767-.205.954v.002c-.095.067-.248.174-.395.275-.056.04-.111.078-.164.113l-.06.028c-.146 0-.327-.059-.505-.324-.025-.073-.134-.406-.42-.456a2.081 2.081 0 00-.262-.024c-.072.005-.159-.005-.178.117.03.175.235.287.551.607.198.19.383.398.53.559.159.16.225.272.335.295.055 0 .081-.075.081-.1a.337.337 0 00-.018-.1 1.782 1.782 0 00-.147-.365l.003-.001.196-.078a.387.387 0 00.064-.02.487.487 0 00.101-.049l-.012-.028c.166-.052.311-.083.311-.085l.033-.007.034-.079c.555.32.723.766.76 1.047-.112.106-.308.286-.468.432-.106-.131-.234-.244-.372-.25-.084-.003-.17.062-.205.17l-.017.045.028.035c.211.256.415.505.631.574l.023.007.022-.011c.056-.027.084-.098.082-.154a.62.62 0 00-.106-.294c.208-.118.457-.207.457-.208l.034-.013.03-.12c.866.165.92.958.924 1.356v.042c.003.337-.38.913-.57 1.166-.045.093-.06.252-.09.434-.025.174-.063.364-.086.394a.326.326 0 01-.132.096c-.095.046-.216.087-.34.143l-.077.037c-.136.131-.623.567-.89.827-.066.065-.12.12-.15.155-.06.076-.373.274-.67.449-.056.032-.108.065-.16.096a8.87 8.87 0 00-.38.234l-.185.122-.093.063c-.009.005-.018.01-.027.018l-.004.003-.122.082s-.003 0-.004.002c-.293.2-.61.42-.762.56-.212.192-.735.377-.807.398l-.048.019-.012.005c-.125.054-.368.167-.514.31-.175.183-.216.486-.608.914l-.004.004c-.013.014-.021.024-.03.03l-.242.25a21.71 21.71 0 00-1.067 1.166l-.04.048-.052.06-.029.034-.025.029-.014.016-.056.065-.034.04-.053.063.004.003a.32.32 0 01-.021.024c-1.058 1.263-2.52 3.27-3.583 4.746h-9.1v.016zm9.501 0a83.28 83.28 0 012.848-3.818c.199-.25.403-.494.61-.736.592.509 1.22 1.048 2.035 1.743l.037.033c.835.712 1.867 1.594 3.249 2.778h-8.779zm17.266-13.548v13.548h-7.738c-1.86-1.686-3.497-3.168-3.514-3.18l-.268-.208c-.66-.508-1.319-1.017-1.976-1.528.325-.372.66-.738 1.002-1.099.099-.105.196-.211.298-.316l.127-.136c-.006 0-.013-.003-.018-.005l.21-.268.3-.546.235-.264.406-.158.545-.317.448-.247.743-.449v.005l.078-.051c.27-.178.546-.343.826-.508.22-.131.482-.26.667-.464.182-.205.403-.388.613-.58l.3-.275c.119-.111.277-.158.453-.232.023-.01.044-.02.065-.032.263-.152.265-.444.295-.664.016-.119.024-.233.058-.328.005-.02.052-.073.088-.122.054-.077.104-.154.154-.232.16-.258.329-.557.352-.879h.004v-.076c0-.128-.01-.257-.029-.384a2.08 2.08 0 00-.1-.403c-.161-.435-.527-.715-.975-.825-.063-.546-.434-.99-.9-1.269a2.145 2.145 0 00.11-.833l-.012-.115-.004-.02h7.16v3.467l-.003-.007z"/><path fill="#EC1C24" d="M8.891 14.334l-.493-1.782H5.127l-.523 1.782H1.869L5.74 2.365h2.017l3.868 11.97H8.89h.001zm-2.076-7.43l-.956 3.194H7.71l-.896-3.194z"/><path fill="#fff" d="M17.416 14.434c-1.24 0-2.181-.471-2.958-1.344-1.12-1.262-1.076-2.942-1.076-4.74 0-1.8-.044-3.481 1.076-4.74.777-.876 1.718-1.345 2.958-1.345 2.016 0 3.645 1.26 4.034 3.9h-2.659c-.164-.674-.493-1.28-1.36-1.28-.477 0-.836.22-1.03.505-.239.352-.403.773-.403 2.958s.164 2.606.403 2.958c.194.287.553.504 1.03.504.867 0 1.196-.605 1.36-1.278h2.66c-.39 2.64-2.017 3.9-4.035 3.9v.002z"/><path fill="#EC1C24" d="M28.929 4.988v9.346h-2.615V4.988h-2.615V2.365h7.843v2.623h-2.615.002z"/></g><defs><clipPath id="a"><path fill="#fff" d="M0 0h33v35H0z" transform="translate(.246 .458)"/></clipPath></defs></svg>