<svg xmlns="http://www.w3.org/2000/svg" fill="none" viewBox="0 0 82 60"><path fill="#1F1F1F" d="M50.128 19.67a2.353 2.353 0 11-2.852-2.852 4.715 4.715 0 102.852 2.852"/><path fill="#1F1F1F" d="M45.687 15.663c4.658 0 8.794 2.227 11.405 5.675a14.274 14.274 0 01-11.405 5.675 14.275 14.275 0 01-11.405-5.675 14.275 14.275 0 0111.405-5.675zm0-3.74c-2.831 0-5.655.676-8.165 1.952a18.194 18.194 0 00-6.22 5.206l-1.71 2.257 1.71 2.257a18.196 18.196 0 006.22 5.206 18.092 18.092 0 008.165 1.951c2.831 0 5.655-.674 8.165-1.95a18.194 18.194 0 006.22-5.207l1.71-2.257-1.71-2.257a18.188 18.188 0 00-6.22-5.206 18.097 18.097 0 00-8.165-1.951z"/><path fill="#EC1C24" d="M22.176 37.306l-1.516-4.814H10.608L9 37.306H.602L12.487 4.953h6.199l11.892 32.353h-8.402zm-6.382-20.082l-2.94 8.634h5.693l-2.753-8.634z"/><path fill="#1F1F1F" d="M23.01 59.698l-2.067-1.358a1.861 1.861 0 01-.532-2.57l13.764-20.764a1.86 1.86 0 012.569-.53l2.067 1.357a1.86 1.86 0 01.532 2.569L25.58 59.166a1.86 1.86 0 01-2.57.532z"/><path fill="#1F1F1F" d="M50.298.44c2.8.7 5.403 1.687 7.749 3.214l-4.844 7.226c-3.043-2.017-6.308-2.681-9.799-1.993-3.542.698-6.31 2.553-8.306 5.564-1.996 3.01-2.66 6.276-1.967 9.793.699 3.542 2.553 6.311 5.538 8.312 2.984 2 6.25 2.665 9.793 1.966 3.542-.698 6.311-2.553 8.333-5.569l7.225 4.844c-1.585 2.33-3.567 4.303-5.942 5.943-2.375 1.64-5.022 2.735-7.96 3.315-5.878 1.16-11.33.054-16.325-3.295-4.995-3.349-8.088-7.972-9.248-13.85-1.16-5.877-.054-11.33 3.29-16.35 3.344-5.022 7.968-8.115 13.846-9.274 0 0 5.058-.736 8.617.153z"/><path fill="#EC1C24" d="M73.702 11.667v25.64h-7.667v-25.64h-10.93l4.64-7.196h21.617v7.196h-7.66zM73.567 46.639h-3.51v1.475h3.51v-1.475zM73.567 49.26h-3.51v10.098h3.51V49.26z"/><path fill="#EC1C24" d="M72.392 46.84h-1.316v1.272h1.317V46.84z"/><path fill="#EC1C24" d="M71.373 46.84h-1.316v1.272h1.316V46.84zM71.302 44.484H70.16v1.142h1.142v-1.142z"/><path fill="#EC1C24" d="M72.427 43.346h-1.142v1.14h1.142v-1.14zM73.568 42.205h-1.141v1.141h1.14v-1.14zM71.303 41.166h-1.14v1.14h1.14v-1.14z"/><path fill="#EC1C24" d="M73.568 44.484h-1.141v1.276h1.14v-1.276z"/><path fill="#EC1C24" d="M73.568 45.627h-1.141v1.14h1.14v-1.14z"/><path fill="#EC1C24" d="M72.722 45.627h-1.437v1.14h1.437v-1.14zM51.018 59.357L58.52 44.84h2.875l7.835 14.517h-3.934l-5.173-9.84-5.206 9.84h-3.9z"/><path fill="#EC1C24" d="M54.622 56.82h8.221l-1.92-3.511h-4.94l-1.36 3.512z"/></svg>