<svg xmlns="http://www.w3.org/2000/svg" fill="none" viewBox="0 0 113 23"><path fill="#ED2E7C" d="M23.028.188H.968v21.999h22.06v-22z"/><path fill="#fff" d="M6.574 3.249c.35.379.526.82.526 1.323v5.07h2.459a.391.391 0 00.306-.131c.044-.038.07-.142.07-.311V2.848h1.757v6.501c0 .48-.108.866-.325 1.161-.273.369-.716.554-1.324.554h-5.38V9.642h.7V5.868c-.028.005-.06.005-.094.005h-.085c-.44 0-.813-.148-1.121-.444a1.436 1.436 0 01-.474-1.097c0-.338.111-.66.33-.967.13-.175.267-.306.417-.401.152-.093.313-.154.487-.182.224-.023.387-.033.492-.033.547 0 .97.167 1.265.501h-.005l-.001-.001zM4.527 4.335c0 .09.016.171.054.25a.701.701 0 00.362.349c.081.035.163.05.249.05a.59.59 0 00.246-.05.697.697 0 00.356-.349.67.67 0 00.001-.517.6.6 0 00-.137-.215.618.618 0 00-.466-.202.661.661 0 00-.471.202.664.664 0 00-.194.482zM15.69 19.14v.81h-1.772v-8.463h1.772v3.143c.432-.58 1.026-1.008 1.946-1.008 1.455 0 2.842 1.136 2.842 3.21v.023c0 2.075-1.362 3.21-2.842 3.21-.944 0-1.525-.427-1.946-.926zm3.019-2.285v-.022c0-1.031-.7-1.717-1.527-1.717s-1.516.686-1.516 1.717v.022c0 1.03.687 1.717 1.516 1.717.828 0 1.527-.673 1.527-1.717zM12.226 18.922H4.635v-6.987H6.17v2.445h4.517v-2.445h1.538v6.987zm-1.538-1.436v-1.671H6.171v1.671h4.517zM19.818 4.404a2.895 2.895 0 00-.116.39c-.325 1.332-.855 2.407-1.612 3.302-.774.917-1.704 1.581-3.167 2.25-.332-.62-.474-.81-1.056-1.39.714-.23 1.163-.43 1.76-.811 1.256-.778 2.113-1.928 2.418-3.269H14.47c-.714.001-.933.012-1.264.052V3.447c.357.06.573.066 1.289.066l3.575-.002c.224 0 .317 0 .49-.008a1.12 1.12 0 01.126-.008c-.076-.142-.076-.149-.284-.471l.757-.24c.29.406.358.538.616 1.099l-.282.099.325.422zm.338-1.944c.284.388.417.635.591 1.09L20 3.84c-.158-.404-.298-.668-.583-1.116l.739-.264z"/><path fill="#ED2E7C" d="M31.282 6.407c.448 0 .858.04 1.227.119.368.078.686.208.949.388.265.18.47.418.613.714.146.297.219.666.219 1.103 0 .473-.107.866-.322 1.182-.215.315-.534.573-.958.773.581.167 1.014.457 1.3.874.287.415.429.916.429 1.502 0 .473-.092.883-.276 1.228a2.384 2.384 0 01-.746.846c-.312.219-.669.38-1.068.486-.4.104-.811.157-1.234.157h-4.564v-9.37h4.432l-.002-.002zm-.265 3.792c.37 0 .674-.087.91-.263.238-.175.358-.46.358-.852 0-.219-.04-.399-.12-.54a.87.87 0 00-.317-.327 1.325 1.325 0 00-.455-.164 2.964 2.964 0 00-.534-.046h-1.94V10.2h2.098zm.12 3.976c.203 0 .396-.02.579-.058.186-.04.348-.105.49-.197a1.01 1.01 0 00.334-.374c.084-.157.127-.358.127-.604 0-.48-.136-.824-.41-1.03-.273-.206-.633-.31-1.081-.31H28.92v2.573h2.216zM35.978 10.915c.166-.441.403-.819.713-1.129.306-.31.676-.55 1.106-.721a3.93 3.93 0 011.452-.256 3.98 3.98 0 011.46.256c.434.17.805.411 1.112.721.31.311.547.688.714 1.129.166.441.25.933.25 1.476a4.11 4.11 0 01-.25 1.47 3.088 3.088 0 01-1.827 1.837 4.089 4.089 0 01-1.459.248c-.536 0-1.02-.083-1.452-.248-.43-.165-.8-.405-1.106-.715a3.15 3.15 0 01-.713-1.122 4.086 4.086 0 01-.251-1.47c0-.541.083-1.035.25-1.476zm1.702 2.27c.053.258.143.49.269.695.13.206.297.37.509.492.212.123.473.184.791.184.318 0 .584-.06.798-.183.215-.123.387-.287.516-.492.127-.206.216-.438.268-.696.054-.258.079-.523.079-.794 0-.27-.025-.539-.079-.8a2.075 2.075 0 00-.268-.696 1.515 1.515 0 00-.516-.492c-.214-.127-.48-.191-.798-.191-.318 0-.58.064-.791.191-.212.127-.38.29-.51.492a2.044 2.044 0 00-.268.696c-.053.263-.078.53-.078.8 0 .271.025.537.078.794zM44.037 10.915a3.13 3.13 0 01.714-1.129c.306-.31.676-.55 1.105-.721a3.93 3.93 0 011.453-.256 3.98 3.98 0 011.459.256c.434.17.806.411 1.112.721.31.311.547.688.715 1.129.166.441.25.933.25 1.476a4.11 4.11 0 01-.25 1.47 3.17 3.17 0 01-.715 1.122c-.306.31-.678.55-1.112.715a4.089 4.089 0 01-1.46.248c-.536 0-1.019-.083-1.452-.248a3.095 3.095 0 01-1.819-1.837 4.086 4.086 0 01-.25-1.47c0-.541.083-1.035.25-1.476zm1.703 2.27c.052.258.142.49.268.695.13.206.297.37.51.492.211.123.473.184.79.184.319 0 .584-.06.8-.183.214-.123.385-.287.515-.492.127-.206.216-.438.268-.696.054-.258.078-.523.078-.794 0-.27-.024-.539-.078-.8a2.075 2.075 0 00-.268-.696 1.516 1.516 0 00-.516-.492c-.215-.127-.48-.191-.798-.191-.318 0-.58.064-.792.191-.212.127-.38.29-.509.492a2.046 2.046 0 00-.268.696c-.054.263-.079.53-.079.8 0 .271.025.537.079.794zM53.836 8.992v.946h.04c.237-.394.543-.68.923-.86.378-.18.765-.27 1.16-.27.502 0 .913.069 1.233.203.32.135.573.324.76.565.184.24.313.533.388.878.074.347.112.73.112 1.149v4.173H56.58v-3.831c0-.56-.09-.978-.264-1.254-.177-.276-.489-.414-.936-.414-.512 0-.882.151-1.11.453-.228.302-.343.798-.343 1.49v3.556h-1.872V8.992h1.78zM61.7 8.992v.92h.024a2.66 2.66 0 01.891-.815 2.437 2.437 0 011.194-.29c.447 0 .824.084 1.18.25.357.166.627.459.813.88.202-.298.477-.56.824-.788.347-.227.76-.341 1.233-.341.36 0 .695.044 1.002.131.308.087.572.228.792.42.22.192.39.443.513.754.123.31.186.685.186 1.123v4.54h-1.874v-3.845c0-.228-.01-.442-.025-.643a1.386 1.386 0 00-.145-.525.872.872 0 00-.351-.354c-.153-.087-.363-.132-.626-.132s-.477.051-.64.151c-.162.1-.289.232-.382.393a1.575 1.575 0 00-.184.551 4.13 4.13 0 00-.046.624v3.779h-1.872V11.97c0-.202-.006-.401-.014-.598a1.662 1.662 0 00-.113-.544.846.846 0 00-.329-.4c-.154-.1-.38-.15-.68-.15-.088 0-.204.019-.35.058a1.16 1.16 0 00-.42.224c-.137.11-.252.267-.35.472-.097.206-.146.476-.146.807v3.937h-1.872V8.992H61.7zM73.835 14.149c.28.27.685.406 1.213.406.378 0 .702-.094.974-.283.274-.187.441-.386.503-.596h1.65c-.266.814-.67 1.396-1.213 1.745-.547.35-1.205.524-1.978.524-.538 0-1.021-.085-1.453-.256a3.027 3.027 0 01-1.095-.728 3.301 3.301 0 01-.693-1.129 4.118 4.118 0 01-.243-1.443c0-.526.082-.98.25-1.418.167-.438.404-.816.713-1.135a3.37 3.37 0 011.102-.755 3.551 3.551 0 011.419-.276c.578 0 1.083.112 1.515.334.432.224.785.524 1.061.899.276.376.478.805.6 1.286.124.481.167.984.132 1.508h-4.92c.028.604.181 1.042.463 1.313v.004zm2.117-3.57c-.225-.245-.566-.368-1.022-.368-.301 0-.547.05-.746.15a1.407 1.407 0 00-.474.376c-.12.15-.203.306-.251.472a2.066 2.066 0 00-.085.447h3.046c-.086-.473-.244-.83-.467-1.077h-.001zM81.405 14.149c.281.27.686.406 1.213.406.38 0 .706-.094.977-.283.272-.187.44-.386.502-.596h1.648c-.265.814-.67 1.396-1.214 1.745-.545.35-1.205.524-1.978.524-.535 0-1.02-.085-1.453-.256a3.033 3.033 0 01-1.094-.728 3.241 3.241 0 01-.692-1.129 4.061 4.061 0 01-.245-1.443c0-.526.084-.98.252-1.418.167-.438.404-.816.71-1.135a3.362 3.362 0 011.103-.755 3.545 3.545 0 011.418-.276c.58 0 1.086.112 1.515.334.433.224.786.524 1.062.899.278.376.478.805.601 1.286s.168.984.134 1.508h-4.922c.027.604.18 1.042.462 1.313l.001.004zm2.117-3.57c-.225-.245-.565-.368-1.02-.368-.301 0-.548.05-.746.15a1.399 1.399 0 00-.726.848 2.236 2.236 0 00-.085.447h3.046c-.086-.473-.243-.83-.469-1.077zM92.908 6.407v7.638H97.5v1.733h-6.662v-9.37h2.071zM98.383 11.078c.028-.438.138-.801.33-1.089.192-.289.44-.52.74-.695.296-.176.634-.3 1.007-.373a5.76 5.76 0 011.128-.112c.341 0 .69.024 1.042.072.352.049.671.142.963.283.29.14.527.335.713.585.183.248.279.579.279.99v3.53c0 .308.015.6.051.88.035.28.098.49.185.63h-1.901a2.928 2.928 0 01-.131-.655c-.298.306-.649.52-1.054.643a4.265 4.265 0 01-1.242.183 3.33 3.33 0 01-.908-.118 2.057 2.057 0 01-.739-.369 1.717 1.717 0 01-.496-.63c-.119-.254-.176-.556-.176-.906 0-.385.067-.701.204-.951.136-.249.311-.45.527-.598a2.37 2.37 0 01.738-.334c.28-.075.557-.133.838-.177.281-.045.559-.079.831-.106.272-.026.515-.065.726-.118.211-.054.376-.13.5-.23s.181-.247.173-.44c0-.201-.033-.36-.1-.479a.725.725 0 00-.261-.274 1.029 1.029 0 00-.383-.132 3.113 3.113 0 00-.469-.032c-.368 0-.66.078-.871.237-.212.157-.335.419-.37.786h-1.873v-.001zm4.328 1.377a.851.851 0 01-.296.164 2.87 2.87 0 01-.383.098c-.137.027-.28.048-.428.066a7.35 7.35 0 00-.449.065 3.39 3.39 0 00-.416.106 1.228 1.228 0 00-.356.177.83.83 0 00-.244.282.9.9 0 00-.093.434c0 .165.031.306.093.419a.697.697 0 00.25.27c.105.066.228.111.371.137.138.026.284.04.434.04.37 0 .656-.062.859-.184.202-.123.35-.27.448-.439.095-.17.155-.344.177-.52.022-.174.033-.314.033-.419v-.696zM107.907 6.407V9.82h.027c.228-.35.539-.605.929-.768a3.18 3.18 0 011.22-.243 2.608 2.608 0 011.92.852c.268.29.485.66.653 1.11.167.45.251.986.251 1.607s-.084 1.158-.251 1.608c-.168.452-.384.82-.653 1.11a2.61 2.61 0 01-1.92.852 3.61 3.61 0 01-1.345-.236 1.712 1.712 0 01-.898-.8h-.025v.865h-1.781V6.407h1.873zm3.034 5.158a2.126 2.126 0 00-.29-.695 1.505 1.505 0 00-.495-.48 1.373 1.373 0 00-.718-.176c-.28 0-.509.06-.711.177-.203.118-.37.277-.502.479a2.17 2.17 0 00-.289.695 3.595 3.595 0 00-.093.827c0 .287.031.55.093.813.061.263.158.495.289.695.132.202.299.361.502.48.203.118.44.177.711.177.271 0 .521-.059.718-.178.198-.118.364-.277.495-.479a2.15 2.15 0 00.29-.695 3.53 3.53 0 00.092-.813c0-.28-.03-.565-.092-.827z"/></svg>