<svg xmlns="http://www.w3.org/2000/svg" fill="none" viewBox="0 0 69 24"><path fill="#fff" d="M8.415 17.057c.021.037.028.044.028.05.047.484-.174.726-.664.726h-6.38c-.242 0-.363-.121-.363-.363v-.407c.335-.039.661-.073.987-.116a5.45 5.45 0 00.454-.084c.532-.116.86-.432.93-.96.054-.413.1-.83.1-1.246.007-3.825.007-7.65 0-11.473a9.905 9.905 0 00-.1-1.247c-.07-.531-.41-.85-.937-.954a13.75 13.75 0 00-1.3-.177C1.008.79.97.73.965.586.946.006.943.006 1.54.006 3.691.005 5.843.008 7.993 0c.238 0 .304.068.296.293-.015.479-.003.477-.488.544-.289.04-.58.075-.863.137-.508.11-.844.409-.916.919-.063.451-.112.908-.116 1.364C5.89 4.715 5.9 6.174 5.9 7.633c0 .046.01.091.017.155h9.587c.006-.077.017-.153.017-.228-.003-1.625 0-3.249-.018-4.873a3.613 3.613 0 00-.143-.979c-.158-.534-.621-.71-1.135-.786-.368-.055-.739-.097-1.124-.147V.018h7.342v.756c-.383.048-.767.09-1.148.146-.389.056-.794.13-1.02.474-.146.223-.244.5-.279.764-.06.459-.073.926-.074 1.39-.005 3.573-.01 7.145.003 10.716.002.588.06 1.179.137 1.763.056.433.364.706.794.797.45.096.91.141 1.367.21l.2.029c0 .219.007.437-.005.653-.003.04-.074.092-.124.11-.058.019-.128.007-.193.007H13.21c-.225 0-.338-.106-.339-.319-.001-.472 0-.458.486-.509.41-.042.82-.1 1.221-.193.435-.1.736-.374.804-.818.066-.426.13-.859.134-1.288.015-1.814.003-3.628.011-5.441.001-.223-.053-.295-.294-.295-3.011.008-6.023.007-9.034 0-.23 0-.305.055-.304.288.01 1.743-.007 3.486.013 5.228.006.532.077 1.066.163 1.592.064.394.357.643.745.73.456.102.925.151 1.388.223.071.01.143.018.211.026zM53.453 3.265h.324c2.191 0 4.382-.017 6.573.005 1.524.015 3.022.204 4.432.822 1.502.66 2.52 1.756 3.106 3.241.62 1.577.625 3.189.227 4.809-.462 1.882-1.591 3.294-3.283 4.292a9.078 9.078 0 01-4.304 1.273c-2.35.089-4.703.072-7.054.104-.169.002-.223-.052-.224-.217-.005-.554-.01-.546.557-.606.289-.031.576-.087.86-.147.39-.084.595-.35.638-.716.046-.39.067-.784.067-1.177.006-2.94.005-5.88 0-8.82 0-.386-.018-.773-.063-1.155-.054-.454-.275-.663-.744-.745a9.396 9.396 0 00-.89-.117c-.161-.012-.236-.05-.225-.22.013-.195.003-.392.003-.626zm6.112.938c-.364.022-.73.024-1.09.07-.8.099-.93.249-.93 1.028-.002 3.232-.004 6.464.005 9.695 0 .272.043.554.122.815.12.394.38.705.804.82 1.42.387 2.803.21 4.125-.364 1.502-.654 2.442-1.831 2.926-3.326.6-1.855.626-3.718-.16-5.545-.482-1.119-1.305-1.938-2.409-2.493-1.064-.534-2.209-.698-3.392-.7zM49.477 14.226v-.315c-.003-2.136.008-4.273-.017-6.41-.01-.769-.098-1.54-.174-2.307-.052-.526-.387-.84-.905-.951a10.445 10.445 0 00-1.081-.157c-.152-.016-.206-.061-.21-.214-.013-.608-.018-.607.6-.607h4.937v.775c-.344.061-.688.107-1.025.185-.488.114-.774.432-.815.914-.071.839-.156 1.68-.162 2.522-.023 3.358-.018 6.717-.023 10.076V18c-.277 0-.534.006-.79-.005-.052-.002-.112-.058-.15-.104-.762-.909-1.52-1.822-2.282-2.73-.956-1.141-1.917-2.278-2.873-3.42-1.073-1.281-2.143-2.566-3.215-3.85-.351-.42-.704-.838-1.093-1.303-.01.123-.02.188-.02.252.003 2.192-.007 4.384.018 6.576.009.794.083 1.589.163 2.38.064.635.369.942 1.01 1.072.362.073.733.11 1.129.168 0 .204.011.416-.008.625-.005.053-.102.132-.165.14-.16.02-.324.008-.486.008-1.542 0-3.084-.006-4.627.005-.25.002-.336-.069-.306-.307.019-.155.003-.313.003-.47.337-.053.655-.097.97-.153.606-.11.946-.486 1.002-1.063.073-.76.13-1.524.138-2.287.024-2.277.023-4.556.026-6.834 0-.346.005-.698-.052-1.038-.113-.676-.54-1.139-1.19-1.373-.321-.116-.678-.145-1.021-.196-.157-.022-.217-.072-.218-.235-.002-.594-.009-.594.612-.594.893 0 1.786.004 2.679-.003a.458.458 0 01.391.18c1.33 1.566 2.664 3.129 4 4.69 1.176 1.373 2.356 2.743 3.532 4.116.487.568.968 1.14 1.453 1.71.065.076.135.148.246.268l-.001.001zM29.238 2.903l.692 1.86c.502 1.354 1.003 2.708 1.503 4.063.399 1.08.788 2.165 1.194 3.243.456 1.211.924 2.418 1.395 3.624.074.19.184.368.293.542.269.43.69.626 1.185.696.208.03.416.058.662.09 0 .222.012.448-.01.671-.004.045-.14.11-.215.112-.6.009-1.2.005-1.802.005-1.152 0-2.305-.004-3.457.004-.216.001-.298-.051-.29-.277.015-.516.003-.513.519-.598.191-.032.383-.071.567-.127.341-.104.441-.27.343-.613a17.395 17.395 0 00-.386-1.169c-.27-.74-.557-1.475-.824-2.217-.058-.16-.13-.22-.308-.22-1.428.007-2.857.006-4.285.002-.14 0-.216.032-.264.172-.34.992-.703 1.977-1.032 2.973-.26.789-.11 1.012.729 1.172.207.04.417.07.627.081.149.009.195.066.192.203-.015.737.104.608-.599.612-1.42.007-2.84-.003-4.26.006-.236.002-.308-.068-.302-.295.014-.499 0-.521.493-.573.89-.094 1.41-.61 1.725-1.369.542-1.305 1.076-2.613 1.611-3.92.422-1.031.843-2.062 1.262-3.093.575-1.42 1.146-2.84 1.72-4.26.14-.343.278-.687.426-1.027a.275.275 0 01.141-.14c.243-.085.49-.153.756-.233zm.88 8.506l-1.846-5.194-.06-.006-1.971 5.2h3.877zM34.774 23.316v-.982c0-.292.003-.584 0-.876-.002-.17.115-.157.233-.16.117-.001.206.014.205.162-.003.81-.001 1.621-.001 2.427-.386.098-.458.077-.674-.205-.43-.561-.857-1.124-1.285-1.686-.013-.016-.036-.024-.086-.057v1.974c-.09.008-.155.006-.216.02-.179.043-.226-.03-.224-.196.006-.71-.001-1.419.006-2.128.001-.096.052-.27.09-.273.165-.012.35-.09.49.094.456.602.92 1.197 1.383 1.795.014.018.03.035.08.09h-.001zM10.886 23.992c-.885 0-1.4-.374-1.534-1.063A1.343 1.343 0 0110.5 21.34c.592-.083 1.158-.023 1.572.466.353.418.37.901.182 1.382-.186.475-.588.711-1.094.786-.112.016-.226.015-.274.019zm.979-1.323c.008-.598-.4-1.028-.98-1.035-.643-.008-1.05.384-1.064 1.025-.012.57.41 1.017.97 1.025.65.009 1.064-.384 1.073-1.015zM45.378 22.735c.477.268.396.784.633 1.15-.42.117-.517.069-.625-.3-.022-.075-.039-.152-.06-.227a.745.745 0 00-.935-.5c-.053.018-.103.129-.106.198-.012.28-.005.562-.005.858h-.46v-.4c0-.639.008-1.277-.005-1.914-.004-.209.066-.282.277-.27.41.024.824.008 1.23.061.293.038.52.213.559.538.04.334-.08.584-.405.728-.028.013-.05.038-.099.076v.002zM44.28 21.64v.35c0 .623.04.655.684.55l.024-.004c.238-.049.445-.274.436-.472-.01-.218-.177-.393-.447-.42-.223-.022-.449-.004-.698-.004zM53.213 23.93c-.142 0-.246.022-.332-.007-.09-.03-.199-.094-.236-.171-.09-.183-.13-.387-.21-.576-.101-.238-.652-.433-.884-.313-.044.024-.07.115-.072.176-.007.283-.003.566-.003.87h-.434c-.005-.05-.017-.109-.017-.168-.002-.725.003-1.45-.005-2.174-.002-.171.046-.245.231-.236.41.02.825.003 1.231.05.292.035.535.2.593.513.064.352-.073.614-.414.768-.026.01-.042.043-.07.073.43.28.4.767.621 1.194zm-1.727-1.373c.127 0 .23.002.333 0 .12-.005.244-.002.362-.022.237-.043.45-.273.445-.463-.006-.204-.186-.397-.444-.425-.227-.024-.459-.005-.697-.005v.915zM19.703 23.902l.788-1.84c.081-.189.181-.372.24-.566.067-.217.232-.168.387-.18.162-.013.27.025.338.188.24.582.493 1.158.74 1.737.093.216.184.432.277.652-.439.09-.51.087-.63-.294-.122-.387-.344-.45-.724-.457-.435-.008-.71.064-.827.52-.08.314-.134.306-.589.24zm1.373-2.148l-.43 1.078h.875l-.445-1.078zM31.052 22.47v.3H29.78c0 .269-.01.51.01.749.003.041.123.105.191.106.396.01.792.006 1.203.006v.283h-1.852c-.007-.066-.018-.134-.019-.201-.001-.717.004-1.435-.004-2.152-.002-.179.04-.253.242-.247.51.013 1.02.004 1.55.004v.316c-.362 0-.726.007-1.089-.004-.177-.005-.245.043-.24.225.022.735-.105.6.626.614.21.004.42 0 .654 0zM47.438 21.35c.51-.028 1.01-.102 1.501.05.385.119.54.316.547.66.007.389-.152.631-.521.761a2.487 2.487 0 01-.516.126c-.175.021-.355.005-.565.005v.961h-.446V21.35zm.448 1.302c.286-.035.557-.043.814-.108.223-.056.333-.247.32-.47-.014-.203-.134-.363-.348-.396-.256-.04-.518-.044-.786-.065v1.04zM40.826 23.63h1.389v.284h-1.84v-2.58h1.768v.299H40.81c0 .253-.01.48.008.704.004.049.115.122.18.125.283.015.568.016.852.004.227-.01.298.072.21.306h-1.235v.858zM60.792 23.633h1.389v.283c-.075.005-.138.013-.201.013h-1.642v-2.596h1.77v.298h-1.33c0 .252-.01.486.01.718.003.044.12.11.189.114.275.013.552.014.827.003.22-.008.306.064.215.307H60.79v.86zM56.745 23.578c.32.038.605.088.892.098a.747.747 0 00.385-.116c.228-.137.238-.42.016-.569-.144-.095-.321-.139-.48-.215-.22-.108-.45-.205-.652-.341-.3-.201-.258-.722.144-.953.367-.21 1.066-.227 1.48-.029-.021.194-.067.316-.33.242a1.86 1.86 0 00-.622-.043c-.194.013-.37.117-.386.328-.017.205.152.301.32.37.217.086.442.152.658.24.42.173.602.528.46.887-.126.318-.408.455-.72.483-.318.028-.646.01-.963-.035-.334-.047-.333-.077-.202-.347zM7.843 21.436c-.046.112-.08.196-.116.28-.237-.028-.457-.063-.679-.079-.094-.006-.209 0-.28.049-.11.073-.256.182-.265.285-.01.105.103.267.208.326.207.115.45.168.673.262.28.118.54.26.56.611.026.442-.235.742-.767.794a4.155 4.155 0 01-.963-.042c-.323-.044-.33-.093-.17-.344.304.037.59.092.876.097a.807.807 0 00.422-.143.315.315 0 00.001-.524c-.142-.097-.313-.156-.474-.225-.17-.073-.353-.121-.512-.21-.231-.128-.37-.319-.348-.6.021-.26.176-.417.4-.518.465-.21.934-.173 1.435-.018zM16.205 21.463l-.103.214c-.376 0-.735-.044-1.077.01-.573.09-.907.522-.864 1.023.049.567.448.948 1.051.967.288.01.578-.03.892-.05l.112.263c-.768.137-1.496.233-2.133-.268-.608-.478-.54-1.524.104-1.956.557-.375 1.446-.473 2.018-.203zM37.569 23.914v-2.279c-.284 0-.541-.001-.799.002-.123 0-.225 0-.221-.167.003-.162.102-.171.226-.171.665.001 1.33.009 1.996-.004.253-.005.291.1.229.328h-.968v2.291h-.463zM23.94 21.332c.084-.005.155-.006.226-.014.168-.02.226.045.224.212-.009.613.006 1.228-.009 1.842-.004.209.057.273.273.263.37-.017.741-.004 1.127-.004l.015.275H23.94v-2.573zM18.174 23.916h-.438c-.006-.077-.015-.151-.015-.226 0-.709.004-1.417-.003-2.125-.002-.17.026-.258.236-.255.194.003.225.077.223.24-.006.779-.003 1.558-.003 2.366zM54.691 21.325h.417v2.592h-.417v-2.592z"/></svg>