<svg xmlns="http://www.w3.org/2000/svg" fill="none" viewBox="0 0 88 26"><path fill="#fff" d="M38.906 11.481c0-5.342 1.666-8.333 6.017-8.333a7.328 7.328 0 013.536.85l-.447 2.981a7.862 7.862 0 00-2.938-.621c-1.457 0-2.288.524-2.288 3.754v2.607c0 3.507.894 4.177 2.288 4.177a6.4 6.4 0 002.885-.845l.723 2.836a7.546 7.546 0 01-3.856 1.044c-4.278-.02-5.92-3.2-5.92-8.45zM69.924.432l.714 2.836v10.393c-.527.25-1.107.37-1.69.35-1.044 0-1.496-.598-1.496-2.065V.432h-4.414l.709 2.836v7.804c0 4.478 2.015 5.828 4.254 5.828.688.018 1.373-.101 2.015-.35l.971-1.617.768 1.67h2.588V.433h-4.42zM19.456 3.425l.714 2.836v10.392c-.527.25-1.107.37-1.69.35-1.044 0-1.496-.597-1.496-2.064V3.425H12.57l.714 2.836v7.809c0 4.472 2.015 5.827 4.254 5.827a5.343 5.343 0 002.015-.344l.972-1.618.767 1.666h2.588V3.425h-4.424zM30.976 19.609l-.694-2.841V6.375c.529-.25 1.11-.37 1.694-.35 1.044 0 1.491.598 1.491 2.064v11.52h4.42l-.714-2.841V8.964c0-4.478-2.016-5.828-4.254-5.828a5.226 5.226 0 00-2.016.35l-.971 1.617-.772-1.666H26.57v16.191l4.405-.02zM81.924.432h-5.61l.715 2.836v10.514l-.714 2.822h4.42v-4.711h1.218c3.453 0 5.444-1.739 5.444-5.716 0-3.977-1.99-5.745-5.473-5.745zm1.617 6.488c0 1.768-.447 2.263-1.714 2.263h-1.122V3.39h1.054c1.292 0 1.763.447 1.763 2.166l.02 1.365zM6.145 3.425H.531l.714 2.836v10.514l-.714 2.84h4.42V14.89H6.17c3.457 0 5.444-1.743 5.444-5.72 0-3.978-1.987-5.745-5.469-5.745zm1.617 6.488c0 1.767-.451 2.263-1.719 2.263H4.926v-5.77H6c1.291 0 1.767.447 1.767 2.166l-.005 1.34zM61.066 6.26l.714-2.835h-5.104l.709 2.836v3.603h-3.307V6.261l.713-2.836h-5.133l.714 2.836v10.514l-.714 2.84h5.133l-.713-2.84V12.85h3.307v3.924l-.71 2.84h5.105l-.714-2.84V6.26zM61.78 22.591H.53v2.977H61.78v-2.977zM86.96 19.61H61.78v2.986h25.18V19.61z"/></svg>