<svg xmlns="http://www.w3.org/2000/svg" viewBox="0 0 30 30"><path d="M15 0C6.75 0 0 6.75 0 15s6.75 15 15 15 15-6.75 15-15S23.25 0 15 0zm7.2 11.325v.45c0 4.875-3.75 10.575-10.575 10.575-2.1 0-4.05-.6-5.7-1.65.3 0 .6.075.9.075 1.725 0 3.3-.6 4.575-1.575-1.65 0-3-1.125-3.45-2.55.225.075.45.075.675.075.375 0 .675-.075.975-.15-1.725-.375-3-1.875-3-3.6V12.9c.525.3 1.05.45 1.65.45-.9-.75-1.5-1.875-1.5-3.15 0-.675.15-1.35.525-1.875 1.8 2.25 4.575 3.75 7.65 3.9-.075-.3-.075-.525-.075-.825a3.681 3.681 0 013.675-3.675c1.05 0 2.025.45 2.7 1.2.825-.15 1.65-.45 2.325-.9-.3.9-.9 1.575-1.65 2.025.75-.075 1.5-.3 2.1-.6-.45.675-1.125 1.35-1.8 1.875z"/></svg>