<svg xmlns="http://www.w3.org/2000/svg" viewBox="0 0 30 30"><path d="M15 0C6.75 0 0 6.75 0 15s6.75 15 15 15 15-6.75 15-15S23.25 0 15 0zm3.975 9.15h-1.5c-.675 0-1.05.375-1.125.975V11.7c0 .225.075.15.225.15h2.25c.225 0 .3.075.3.3-.075.9-.15 1.725-.225 2.625 0 .225-.075.225-.3.225h-1.8c-.45 0-.375-.075-.375.375v8.25c0 .3-.075.375-.375.375h-3.075c-.3 0-.3-.075-.3-.375V15.3c0-.225-.075-.3-.3-.3h-1.35c-.15 0-.225-.075-.225-.225V12.15c0-.15.075-.225.225-.225h1.35c.225 0 .3-.075.3-.3V9.6c0-.825.225-1.575.75-2.25.6-.825 1.5-1.2 2.475-1.275 1.05-.075 2.1 0 3.075 0 .15 0 .15.075.15.225v2.625c.075.15 0 .225-.15.225z"/></svg>